<svg width="30" height="30" viewBox="0 0 30 30" fill="none" xmlns="http://www.w3.org/2000/svg">
<path d="M19.8374 16.9736C19.0369 16.9736 18.3775 16.7106 17.8592 16.1847C17.3409 15.6589 17.0817 15.003 17.0817 14.2172C17.0817 13.4314 17.339 12.7736 17.8535 12.244C18.368 11.7143 19.0256 11.4495 19.8261 11.4495C20.6266 11.4495 21.286 11.7124 21.8043 12.2383C22.3226 12.7642 22.5817 13.4201 22.5817 14.2059C22.5817 14.9917 22.3245 15.6494 21.8099 16.1791C21.2954 16.7087 20.6379 16.9736 19.8374 16.9736ZM13.2932 23.5577V22.2885C13.2932 22.0381 13.355 21.7996 13.4784 21.573C13.6018 21.3465 13.7716 21.1763 13.988 21.0625C14.8453 20.524 15.7689 20.1094 16.7586 19.8185C17.7484 19.5276 18.7728 19.3822 19.8317 19.3822C20.8907 19.3822 21.9138 19.5353 22.9012 19.8413C23.8885 20.1474 24.8213 20.5545 25.6995 21.0625C25.879 21.2067 26.0356 21.3855 26.1695 21.5988C26.3033 21.8121 26.3702 22.042 26.3702 22.2885V23.5577H13.2932ZM14.1466 22.0601V22.5962H25.5168V22.0601C24.6563 21.5344 23.7268 21.117 22.7284 20.8077C21.73 20.4984 20.7644 20.3438 19.8317 20.3438C18.899 20.3438 17.9323 20.4984 16.9315 20.8077C15.9307 21.117 15.0024 21.5344 14.1466 22.0601ZM19.8317 16.012C20.3489 16.012 20.7763 15.8433 21.1139 15.5057C21.4514 15.1682 21.6202 14.7408 21.6202 14.2236C21.6202 13.7139 21.4514 13.2844 21.1139 12.9351C20.7763 12.5857 20.3489 12.4111 19.8317 12.4111C19.3145 12.4111 18.8871 12.5857 18.5496 12.9351C18.212 13.2844 18.0433 13.7139 18.0433 14.2236C18.0433 14.7332 18.212 15.1586 18.5496 15.5C18.8871 15.8414 19.3145 16.012 19.8317 16.012ZM4.85574 16.7308V15.7692H13.4086V16.7308H4.85574ZM4.85574 6.58653V5.625H18.5072V6.58653H4.85574ZM14.9928 11.6466H4.85574V10.6851H15.625C15.5111 10.8482 15.3929 11.008 15.2705 11.1643C15.148 11.3207 15.0554 11.4815 14.9928 11.6466Z" fill="#232323"/>
</svg>
