<svg width="24" height="24" viewBox="0 0 24 24" fill="none" xmlns="http://www.w3.org/2000/svg">
<path d="M12 12.5002C12.8385 12.5002 13.5481 12.2098 14.1288 11.6291C14.7096 11.0483 15 10.3387 15 9.50022C15 8.66176 14.7096 7.95214 14.1288 7.37137C13.5481 6.79061 12.8385 6.50022 12 6.50022C11.1615 6.50022 10.4519 6.79061 9.87115 7.37137C9.29038 7.95214 9 8.66176 9 9.50022C9 10.3387 9.29038 11.0483 9.87115 11.6291C10.4519 12.2098 11.1615 12.5002 12 12.5002ZM12 20.9618C9.84872 20.3195 8.14422 19.0823 6.88652 17.2502C5.62884 15.4182 5 13.3682 5 11.1002V5.69252L12 3.07715L19 5.69252V11.1002C19 13.3682 18.3712 15.4182 17.1135 17.2502C15.8558 19.0823 14.1513 20.3195 12 20.9618ZM12 19.9002C12.8936 19.6092 13.7035 19.1743 14.4298 18.5954C15.1561 18.0166 15.7833 17.3406 16.3115 16.5675C15.6462 16.2265 14.9516 15.9634 14.2279 15.7781C13.5042 15.5928 12.7615 15.5002 12 15.5002C11.2385 15.5002 10.4958 15.5928 9.77213 15.7781C9.04839 15.9634 8.35383 16.2265 7.68845 16.5675C8.21667 17.3406 8.84392 18.0166 9.5702 18.5954C10.2965 19.1743 11.1064 19.6092 12 19.9002Z" fill="white"/>
</svg>
