<svg width="20" height="20" viewBox="0 0 20 20" fill="none" xmlns="http://www.w3.org/2000/svg">
<g clip-path="url(#clip0_146_282)">
<path d="M13.7492 0C12.6829 0.07375 11.4367 0.75625 10.7104 1.645C10.0479 2.45125 9.50291 3.64875 9.71541 4.8125C10.8804 4.84875 12.0842 4.15 12.7817 3.24625C13.4342 2.405 13.9279 1.215 13.7492 0Z" fill="black"/>
<path d="M17.9629 6.70995C16.9391 5.42621 15.5004 4.68121 14.1416 4.68121C12.3479 4.68121 11.5891 5.53996 10.3429 5.53996C9.05791 5.53996 8.08167 4.68371 6.53043 4.68371C5.00669 4.68371 3.3842 5.61496 2.35545 7.20745C0.909212 9.44994 1.15671 13.6662 3.50045 17.2574C4.33919 18.5424 5.45919 19.9874 6.92418 19.9999C8.22792 20.0124 8.59542 19.1636 10.3617 19.1549C12.1279 19.1449 12.4629 20.0111 13.7641 19.9974C15.2304 19.9861 16.4116 18.3849 17.2504 17.0999C17.8516 16.1786 18.0754 15.7149 18.5416 14.6749C15.1504 13.3837 14.6066 8.56119 17.9629 6.70995Z" fill="black"/>
</g>
<defs>
<clipPath id="clip0_146_282">
<rect width="20" height="20" fill="white"/>
</clipPath>
</defs>
</svg>
