<svg width="30" height="30" viewBox="0 0 30 30" fill="none" xmlns="http://www.w3.org/2000/svg">
<path d="M17.9239 14.0457L12.8259 8.94765C13.0781 8.72514 13.3919 8.54925 13.7672 8.41998C14.1425 8.29071 14.5691 8.22608 15.047 8.22608C16.0561 8.22608 16.9042 8.57354 17.5914 9.26848C18.2785 9.96342 18.622 10.8233 18.622 11.8481C18.622 12.2633 18.5574 12.6821 18.4281 13.1044C18.2988 13.5267 18.1308 13.8404 17.9239 14.0457ZM7.72778 21.9925C8.93277 21.1746 10.0927 20.5497 11.2076 20.1181C12.3225 19.6864 13.5866 19.4705 15 19.4705C16.1298 19.4705 17.1495 19.6049 18.0591 19.8736C18.9687 20.1423 19.6969 20.4287 20.2438 20.7327L15.0047 15.4936C13.9517 15.4529 13.0989 15.1124 12.4463 14.4723C11.7936 13.8322 11.4477 12.9935 11.4085 11.9562L7.58206 8.12971C6.797 9.01502 6.16043 10.0245 5.67234 11.1582C5.18422 12.2919 4.94016 13.5725 4.94016 15C4.94016 16.3836 5.17678 17.6395 5.65 18.7677C6.12322 19.8959 6.81582 20.9709 7.72778 21.9925ZM22.519 21.7387C23.232 20.8988 23.8337 19.9214 24.3242 18.8065C24.8146 17.6916 25.0598 16.4228 25.0598 15C25.0598 12.1873 24.0864 9.80751 22.1394 7.86057C20.1925 5.91363 17.8127 4.94016 15 4.94016C13.6054 4.94016 12.3464 5.16973 11.2229 5.62886C10.0994 6.08796 9.10984 6.69515 8.25428 7.45042L22.519 21.7387ZM15 26C13.4707 26 12.0369 25.7144 10.6987 25.1433C9.36053 24.5721 8.19511 23.7902 7.20247 22.7975C6.2098 21.8049 5.42788 20.6395 4.85672 19.3013C4.28557 17.9631 4 16.5293 4 15C4 13.4659 4.28557 12.031 4.85672 10.6952C5.42788 9.35935 6.2098 8.19511 7.20247 7.20244C8.19511 6.20979 9.36053 5.42788 10.6987 4.85672C12.0369 4.28557 13.4707 4 15 4C16.5341 4 17.969 4.28557 19.3048 4.85672C20.6406 5.42788 21.8049 6.20979 22.7976 7.20244C23.7902 8.19511 24.5721 9.35935 25.1433 10.6952C25.7144 12.031 26 13.4659 26 15C26 16.5293 25.7144 17.9631 25.1433 19.3013C24.5721 20.6395 23.7902 21.8049 22.7976 22.7975C21.8049 23.7902 20.6406 24.5721 19.3048 25.1433C17.969 25.7144 16.5341 26 15 26ZM15 25.0598C16.2019 25.0598 17.3602 24.8514 18.4751 24.4346C19.59 24.0178 20.6199 23.4302 21.5647 22.6718C20.6512 21.9698 19.5998 21.4174 18.4105 21.0147C17.2212 20.612 16.0843 20.4107 15 20.4107C13.9157 20.4107 12.7984 20.6003 11.6483 20.9795C10.4981 21.3587 9.43497 21.9228 8.45876 22.6718C9.38797 23.4302 10.4112 24.0178 11.5284 24.4346C12.6457 24.8514 13.8029 25.0598 15 25.0598Z" fill="#232323"/>
</svg>
