<svg width="25" height="25" viewBox="0 0 25 25" fill="none" xmlns="http://www.w3.org/2000/svg">
<path d="M1.82063 24.4036C1.31802 24.4036 0.888931 24.2258 0.533359 23.8703C0.177786 23.5147 0 23.0856 0 22.583V1.82063C0 1.31802 0.177786 0.888931 0.533359 0.533359C0.888931 0.177786 1.31802 0 1.82063 0H13.9806C14.4832 0 14.9123 0.177786 15.2678 0.533359C15.6234 0.888931 15.8012 1.31802 15.8012 1.82063V6.33094H14.3524V4.69851H1.44879V19.7051H14.3524V18.0727H15.8012V22.583C15.8012 23.0856 15.6234 23.5147 15.2678 23.8703C14.9123 24.2258 14.4832 24.4036 13.9806 24.4036H1.82063ZM1.82063 22.9548H13.9806C14.0735 22.9548 14.1587 22.9161 14.2362 22.8386C14.3137 22.7612 14.3524 22.676 14.3524 22.583V21.1539H1.44879V22.583C1.44879 22.676 1.48752 22.7612 1.56497 22.8386C1.64245 22.9161 1.72766 22.9548 1.82063 22.9548ZM15.0995 16.2683C13.9531 16.2683 12.987 15.8739 12.2012 15.085C11.4154 14.2961 11.0225 13.3335 11.0225 12.1972C11.0225 11.0609 11.417 10.0998 12.2059 9.31401C12.9948 8.52822 13.9624 8.13532 15.1088 8.13532C16.2551 8.13532 17.2162 8.52977 17.9919 9.31867C18.7676 10.1076 19.1555 11.0702 19.1555 12.2065C19.1555 13.3428 18.7661 14.3038 17.9873 15.0896C17.2084 15.8754 16.2458 16.2683 15.0995 16.2683ZM15.0884 15.2877C15.4327 15.2877 15.7546 15.2434 16.0539 15.1547C16.3533 15.066 16.6238 14.9248 16.8655 14.7312L12.5557 10.4253C12.391 10.6933 12.2618 10.9707 12.1681 11.2576C12.0743 11.5445 12.0275 11.8592 12.0275 12.2018C12.0275 13.0603 12.3226 13.7892 12.913 14.3886C13.5033 14.988 14.2284 15.2877 15.0884 15.2877ZM17.6222 13.9783C17.8149 13.6925 17.9511 13.4115 18.0308 13.1352C18.1106 12.859 18.1505 12.5479 18.1505 12.2018C18.1505 11.3433 17.8553 10.6144 17.265 10.015C16.6747 9.41561 15.9495 9.11591 15.0896 9.11591C14.7453 9.11591 14.426 9.16025 14.1316 9.24895C13.8373 9.33764 13.5642 9.4788 13.3125 9.67244L17.6222 13.9783ZM1.44879 3.24969H14.3524V1.82063C14.3524 1.72766 14.3137 1.64246 14.2362 1.565C14.1587 1.48753 14.0735 1.44879 13.9806 1.44879H1.82063C1.72766 1.44879 1.64245 1.48753 1.56497 1.565C1.48752 1.64246 1.44879 1.72766 1.44879 1.82063V3.24969Z" fill="#F55252"/>
</svg>
