<svg width="42" height="43" viewBox="0 0 42 43" fill="none" xmlns="http://www.w3.org/2000/svg">
<path d="M7.67305 35.7085C7.00055 35.7085 6.42858 35.4728 5.95713 35.0014C5.48571 34.5299 5.25 33.9579 5.25 33.2854V15.3815C5.25 14.709 5.48571 14.1371 5.95713 13.6656C6.42858 13.1942 7.00055 12.9585 7.67305 12.9585H15.75V10.1315C15.75 9.45902 15.9857 8.88705 16.4571 8.41563C16.9286 7.94421 17.5006 7.7085 18.173 7.7085H23.827C24.4994 7.7085 25.0714 7.94421 25.5429 8.41563C26.0143 8.88705 26.25 9.45902 26.25 10.1315V12.9585H34.327C34.9994 12.9585 35.5714 13.1942 36.0429 13.6656C36.5143 14.1371 36.75 14.709 36.75 15.3815V33.2854C36.75 33.9579 36.5143 34.5299 36.0429 35.0014C35.5714 35.4728 34.9994 35.7085 34.327 35.7085H7.67305ZM7.67305 34.3624H34.327C34.5962 34.3624 34.843 34.2502 35.0673 34.0258C35.2917 33.8014 35.4039 33.5547 35.4039 33.2854V15.3815C35.4039 15.1123 35.2917 14.8655 35.0673 14.6412C34.843 14.4168 34.5962 14.3046 34.327 14.3046H7.67305C7.40384 14.3046 7.15705 14.4168 6.93267 14.6412C6.70832 14.8655 6.59614 15.1123 6.59614 15.3815V33.2854C6.59614 33.5547 6.70832 33.8014 6.93267 34.0258C7.15705 34.2502 7.40384 34.3624 7.67305 34.3624ZM17.0961 12.9585H24.9039V10.1315C24.9039 9.86231 24.7917 9.61551 24.5673 9.39116C24.343 9.16681 24.0962 9.05464 23.827 9.05464H18.173C17.9038 9.05464 17.657 9.16681 17.4327 9.39116C17.2083 9.61551 17.0961 9.86231 17.0961 10.1315V12.9585Z" fill="black" fill-opacity="0.7"/>
</svg>
