<svg width="24" height="25" viewBox="0 0 24 25" fill="none" xmlns="http://www.w3.org/2000/svg">
<path d="M12 17.2308C13.0449 17.2308 13.9279 16.8702 14.649 16.1491C15.3702 15.4279 15.7308 14.5449 15.7308 13.5C15.7308 12.4551 15.3702 11.5721 14.649 10.851C13.9279 10.1298 13.0449 9.76922 12 9.76922C10.9551 9.76922 10.0721 10.1298 9.35095 10.851C8.6298 11.5721 8.26923 12.4551 8.26923 13.5C8.26923 14.5449 8.6298 15.4279 9.35095 16.1491C10.0721 16.8702 10.9551 17.2308 12 17.2308ZM12 16.2308C11.2231 16.2308 10.5737 15.9699 10.0519 15.4481C9.53013 14.9263 9.26923 14.2769 9.26923 13.5C9.26923 12.7231 9.53013 12.0737 10.0519 11.5519C10.5737 11.0301 11.2231 10.7692 12 10.7692C12.7769 10.7692 13.4263 11.0301 13.9481 11.5519C14.4699 12.0737 14.7308 12.7231 14.7308 13.5C14.7308 14.2769 14.4699 14.9263 13.9481 15.4481C13.4263 15.9699 12.7769 16.2308 12 16.2308ZM4.61538 20.5C4.15513 20.5 3.77083 20.3458 3.4625 20.0375C3.15417 19.7292 3 19.3449 3 18.8846V8.11537C3 7.65512 3.15417 7.27083 3.4625 6.9625C3.77083 6.65417 4.15513 6.5 4.61538 6.5H7.57308L9.42308 4.5H14.5769L16.4269 6.5H19.3846C19.8449 6.5 20.2292 6.65417 20.5375 6.9625C20.8458 7.27083 21 7.65512 21 8.11537V18.8846C21 19.3449 20.8458 19.7292 20.5375 20.0375C20.2292 20.3458 19.8449 20.5 19.3846 20.5H4.61538Z" fill="black"/>
</svg>
