<svg width="23" height="20" viewBox="0 0 23 20" fill="none" xmlns="http://www.w3.org/2000/svg">
<path d="M11.4963 15.8221C12.8028 15.8221 13.8999 15.3878 14.7878 14.5192C15.6757 13.6506 16.1197 12.5773 16.1197 11.2993C16.1197 10.0212 15.6757 8.94912 14.7878 8.08294C13.8999 7.21675 12.8028 6.78366 11.4963 6.78366C10.1899 6.78366 9.09391 7.21675 8.20848 8.08294C7.32304 8.94912 6.88032 10.0212 6.88032 11.2993C6.88032 12.5773 7.32304 13.6506 8.20848 14.5192C9.09391 15.3878 10.1899 15.8221 11.4963 15.8221ZM11.4963 14.8606C10.4602 14.8606 9.59562 14.5204 8.90266 13.8402C8.20972 13.1599 7.86325 12.3129 7.86325 11.2993C7.86325 10.2857 8.20972 9.43991 8.90266 8.76203C9.59562 8.08414 10.4602 7.74519 11.4963 7.74519C12.5325 7.74519 13.3982 8.08414 14.0936 8.76203C14.789 9.43991 15.1367 10.2857 15.1367 11.2993C15.1367 12.3129 14.789 13.1599 14.0936 13.8402C13.3982 14.5204 12.5325 14.8606 11.4963 14.8606ZM1.76921 20C1.27818 20 0.860551 19.8316 0.516318 19.4949C0.172106 19.1582 0 18.7496 0 18.2692V4.32931C0 3.85015 0.172106 3.4419 0.516318 3.10456C0.860551 2.76723 1.27818 2.59856 1.76921 2.59856H5.85075L8.20726 0H14.7927L17.1492 2.59856H21.2308C21.7206 2.59856 22.1379 2.76723 22.4828 3.10456C22.8276 3.4419 23 3.85015 23 4.32931V18.2692C23 18.7496 22.8276 19.1582 22.4828 19.4949C22.1379 19.8316 21.7206 20 21.2308 20H1.76921ZM21.2308 19.0385C21.4601 19.0385 21.6485 18.9664 21.7959 18.8221C21.9434 18.6779 22.0171 18.4936 22.0171 18.2692V4.32931C22.0171 4.12098 21.9434 3.9407 21.7959 3.78847C21.6485 3.63622 21.4601 3.56009 21.2308 3.56009H16.6971L14.3406 0.961531H8.6594L6.3029 3.56009H1.76921C1.53987 3.56009 1.35148 3.63622 1.20405 3.78847C1.05662 3.9407 0.982899 4.12098 0.982899 4.32931V18.2692C0.982899 18.4936 1.05662 18.6779 1.20405 18.8221C1.35148 18.9664 1.53987 19.0385 1.76921 19.0385H21.2308Z" fill="#232323"/>
</svg>
