<svg width="20" height="20" viewBox="0 0 20 20" fill="none" xmlns="http://www.w3.org/2000/svg">
<path d="M8.74729 13.9683L14.7726 7.94291L13.5788 6.75812L8.74729 11.5896L6.35327 9.19562L5.18025 10.3804L8.74729 13.9683ZM10.0016 18.6277C8.81456 18.6277 7.69646 18.4027 6.64734 17.9528C5.59822 17.5029 4.68173 16.886 3.89786 16.1021C3.11399 15.3182 2.4971 14.4023 2.04717 13.3543C1.59724 12.3062 1.37227 11.1887 1.37227 10.0016C1.37227 8.80064 1.59724 7.6756 2.04717 6.62647C2.4971 5.57736 3.11338 4.66414 3.89602 3.88681C4.67865 3.10947 5.59427 2.49408 6.64288 2.04064C7.69149 1.5872 8.80966 1.36047 9.9974 1.36047C11.199 1.36047 12.3248 1.58689 13.3749 2.03972C14.4249 2.49256 15.3383 3.10712 16.1151 3.88341C16.8918 4.6597 17.5068 5.57256 17.9599 6.62199C18.413 7.67142 18.6395 8.79742 18.6395 9.99997C18.6395 11.1881 18.4128 12.3067 17.9593 13.3557C17.5059 14.4047 16.8905 15.3206 16.1132 16.1035C15.3358 16.8865 14.4232 17.5029 13.3751 17.9528C12.3271 18.4027 11.2026 18.6277 10.0016 18.6277Z" fill="#62D69F"/>
</svg>
