<svg width="26" height="26" viewBox="0 0 26 26" fill="none" xmlns="http://www.w3.org/2000/svg">
<path d="M6.5959 16.4979L5.76466 15.6667C6.79244 14.625 7.90667 13.8368 9.10737 13.3021C10.3081 12.7674 11.6056 12.5 13.0001 12.5C14.3945 12.5 15.6921 12.7674 16.8928 13.3021C18.0935 13.8368 19.2077 14.6181 20.2355 15.6458L19.4043 16.4979C18.4695 15.5632 17.4598 14.8646 16.3751 14.4021C15.2903 13.9396 14.1653 13.7083 13.0001 13.7083C11.8348 13.7083 10.7098 13.9396 9.62509 14.4021C8.54037 14.8646 7.53064 15.5632 6.5959 16.4979ZM2.01882 11.9L1.16675 11.0479C2.69313 9.5132 4.46361 8.2882 6.4782 7.37291C8.49278 6.45763 10.6667 6 13.0001 6C15.3334 6 17.5074 6.45763 19.522 7.37291C21.5365 8.2882 23.307 9.5132 24.8334 11.0479L23.9813 11.9C22.5035 10.4528 20.8351 9.30904 18.9761 8.46875C17.1171 7.62848 15.1251 7.20835 13.0001 7.20835C10.8751 7.20835 8.88307 7.62848 7.02403 8.46875C5.16502 9.30904 3.49661 10.4528 2.01882 11.9ZM13.0001 22.8813L15.7376 20.1375C15.3806 19.7806 14.9713 19.5017 14.5095 19.3011C14.0477 19.1004 13.5445 19 13.0001 19C12.4556 19 11.9525 19.1004 11.4907 19.3011C11.0289 19.5017 10.6195 19.7806 10.2626 20.1375L13.0001 22.8813Z" fill="#62D69F"/>
</svg>
