<svg width="27" height="19" viewBox="0 0 27 19" fill="none" xmlns="http://www.w3.org/2000/svg">
<path d="M0.523682 18.9761V16.776H4.02368V2.22074C4.02368 1.61648 4.23883 1.0992 4.66914 0.668895C5.09945 0.23859 5.61673 0.0234375 6.22099 0.0234375H24.7263V1.77198H6.22099C6.0901 1.77198 5.98259 1.81405 5.89844 1.8982C5.8143 1.98234 5.77222 2.08986 5.77222 2.22074V16.776H13.3569V18.9761H0.523682ZM18.3831 18.9761C18.0785 18.9761 17.8169 18.8687 17.5984 18.654C17.3799 18.4394 17.2706 18.1796 17.2706 17.8749V5.63591C17.2706 5.33651 17.3779 5.07739 17.5925 4.85854C17.8071 4.63967 18.0667 4.53023 18.3713 4.53023H25.3877C25.6858 4.53023 25.9441 4.63775 26.1626 4.85278C26.3811 5.06781 26.4903 5.32503 26.4903 5.62442V17.8634C26.4903 18.1681 26.3829 18.4298 26.1679 18.6483C25.953 18.8668 25.6959 18.9761 25.3967 18.9761H18.3831ZM19.0192 16.776H24.7418V6.27878H19.0192V16.776Z" fill="#43D197"/>
</svg>
