<svg width="28" height="29" viewBox="0 0 28 29" fill="none" xmlns="http://www.w3.org/2000/svg">
<path d="M4 23V20.75H6.15V8.5C6.15 8.0875 6.29688 7.73438 6.59063 7.44063C6.88438 7.14688 7.2375 7 7.65 7H23.15V8.5H7.65V20.75H13.5V23H4ZM15.975 23C15.6988 23 15.4672 22.8875 15.2803 22.6625C15.0934 22.4375 15 22.1833 15 21.9V10.975C15 10.6988 15.0934 10.4672 15.2803 10.2803C15.4672 10.0934 15.6988 10 15.975 10H22.7688C23.0896 10 23.375 10.0875 23.625 10.2625C23.875 10.4375 24 10.675 24 10.975V21.9068C24 22.2166 23.8792 22.4762 23.6375 22.6857C23.3958 22.8952 23.1083 23 22.775 23H15.975ZM16.5 20.75H22.5V11.5H16.5V20.75Z" fill="white"/>
</svg>
