<svg width="17" height="25" viewBox="0 0 17 25" fill="none" xmlns="http://www.w3.org/2000/svg">
<path d="M1.73075 24.7308C1.2504 24.7308 0.841844 24.5624 0.505094 24.2257C0.168364 23.8889 0 23.4804 0 23V4.98315H0.961531V23C0.961531 23.1923 1.04166 23.3686 1.20191 23.5288C1.36218 23.6891 1.53846 23.7692 1.73075 23.7692H13.7524V24.7308H1.73075ZM4.90384 21.5577C4.42347 21.5577 4.01492 21.3893 3.67819 21.0526C3.34144 20.7158 3.17306 20.3073 3.17306 19.8269V2.71153C3.17306 2.23115 3.34144 1.8226 3.67819 1.48587C4.01492 1.14912 4.42347 0.980743 4.90384 0.980743H14.5193C14.9996 0.980743 15.4082 1.14912 15.7449 1.48587C16.0816 1.8226 16.25 2.23115 16.25 2.71153V19.8269C16.25 20.3073 16.0816 20.7158 15.7449 21.0526C15.4082 21.3893 14.9996 21.5577 14.5193 21.5577H4.90384ZM4.13463 18.4327V19.8269C4.13463 20.0192 4.21475 20.1955 4.375 20.3558C4.53525 20.516 4.71153 20.5962 4.90384 20.5962H14.5193C14.7115 20.5962 14.8878 20.516 15.0481 20.3558C15.2083 20.1955 15.2885 20.0192 15.2885 19.8269V18.4327H4.13463ZM4.13463 17.4712H15.2885V5.06731H4.13463V17.4712ZM6.41828 13.6346V11.176C6.41828 10.924 6.4944 10.7272 6.64662 10.5853C6.79887 10.4435 6.99599 10.3726 7.23797 10.3726H11.5L10.0505 8.92309L10.7428 8.23078L13.3846 10.8486L10.7428 13.4904L10.0505 12.7981L11.5 11.3413H7.38703V13.6346H6.41828ZM4.13463 4.10574H15.2885V2.71153C15.2885 2.51921 15.2083 2.34293 15.0481 2.18268C14.8878 2.02243 14.7115 1.94231 14.5193 1.94231H4.90384C4.71153 1.94231 4.53525 2.02243 4.375 2.18268C4.21475 2.34293 4.13463 2.51921 4.13463 2.71153V4.10574Z" fill="#232323"/>
</svg>
