<svg width="28" height="28" viewBox="0 0 28 28" fill="none" xmlns="http://www.w3.org/2000/svg">
<path d="M11.5781 20.813C11.4232 20.813 11.2987 20.7687 11.2046 20.6802C11.1105 20.5916 11.0607 20.4727 11.0552 20.3232L10.8062 11.4497C10.8006 11.3058 10.8449 11.1896 10.939 11.1011C11.0386 11.007 11.1659 10.96 11.3208 10.96C11.4702 10.96 11.592 11.0042 11.686 11.0928C11.7856 11.1813 11.8354 11.2975 11.8354 11.4414L12.0928 20.3232C12.0928 20.4671 12.0457 20.5861 11.9517 20.6802C11.8576 20.7687 11.7331 20.813 11.5781 20.813ZM14.0352 20.813C13.8802 20.813 13.7529 20.7687 13.6533 20.6802C13.5537 20.5861 13.5039 20.4671 13.5039 20.3232V11.4497C13.5039 11.3058 13.5537 11.1896 13.6533 11.1011C13.7529 11.007 13.8802 10.96 14.0352 10.96C14.1956 10.96 14.3257 11.007 14.4253 11.1011C14.5249 11.1896 14.5747 11.3058 14.5747 11.4497V20.3232C14.5747 20.4671 14.5249 20.5861 14.4253 20.6802C14.3257 20.7687 14.1956 20.813 14.0352 20.813ZM16.5005 20.813C16.34 20.813 16.2127 20.7687 16.1187 20.6802C16.0246 20.5861 15.9803 20.4671 15.9858 20.3232L16.2349 11.4497C16.2404 11.3003 16.2902 11.1813 16.3843 11.0928C16.4784 11.0042 16.6001 10.96 16.7495 10.96C16.91 10.96 17.0373 11.007 17.1313 11.1011C17.2254 11.1896 17.2697 11.3058 17.2642 11.4497L17.0151 20.3232C17.0096 20.4727 16.9598 20.5916 16.8657 20.6802C16.7716 20.7687 16.6499 20.813 16.5005 20.813ZM10.3911 8.79346V6.93408C10.3911 6.33643 10.5737 5.86605 10.939 5.52295C11.3097 5.17432 11.8133 5 12.4497 5H15.604C16.2404 5 16.7412 5.17432 17.1064 5.52295C17.4772 5.86605 17.6626 6.33643 17.6626 6.93408V8.79346H16.3428V7.01709C16.3428 6.78467 16.2653 6.59652 16.1104 6.45264C15.9609 6.30876 15.7617 6.23682 15.5127 6.23682H12.541C12.292 6.23682 12.09 6.30876 11.9351 6.45264C11.7856 6.59652 11.7109 6.78467 11.7109 7.01709V8.79346H10.3911ZM6.62256 9.45752C6.45654 9.45752 6.3099 9.39665 6.18262 9.2749C6.06087 9.14762 6 8.99821 6 8.82666C6 8.66064 6.06087 8.51676 6.18262 8.39502C6.3099 8.26774 6.45654 8.2041 6.62256 8.2041H21.4561C21.6221 8.2041 21.766 8.26497 21.8877 8.38672C22.0094 8.50846 22.0703 8.65511 22.0703 8.82666C22.0703 8.99821 22.0094 9.14762 21.8877 9.2749C21.7715 9.39665 21.6276 9.45752 21.4561 9.45752H6.62256ZM10.2334 23.4858C9.63574 23.4858 9.15153 23.3088 8.78076 22.9546C8.41553 22.606 8.21908 22.1328 8.19141 21.5352L7.60205 9.2998H8.90527L9.49463 21.3857C9.5057 21.6292 9.59147 21.8312 9.75195 21.9917C9.91243 22.1522 10.1117 22.2324 10.3496 22.2324H17.7124C17.9559 22.2324 18.1579 22.1522 18.3184 21.9917C18.4788 21.8368 18.5646 21.6348 18.5757 21.3857L19.1318 9.2998H20.4683L19.8872 21.5269C19.8595 22.1245 19.6603 22.6004 19.2896 22.9546C18.9188 23.3088 18.4373 23.4858 17.8452 23.4858H10.2334Z" fill="#EC5A59"/>
</svg>
