<svg width="28" height="29" viewBox="0 0 28 29" fill="none" xmlns="http://www.w3.org/2000/svg">
<path d="M11.543 20.8423C11.388 20.8423 11.2635 20.798 11.1694 20.7095C11.0754 20.6209 11.0256 20.502 11.02 20.3525L10.771 11.479C10.7655 11.3351 10.8097 11.2189 10.9038 11.1304C11.0034 11.0363 11.1307 10.9893 11.2856 10.9893C11.4351 10.9893 11.5568 11.0335 11.6509 11.1221C11.7505 11.2106 11.8003 11.3268 11.8003 11.4707L12.0576 20.3525C12.0576 20.4964 12.0106 20.6154 11.9165 20.7095C11.8224 20.798 11.6979 20.8423 11.543 20.8423ZM14 20.8423C13.8451 20.8423 13.7178 20.798 13.6182 20.7095C13.5186 20.6154 13.4688 20.4964 13.4688 20.3525V11.479C13.4688 11.3351 13.5186 11.2189 13.6182 11.1304C13.7178 11.0363 13.8451 10.9893 14 10.9893C14.1605 10.9893 14.2905 11.0363 14.3901 11.1304C14.4897 11.2189 14.5396 11.3351 14.5396 11.479V20.3525C14.5396 20.4964 14.4897 20.6154 14.3901 20.7095C14.2905 20.798 14.1605 20.8423 14 20.8423ZM16.4653 20.8423C16.3049 20.8423 16.1776 20.798 16.0835 20.7095C15.9894 20.6154 15.9451 20.4964 15.9507 20.3525L16.1997 11.479C16.2052 11.3296 16.255 11.2106 16.3491 11.1221C16.4432 11.0335 16.5649 10.9893 16.7144 10.9893C16.8748 10.9893 17.0021 11.0363 17.0962 11.1304C17.1903 11.2189 17.2345 11.3351 17.229 11.479L16.98 20.3525C16.9744 20.502 16.9246 20.6209 16.8306 20.7095C16.7365 20.798 16.6147 20.8423 16.4653 20.8423ZM10.356 8.82275V6.96338C10.356 6.36572 10.5386 5.89535 10.9038 5.55225C11.2746 5.20361 11.7782 5.0293 12.4146 5.0293H15.5688C16.2052 5.0293 16.7061 5.20361 17.0713 5.55225C17.4421 5.89535 17.6274 6.36572 17.6274 6.96338V8.82275H16.3076V7.04639C16.3076 6.81396 16.2301 6.62581 16.0752 6.48193C15.9258 6.33805 15.7266 6.26611 15.4775 6.26611H12.5059C12.2568 6.26611 12.0549 6.33805 11.8999 6.48193C11.7505 6.62581 11.6758 6.81396 11.6758 7.04639V8.82275H10.356ZM6.5874 9.48682C6.42139 9.48682 6.27474 9.42594 6.14746 9.3042C6.02572 9.17692 5.96484 9.02751 5.96484 8.85596C5.96484 8.68994 6.02572 8.54606 6.14746 8.42432C6.27474 8.29704 6.42139 8.2334 6.5874 8.2334H21.4209C21.5869 8.2334 21.7308 8.29427 21.8525 8.41602C21.9743 8.53776 22.0352 8.68441 22.0352 8.85596C22.0352 9.02751 21.9743 9.17692 21.8525 9.3042C21.7363 9.42594 21.5924 9.48682 21.4209 9.48682H6.5874ZM10.1982 23.5151C9.60059 23.5151 9.11637 23.3381 8.74561 22.9839C8.38037 22.6353 8.18392 22.1621 8.15625 21.5645L7.56689 9.3291H8.87012L9.45947 21.415C9.47054 21.6585 9.55632 21.8605 9.7168 22.021C9.87728 22.1815 10.0765 22.2617 10.3145 22.2617H17.6772C17.9207 22.2617 18.1227 22.1815 18.2832 22.021C18.4437 21.866 18.5295 21.6641 18.5405 21.415L19.0967 9.3291H20.4331L19.8521 21.5562C19.8244 22.1538 19.6252 22.6297 19.2544 22.9839C18.8836 23.3381 18.4022 23.5151 17.8101 23.5151H10.1982Z" fill="white"/>
</svg>
