<svg width="36" height="36" viewBox="0 0 36 36" fill="none" xmlns="http://www.w3.org/2000/svg">
<path d="M4.47116 28.1539V26.423H7.58077V9.5192C7.58077 8.96295 7.78414 8.47774 8.19086 8.06356C8.59759 7.64936 9.08652 7.44226 9.65767 7.44226H30.8308V8.59614H9.65767C9.38845 8.59614 9.1673 8.68267 8.99422 8.85575C8.82115 9.02882 8.73461 9.24997 8.73461 9.5192V26.423H16.875V28.1539H4.47116ZM22.9901 28.1539C22.6663 28.1539 22.3931 28.0284 22.1704 27.7774C21.9478 27.5264 21.8365 27.2461 21.8365 26.9365V13.549C21.8365 13.2308 21.9478 12.9604 22.1704 12.7377C22.3931 12.5151 22.6663 12.4038 22.9901 12.4038H30.1928C30.5451 12.4038 30.8558 12.509 31.125 12.7193C31.3942 12.9296 31.5288 13.2062 31.5288 13.549V26.9363C31.5288 27.2639 31.4005 27.5488 31.1438 27.7908C30.887 28.0328 30.5732 28.1539 30.2022 28.1539H22.9901ZM22.9904 26.423H30.375V13.5576H22.9904V26.423Z" fill="black"/>
</svg>
