<svg width="28" height="28" viewBox="0 0 28 28" fill="none" xmlns="http://www.w3.org/2000/svg">
<path d="M16.9705 13.2237L11.7228 7.97597C12.0085 7.73367 12.3454 7.54521 12.7335 7.4106C13.1216 7.27599 13.5513 7.20868 14.0224 7.20868C15.0679 7.20868 15.9467 7.56652 16.6586 8.28222C17.3706 8.99793 17.7266 9.88227 17.7266 10.9352C17.7266 11.3765 17.6593 11.8024 17.5247 12.213C17.39 12.6236 17.2053 12.9605 16.9705 13.2237ZM6.76669 20.6186C7.9543 19.8004 9.10825 19.1741 10.2285 18.7396C11.3488 18.3051 12.606 18.0878 14 18.0878C14.8989 18.0878 15.704 18.1787 16.4153 18.3604C17.1265 18.5422 17.7244 18.7445 18.209 18.9673L13.9147 14.673C12.8872 14.6342 12.0451 14.2943 11.3885 13.6533C10.7318 13.0124 10.3699 12.1819 10.3026 11.1618L6.63879 7.49807C5.90439 8.3581 5.32106 9.32358 4.88879 10.3945C4.45652 11.4655 4.24039 12.6673 4.24039 14C4.24039 15.2534 4.44568 16.4167 4.85627 17.4899C5.26684 18.5631 5.90365 19.606 6.76669 20.6186ZM21.424 20.4099C22.1046 19.6007 22.664 18.6603 23.1022 17.5886C23.5405 16.5169 23.7596 15.3207 23.7596 14C23.7596 11.2479 22.821 8.93323 20.9439 7.05608C19.0668 5.17895 16.7521 4.24039 14 4.24039C12.6538 4.24039 11.4501 4.45203 10.3889 4.87532C9.3277 5.29862 8.38876 5.85578 7.5721 6.5468L21.424 20.4099ZM14 25.0833C12.4729 25.0833 11.0351 24.7939 9.68671 24.215C8.33831 23.6362 7.1623 22.8449 6.15868 21.8413C5.15505 20.8377 4.36382 19.6617 3.78498 18.3133C3.20612 16.9649 2.91669 15.5271 2.91669 14C2.91669 12.4609 3.20612 11.0201 3.78498 9.67773C4.36382 8.33532 5.15505 7.16231 6.15868 6.15868C7.1623 5.15506 8.33831 4.36382 9.68671 3.78498C11.0351 3.20612 12.4729 2.91669 14 2.91669C15.5391 2.91669 16.9799 3.20612 18.3223 3.78498C19.6647 4.36382 20.8377 5.15506 21.8413 6.15868C22.8449 7.16231 23.6362 8.33532 24.215 9.67773C24.7939 11.0201 25.0833 12.4609 25.0833 14C25.0833 15.5271 24.7939 16.9649 24.215 18.3133C23.6362 19.6617 22.8449 20.8377 21.8413 21.8413C20.8377 22.8449 19.6647 23.6362 18.3223 24.215C16.9799 24.7939 15.5391 25.0833 14 25.0833ZM14 23.7596C15.1472 23.7596 16.2324 23.5775 17.2555 23.2133C18.2785 22.8491 19.2635 22.3013 20.2102 21.5699C19.2784 20.8848 18.271 20.3538 17.1881 19.9769C16.1052 19.6 15.0425 19.4115 14 19.4115C12.9575 19.4115 11.9041 19.5944 10.8399 19.9601C9.77569 20.3258 8.7627 20.8624 7.80094 21.5699C8.74026 22.3013 9.72445 22.8491 10.7535 23.2133C11.7826 23.5775 12.8647 23.7596 14 23.7596Z" fill="white"/>
</svg>
