<svg width="28" height="28" viewBox="0 0 28 28" fill="none" xmlns="http://www.w3.org/2000/svg">
<path d="M5.58655 22.5929H6.76894L19.6673 9.70576L18.4737 8.51217L5.58655 21.4106V22.5929ZM22.474 8.75449L19.425 5.70552L20.65 4.48052C20.9058 4.22475 21.2187 4.09686 21.5889 4.09686C21.9591 4.09686 22.2721 4.22475 22.5278 4.48052L23.699 5.65165C23.9547 5.90742 24.0808 6.2204 24.077 6.59058C24.0733 6.96077 23.9435 7.27748 23.6878 7.54072L22.474 8.75449ZM21.5407 9.67659L7.30064 23.9166H4.26288V20.8788L18.5029 6.63883L21.5407 9.67659ZM19.0705 9.09775L18.4737 8.51217L19.6673 9.70576L19.0705 9.09775Z" fill="white"/>
</svg>
