<svg width="219" height="192" viewBox="0 0 219 192" fill="none" xmlns="http://www.w3.org/2000/svg">
<g clip-path="url(#clip0_353_1490)">
<path d="M10.5672 65.4277L0.00759702 59.4698C-0.134841 53.0955 1.2782 46.7826 4.12401 41.0795C6.55859 52.1486 19.3709 57.4149 25.2824 67.0796C27.103 70.1081 28.22 73.5082 28.5506 77.0279C28.8812 80.5476 28.4168 84.0967 27.192 87.4122L27.8865 95.9944C22.4289 94.357 17.3906 91.5537 13.1186 87.7779C8.84667 84.002 5.44267 79.3433 3.14114 74.1227C1.87895 71.1812 0.991579 68.0921 0.499961 64.9284C5.42332 65.4533 10.5672 65.4277 10.5672 65.4277Z" fill="#F2F2F2"/>
<path d="M200.394 173.818L200.718 166.525C204.093 164.717 207.858 163.763 211.686 163.744C206.418 168.058 207.076 176.374 203.505 182.175C202.377 183.976 200.86 185.5 199.064 186.633C197.269 187.767 195.242 188.481 193.133 188.723L188.725 191.426C188.12 188.048 188.254 184.579 189.116 181.258C189.978 177.937 191.549 174.842 193.721 172.188C194.953 170.711 196.367 169.395 197.928 168.272C198.984 171.06 200.394 173.818 200.394 173.818Z" fill="#F2F2F2"/>
<path d="M189.036 187.673L185.044 187.673L183.146 172.25L189.037 172.251L189.036 187.673Z" fill="#FFB6B6"/>
<path d="M190.054 191.549L177.184 191.548V191.385C177.184 190.055 177.712 188.778 178.651 187.837C179.591 186.896 180.865 186.367 182.193 186.367L184.545 184.581L188.931 186.368L190.054 186.368L190.054 191.549Z" fill="#2F2E41"/>
<path d="M170.492 187.673L166.501 187.673L164.602 172.25L170.493 172.251L170.492 187.673Z" fill="#FFB6B6"/>
<path d="M171.51 191.549L158.64 191.548V191.385C158.64 190.055 159.168 188.778 160.107 187.837C161.047 186.896 162.321 186.367 163.649 186.367L166.001 184.581L170.387 186.368L171.51 186.368L171.51 191.549Z" fill="#2F2E41"/>
<path d="M168.765 103.357L194.727 104.007C199.658 106.69 199.733 112.497 198.117 119.391C198.117 119.391 198.663 123.488 197.572 124.581C196.481 125.674 195.936 125.674 196.481 127.586C197.026 129.498 194.145 132.622 194.495 132.972C194.845 133.323 195.663 135.235 195.663 135.235L192.936 150.806C192.936 150.806 191.027 177.85 190.481 178.397C189.936 178.943 189.391 178.397 189.936 179.763C190.481 181.129 191.027 180.582 190.481 181.129C189.998 181.65 189.543 182.198 189.118 182.768H182.525C182.525 182.768 182.028 180.036 182.028 179.763C182.028 179.49 181.482 177.85 181.482 177.577C181.482 177.304 181.964 176.821 181.964 176.821C182.131 176.266 182.243 175.696 182.3 175.119C182.3 174.572 183.937 153.538 183.937 153.538L180.664 126.22L172.756 152.991C172.756 152.991 172.756 176.485 172.21 177.031C171.665 177.577 171.665 177.304 171.938 178.397C172.21 179.49 173.301 179.216 172.483 180.036C171.665 180.855 171.392 179.49 171.665 180.855L171.938 182.221L163.757 182.339C163.757 182.339 162.666 180.036 163.211 179.216C163.757 178.397 163.724 178.621 163.058 177.279C162.393 175.938 162.12 175.665 162.393 175.392C162.666 175.119 162.666 173.666 162.666 173.666L164.029 147.528C164.029 147.528 164.302 119.937 164.302 119.118C164.322 118.696 164.245 118.275 164.075 117.889V116.776L165.12 112.835L168.765 103.357Z" fill="#2F2E41"/>
<path d="M184.361 49.2786C188.816 49.2786 192.427 45.6608 192.427 41.198C192.427 36.7351 188.816 33.1173 184.361 33.1173C179.906 33.1173 176.294 36.7351 176.294 41.198C176.294 45.6608 179.906 49.2786 184.361 49.2786Z" fill="#FFB6B6"/>
<path d="M180.327 54.6194C178.589 55.6544 177.55 57.556 176.953 59.491C175.848 63.0735 175.183 66.7775 174.973 70.5211L174.342 81.7288L166.536 105.593C173.301 111.328 198.732 106.896 198.732 106.896C198.732 106.896 199.513 106.636 198.732 105.854C197.952 105.072 197.192 105.765 197.972 104.983C198.753 104.201 198.215 105.072 197.955 104.29C197.694 103.508 197.955 104.029 198.215 103.768C198.475 103.508 196.2 101.162 196.2 101.162L198.282 87.4634L200.884 59.8327C197.762 55.9227 191.482 53.6178 191.482 53.6178L189.859 50.6919L181.746 51.3421L180.327 54.6194Z" fill="#EC5A59"/>
<path d="M179.221 36.4556C179.533 36.458 179.844 36.4989 180.146 36.5772C180.742 36.7206 181.347 36.8223 181.956 36.8813C183.824 37.0573 185.579 37.8551 186.94 39.1473C188.302 40.4395 189.192 42.1515 189.469 44.0099C189.937 43.6005 191.004 42.8475 191.878 43.5473C191.892 43.5584 191.899 43.5642 191.93 43.5496C192.511 43.2737 193.541 39.8776 193.573 36.8875C193.589 35.3005 193.34 33.2739 192.058 32.6321L191.991 32.5983L191.973 32.5248C191.887 32.1678 190.931 31.5584 189.269 31.0841C186.248 30.2221 181.745 28.5431 179.209 31.0141C179.017 31.8472 178.393 33.6299 177.762 33.832C177.064 34.0556 176.461 34.2487 176.366 35.1068C176.286 36.328 176.292 37.5532 176.383 38.7736C176.619 38.0269 177.084 37.3732 177.711 36.9048C178.157 36.6042 178.684 36.4474 179.221 36.4556Z" fill="#2F2E41"/>
<path d="M164.206 81.1049L177.383 72.6513L170.747 63.8136L164.193 71.8889L143.774 73.1434C143.237 72.6116 142.557 72.2478 141.817 72.0964C141.077 71.945 140.309 72.0125 139.607 72.2907C138.905 72.5689 138.299 73.0458 137.862 73.6632C137.426 74.2806 137.178 75.0119 137.15 75.7678C137.121 76.5237 137.312 77.2717 137.701 77.9205C138.089 78.5693 138.658 79.0909 139.337 79.4216C140.016 79.7524 140.776 79.8781 141.526 79.7833C142.275 79.6886 142.98 79.3775 143.556 78.888L164.206 81.1049Z" fill="#FFB6B6"/>
<path d="M189.613 60.8519C190.378 65.4883 175.936 74.3418 175.936 74.3418C175.936 73.2535 167.316 81.469 166.927 80.5664C165.821 78.0013 165.043 71.9258 163.498 70.9534C162.614 70.3972 168.82 65.1729 168.82 65.1729C168.82 65.1729 172.069 61.8948 176.331 57.7598C177.515 56.5684 178.98 55.6963 180.591 55.2248C182.201 54.7532 183.905 54.6975 185.542 55.0628C185.542 55.0628 188.849 56.2155 189.613 60.8519Z" fill="#EC5A59"/>
<path d="M216.773 83.3238L208.057 70.3059L199.377 77.1399L207.576 83.5323L209.26 103.956C208.741 104.505 208.392 105.193 208.257 105.938C208.121 106.682 208.205 107.449 208.497 108.147C208.79 108.844 209.279 109.441 209.904 109.865C210.529 110.289 211.265 110.522 212.02 110.534C212.775 110.547 213.517 110.34 214.156 109.937C214.796 109.534 215.304 108.954 215.62 108.267C215.936 107.58 216.045 106.815 215.935 106.067C215.824 105.318 215.499 104.618 214.998 104.052L216.773 83.3238Z" fill="#FFB6B6"/>
<path d="M196.022 58.3073C200.633 57.4432 209.775 71.7199 209.775 71.7199C208.689 71.7431 217.071 80.2021 216.178 80.6109C213.642 81.7727 207.595 82.68 206.657 84.2481C206.12 85.1449 200.775 79.0404 200.775 79.0404C200.775 79.0404 197.434 75.8565 193.217 71.6748C192.003 70.5147 191.102 69.0658 190.597 67.4628C190.092 65.8599 190 64.1551 190.33 62.5071C190.33 62.5071 191.411 59.1714 196.022 58.3073Z" fill="#EC5A59"/>
<path d="M219 191.613C219 191.664 218.99 191.714 218.971 191.761C218.951 191.808 218.923 191.851 218.887 191.887C218.851 191.923 218.809 191.951 218.762 191.971C218.715 191.99 218.664 192 218.614 192H127.651C127.548 192 127.45 191.959 127.378 191.887C127.305 191.814 127.265 191.716 127.265 191.613C127.265 191.511 127.305 191.412 127.378 191.34C127.45 191.267 127.548 191.226 127.651 191.226H218.614C218.664 191.226 218.715 191.236 218.762 191.255C218.809 191.275 218.851 191.303 218.887 191.339C218.923 191.375 218.951 191.418 218.971 191.465C218.99 191.512 219 191.562 219 191.613Z" fill="#CCCCCC"/>
<path d="M134.733 74.3789H24.3372C22.6124 74.3809 20.9588 75.0681 19.7392 76.2898C18.5196 77.5115 17.8336 79.1679 17.8317 80.8957V149.747C17.8336 151.474 18.5196 153.131 19.7392 154.353C20.9588 155.574 22.6124 156.262 24.3372 156.263H134.733C136.458 156.262 138.111 155.574 139.331 154.353C140.551 153.131 141.237 151.474 141.239 149.747V80.8957C141.237 79.1679 140.551 77.5115 139.331 76.2898C138.112 75.068 136.458 74.3808 134.733 74.3789Z" fill="#62D69F"/>
<path d="M134.733 74.3789H24.3372C22.6124 74.3809 20.9588 75.0681 19.7392 76.2898C18.5196 77.5115 17.8336 79.1679 17.8317 80.8957V149.747C17.8336 151.474 18.5196 153.131 19.7392 154.353C20.9588 155.574 22.6124 156.262 24.3372 156.263H134.733C136.458 156.262 138.111 155.574 139.331 154.353C140.551 153.131 141.237 151.474 141.239 149.747V80.8957C141.237 79.1679 140.551 77.5115 139.331 76.2898C138.112 75.068 136.458 74.3808 134.733 74.3789ZM136.868 123.835C136.842 130.845 134.074 137.565 129.158 142.554C124.243 147.542 117.571 150.402 110.575 150.52C99.3733 150.666 116.773 150.723 103.263 150.723C72.3697 150.723 40.1568 150.428 28.1378 150.236C26.5565 150.203 25.0505 149.553 23.9415 148.423C22.8325 147.293 22.2084 145.774 22.2022 144.19V80.9008C22.2029 80.3334 22.4278 79.7894 22.8278 79.3877C23.2278 78.986 23.7703 78.7594 24.3367 78.7573H134.729C135.295 78.758 135.838 78.9832 136.239 79.3839C136.64 79.7845 136.866 80.3278 136.868 80.895V123.835Z" fill="#3F3D56"/>
<path d="M121.144 34.7323H37.0335C36.2893 34.7334 35.5635 34.9645 34.9554 35.3941C34.3472 35.8237 33.8862 36.4309 33.6353 37.1327L20.645 73.6407C20.4512 74.1856 20.3907 74.7692 20.4688 75.3424C20.5468 75.9156 20.7611 76.4616 21.0936 76.9346C21.426 77.4076 21.867 77.7938 22.3794 78.0606C22.8918 78.3274 23.4607 78.4671 24.0382 78.4679L136.844 78.6685H136.849C137.446 78.6685 138.033 78.52 138.559 78.2365C139.085 77.953 139.532 77.5432 139.86 77.044C140.189 76.5447 140.389 75.9716 140.442 75.3759C140.495 74.7803 140.4 74.1808 140.165 73.6311L124.459 36.9226C124.182 36.2722 123.72 35.7179 123.13 35.3285C122.54 34.9391 121.85 34.7318 121.144 34.7323Z" fill="#3F3D56"/>
<path d="M140.457 74.4239C140.456 74.9134 140.357 75.3978 140.165 75.8478L124.46 104.105C124.181 104.754 123.718 105.307 123.129 105.696C122.539 106.084 121.849 106.292 121.144 106.293H37.0348C36.2903 106.292 35.5642 106.061 34.9556 105.632C34.3469 105.203 33.8853 104.596 33.6337 103.894L20.6459 75.8381C20.4867 75.3911 20.417 74.9171 20.4408 74.4431C20.4646 73.9691 20.5814 73.5045 20.7846 73.0758C20.9877 72.6471 21.2732 72.2626 21.6247 71.9445C21.9763 71.6264 22.3869 71.3808 22.8333 71.2217C23.2194 71.0821 23.6268 71.0106 24.0373 71.0104L37.8169 70.9844L43.441 70.9747L117.447 70.8446L123.075 70.8349L136.845 70.8089H136.848C137.805 70.809 138.723 71.19 139.399 71.8679C140.076 72.5458 140.456 73.4652 140.457 74.4239Z" fill="#3F3D56"/>
<path d="M32.6133 126.025C34.2812 126.025 57.1849 127.427 57.1849 129.098C57.1849 130.769 34.2812 132.076 32.6133 132.076C31.8124 132.076 31.0443 131.757 30.4779 131.189C29.9116 130.622 29.5934 129.853 29.5934 129.05C29.5934 128.248 29.9116 127.479 30.4779 126.911C31.0443 126.344 31.8124 126.025 32.6133 126.025Z" fill="#3F3D56"/>
<path d="M115.906 12.5228H44.9858C43.0852 12.525 41.263 13.2823 39.9191 14.6286C38.5751 15.9749 37.8191 17.8002 37.8169 19.7041V106.293H121.144C121.828 106.295 122.498 106.1 123.075 105.73V19.7041C123.072 17.8002 122.316 15.9749 120.972 14.6286C119.629 13.2823 117.806 12.525 115.906 12.5228Z" fill="#F2F2F2"/>
<path d="M88.8366 18.3452H49.9706C48.24 18.3469 46.5806 19.0361 45.3565 20.2617C44.1324 21.4873 43.4436 23.1492 43.441 24.8829V106.293H117.447V47.0055C117.439 39.407 114.421 32.1222 109.058 26.7493C103.694 21.3763 96.4219 18.354 88.8366 18.3452Z" fill="white"/>
<path d="M104.839 99.0628H56.0492C55.6274 99.0628 55.223 99.2306 54.9247 99.5293C54.6265 99.8281 54.459 100.233 54.459 100.656C54.459 101.078 54.6265 101.483 54.9247 101.782C55.223 102.081 55.6274 102.249 56.0492 102.249H104.839C105.261 102.249 105.666 102.081 105.964 101.782C106.262 101.483 106.43 101.078 106.43 100.656C106.43 100.233 106.262 99.8281 105.964 99.5293C105.666 99.2306 105.261 99.0628 104.839 99.0628Z" fill="#E4E4E4"/>
<path d="M104.839 92.7625H56.0491C55.6269 92.7625 55.222 92.9305 54.9235 93.2295C54.625 93.5285 54.4573 93.9341 54.4573 94.357C54.4573 94.78 54.625 95.1855 54.9235 95.4846C55.222 95.7836 55.6269 95.9516 56.0491 95.9516H104.839C105.261 95.9516 105.666 95.7836 105.965 95.4846C106.263 95.1855 106.431 94.78 106.431 94.357C106.431 93.9341 106.263 93.5285 105.965 93.2295C105.666 92.9305 105.261 92.7625 104.839 92.7625Z" fill="#E4E4E4"/>
<path d="M77.1988 86.4654H56.0491C55.6273 86.4654 55.2228 86.6332 54.9246 86.932C54.6264 87.2307 54.4589 87.6359 54.4589 88.0583C54.4589 88.4808 54.6264 88.886 54.9246 89.1847C55.2228 89.4835 55.6273 89.6513 56.0491 89.6513H77.1988C77.6206 89.6513 78.025 89.4835 78.3233 89.1847C78.6215 88.886 78.789 88.4808 78.789 88.0583C78.789 87.6359 78.6215 87.2307 78.3233 86.932C78.025 86.6332 77.6206 86.4654 77.1988 86.4654Z" fill="#E4E4E4"/>
<path d="M104.839 73.2731H56.0491C55.6269 73.2731 55.222 73.4411 54.9235 73.7401C54.625 74.0392 54.4573 74.4447 54.4573 74.8677C54.4573 75.2906 54.625 75.6962 54.9235 75.9952C55.222 76.2942 55.6269 76.4622 56.0491 76.4622H104.839C105.261 76.4622 105.666 76.2942 105.965 75.9952C106.263 75.6962 106.431 75.2906 106.431 74.8677C106.431 74.4447 106.263 74.0392 105.965 73.7401C105.666 73.4411 105.261 73.2731 104.839 73.2731Z" fill="#E4E4E4"/>
<path d="M104.839 66.976H56.0492C55.6274 66.976 55.223 67.1438 54.9247 67.4426C54.6265 67.7413 54.459 68.1465 54.459 68.569C54.459 68.9914 54.6265 69.3966 54.9247 69.6954C55.223 69.9941 55.6274 70.1619 56.0492 70.1619H104.839C105.261 70.1619 105.666 69.9941 105.964 69.6954C106.262 69.3966 106.43 68.9914 106.43 68.569C106.43 68.1465 106.262 67.7413 105.964 67.4426C105.666 67.1438 105.261 66.976 104.839 66.976Z" fill="#E4E4E4"/>
<path d="M77.1988 60.6757H56.0491C55.6269 60.6757 55.222 60.8437 54.9235 61.1427C54.625 61.4418 54.4573 61.8474 54.4573 62.2703C54.4573 62.6932 54.625 63.0988 54.9235 63.3978C55.222 63.6969 55.6269 63.8649 56.0491 63.8649H77.1988C77.621 63.8649 78.0259 63.6969 78.3244 63.3978C78.623 63.0988 78.7907 62.6932 78.7907 62.2703C78.7907 61.8474 78.623 61.4418 78.3244 61.1427C78.0259 60.8437 77.621 60.6757 77.1988 60.6757Z" fill="#E4E4E4"/>
<path d="M104.839 47.4834H56.0491C55.6269 47.4834 55.222 47.6514 54.9235 47.9504C54.625 48.2495 54.4573 48.6551 54.4573 49.078C54.4573 49.5009 54.625 49.9065 54.9235 50.2055C55.222 50.5045 55.6269 50.6725 56.0491 50.6725H104.839C105.261 50.6725 105.666 50.5045 105.965 50.2055C106.263 49.9065 106.431 49.5009 106.431 49.078C106.431 48.6551 106.263 48.2495 105.965 47.9504C105.666 47.6514 105.261 47.4834 104.839 47.4834Z" fill="#62D69F"/>
<path d="M104.839 41.1863H56.0491C55.6269 41.1863 55.222 41.3543 54.9235 41.6534C54.625 41.9524 54.4573 42.358 54.4573 42.7809C54.4573 43.2038 54.625 43.6094 54.9235 43.9084C55.222 44.2075 55.6269 44.3755 56.0491 44.3755H104.839C105.261 44.3755 105.666 44.2075 105.965 43.9084C106.263 43.6094 106.431 43.2038 106.431 42.7809C106.431 42.358 106.263 41.9524 105.965 41.6534C105.666 41.3543 105.261 41.1863 104.839 41.1863Z" fill="#62D69F"/>
<path d="M77.1988 34.886H56.0491C55.6269 34.886 55.222 35.054 54.9235 35.353C54.625 35.6521 54.4573 36.0577 54.4573 36.4806C54.4573 36.9035 54.625 37.3091 54.9235 37.6081C55.222 37.9072 55.6269 38.0752 56.0491 38.0752H77.1988C77.621 38.0752 78.0259 37.9072 78.3244 37.6081C78.623 37.3091 78.7907 36.9035 78.7907 36.4806C78.7907 36.0577 78.623 35.6521 78.3244 35.353C78.0259 35.054 77.621 34.886 77.1988 34.886Z" fill="#62D69F"/>
<path d="M120.416 24.813C127.256 24.813 132.801 19.2584 132.801 12.4065C132.801 5.55458 127.256 0 120.416 0C113.576 0 108.031 5.55458 108.031 12.4065C108.031 19.2584 113.576 24.813 120.416 24.813Z" fill="#62D69F"/>
<path d="M118.726 18.8635C118.512 18.8635 118.301 18.8136 118.11 18.7178C117.919 18.6219 117.753 18.4828 117.624 18.3114L114.245 13.7984C114.136 13.6534 114.057 13.4884 114.011 13.3126C113.966 13.1368 113.956 12.9538 113.981 12.774C114.007 12.5943 114.067 12.4213 114.159 12.265C114.252 12.1088 114.374 11.9723 114.519 11.8633C114.664 11.7544 114.829 11.6752 115.004 11.6303C115.18 11.5854 115.363 11.5756 115.542 11.6015C115.721 11.6274 115.894 11.6885 116.05 11.7814C116.205 11.8742 116.341 11.9969 116.45 12.1424L118.66 15.0947L124.338 6.56381C124.54 6.25926 124.856 6.04785 125.214 5.97607C125.572 5.90428 125.944 5.97802 126.248 6.18105C126.552 6.38408 126.763 6.69978 126.835 7.05869C126.907 7.4176 126.833 7.79032 126.63 8.09487L119.873 18.2489C119.75 18.4326 119.586 18.5842 119.393 18.691C119.2 18.7979 118.985 18.8569 118.765 18.8631C118.752 18.8633 118.739 18.8635 118.726 18.8635Z" fill="white"/>
</g>
<defs>
<clipPath id="clip0_353_1490">
<rect width="219" height="192" fill="white"/>
</clipPath>
</defs>
</svg>
