<svg width="56" height="56" viewBox="0 0 56 56" fill="none" xmlns="http://www.w3.org/2000/svg">
<path d="M51.2295 16.2269C50.6192 15.7152 49.8489 15.4335 49.0525 15.4306H39.375C39.1429 15.4306 38.9204 15.5228 38.7563 15.6869C38.5922 15.851 38.5 16.0736 38.5 16.3056C38.5 16.5377 38.5922 16.7602 38.7563 16.9243C38.9204 17.0884 39.1429 17.1806 39.375 17.1806H48.7349L28 31.0039L7.26425 17.1806H16.625C16.8571 17.1806 17.0796 17.0884 17.2437 16.9243C17.4078 16.7602 17.5 16.5377 17.5 16.3056C17.5 16.0736 17.4078 15.851 17.2437 15.6869C17.0796 15.5228 16.8571 15.4306 16.625 15.4306H6.9475C6.03592 15.4395 5.16419 15.8056 4.51958 16.4502C3.87496 17.0948 3.50889 17.9665 3.5 18.8781V45.2331C3.50093 46.1472 3.86444 47.0235 4.51077 47.6699C5.1571 48.3162 6.03345 48.6797 6.9475 48.6806H49.0525C49.9665 48.6797 50.8429 48.3162 51.4892 47.6699C52.1356 47.0235 52.4991 46.1472 52.5 45.2331V18.8781C52.4982 18.3696 52.3832 17.8679 52.1635 17.4094C51.9437 16.9508 51.6247 16.5469 51.2295 16.2269ZM32.0889 30.3818L50.5409 18.0793C50.6761 18.324 50.748 18.5986 50.75 18.8781V45.2331C50.7487 45.4408 50.709 45.6464 50.6328 45.8395L32.0889 30.3818ZM5.36637 45.8395C5.29045 45.6463 5.251 45.4407 5.25 45.2331V18.8781C5.25192 18.5989 5.3235 18.3246 5.45825 18.0801L23.912 30.3818L5.36637 45.8395ZM6.9475 46.9306C6.2825 47.103 25.6025 31.3836 25.4301 31.3941L27.5144 32.7836C27.6582 32.8796 27.8271 32.9308 28 32.9308C28.1729 32.9308 28.3418 32.8796 28.4856 32.7836L30.5699 31.3941L49.1916 46.9166C49.1391 46.9875 7.03413 46.8948 6.9475 46.9306Z" fill="black" fill-opacity="0.5"/>
<path d="M23.842 22.8813L27.5407 25.1624C27.6788 25.2473 27.8378 25.2922 28 25.2922C28.1622 25.2922 28.3212 25.2473 28.4594 25.1624C31.4825 23.2531 35.539 21.5338 35.469 17.4965V10.2165C35.4689 10.0295 35.4088 9.84744 35.2976 9.69705C35.1865 9.54667 35.03 9.43586 34.8513 9.38088L28.2564 7.35788C28.0893 7.30678 27.9108 7.30678 27.7437 7.35788L21.1488 9.38088C20.9697 9.43575 20.813 9.54662 20.7016 9.6972C20.5903 9.84777 20.5302 10.0301 20.5302 10.2174V17.4974C20.5681 18.6048 20.8934 19.6833 21.474 20.627C22.0546 21.5707 22.8707 22.3481 23.842 22.8813ZM22.2802 10.864L28 9.10963L33.7199 10.864V17.4965C33.6777 18.3044 33.427 19.0877 32.9923 19.77C32.5576 20.4524 31.9537 21.0105 31.2393 21.3903L28 23.3888L24.7608 21.3903C24.0464 21.0105 23.4424 20.4524 23.0077 19.77C22.573 19.0877 22.3224 18.3044 22.2802 17.4965V10.864Z" fill="#58E79E"/>
</svg>
