<svg width="42" height="43" viewBox="0 0 42 43" fill="none" xmlns="http://www.w3.org/2000/svg">
<path d="M7.20527 31.917C6.47835 31.917 5.91352 31.6629 5.51079 31.1547C5.10809 30.6466 4.96058 30.0391 5.06826 29.3324L7.10093 15.2819C7.26697 14.0726 7.81497 13.0428 8.74492 12.1925C9.6749 11.3422 10.7558 10.917 11.9875 10.917H30.0562C31.2656 10.917 32.3352 11.3422 33.2651 12.1925C34.1951 13.0428 34.7543 14.0726 34.9428 15.2819L36.9317 29.3324C37.0394 30.0391 36.8919 30.6466 36.4892 31.1547C36.0865 31.6629 35.5329 31.917 34.8284 31.917C34.4043 31.917 34.0487 31.8581 33.7615 31.7403C33.4743 31.6225 33.2152 31.4481 32.9841 31.217L28.2322 26.4651H13.7678L9.01587 31.217C8.78478 31.4481 8.52565 31.6225 8.23847 31.7403C7.95127 31.8581 7.60687 31.917 7.20527 31.917ZM7.92548 30.3622L13.1687 25.1189H28.8312L34.0745 30.3622C34.1755 30.4407 34.4043 30.5383 34.7611 30.655C35.046 30.655 35.2653 30.5462 35.419 30.3285C35.5727 30.1109 35.6316 29.8596 35.5957 29.5747L33.5966 15.4501C33.4508 14.5415 33.0318 13.7832 32.3396 13.1751C31.6475 12.5671 30.8864 12.2631 30.0562 12.2631H11.9437C11.1136 12.2631 10.3525 12.5671 9.66035 13.1751C8.96819 13.7832 8.56041 14.5415 8.43701 15.4501L6.40434 29.5747C6.36844 29.8596 6.42732 30.1109 6.581 30.3285C6.73468 30.5462 6.96522 30.655 7.2726 30.655C7.43188 30.655 7.64951 30.5574 7.92548 30.3622ZM30.1539 22.8305C30.5308 22.8305 30.8606 22.6891 31.1433 22.4064C31.426 22.1237 31.5673 21.7939 31.5673 21.417C31.5673 21.0401 31.426 20.7103 31.1433 20.4276C30.8606 20.1449 30.5308 20.0035 30.1539 20.0035C29.7769 20.0035 29.4471 20.1449 29.1644 20.4276C28.8817 20.7103 28.7404 21.0401 28.7404 21.417C28.7404 21.7939 28.8817 22.1237 29.1644 22.4064C29.4471 22.6891 29.7769 22.8305 30.1539 22.8305ZM26.5697 17.3785C26.9242 17.3785 27.2484 17.2372 27.5423 16.9545C27.8362 16.6718 27.9832 16.342 27.9832 15.9651C27.9832 15.5881 27.8362 15.2583 27.5423 14.9756C27.2484 14.693 26.9242 14.5516 26.5697 14.5516C26.1928 14.5516 25.863 14.693 25.5803 14.9756C25.2976 15.2583 25.1562 15.5881 25.1562 15.9651C25.1562 16.342 25.2976 16.6718 25.5803 16.9545C25.863 17.2372 26.1928 17.3785 26.5697 17.3785ZM13.899 22.5107H15.2452V19.3641H18.4255V18.018H15.2452V14.8376H13.899V18.018H10.7524V19.3641H13.899V22.5107Z" fill="black" fill-opacity="0.7"/>
</svg>
