<svg width="42" height="43" viewBox="0 0 42 43" fill="none" xmlns="http://www.w3.org/2000/svg">
<path d="M21 20.7469C19.5562 20.7469 18.354 20.2665 17.3932 19.3057C16.4323 18.3449 15.9519 17.137 15.9519 15.6821C15.9519 14.2271 16.4323 13.0248 17.3932 12.0752C18.354 11.1256 19.5562 10.6508 21 10.6508C22.4437 10.6508 23.646 11.1256 24.6069 12.0752C25.5677 13.0248 26.0481 14.2271 26.0481 15.6821C26.0481 17.137 25.5677 18.3449 24.6069 19.3057C23.646 20.2665 22.4437 20.7469 21 20.7469ZM8.75 33.4109V30.8801C8.75 30.1083 8.971 29.4184 9.41299 28.8104C9.85495 28.2024 10.4349 27.7279 11.1529 27.3868C12.8827 26.624 14.56 26.0463 16.1848 25.6537C17.8096 25.261 19.4143 25.0647 20.999 25.0647C22.5836 25.0647 24.187 25.2627 25.8091 25.6587C27.4313 26.0547 29.1011 26.6359 30.8186 27.4022C31.5608 27.7375 32.1516 28.2081 32.5909 28.8138C33.0303 29.4196 33.25 30.1083 33.25 30.8801V33.4109H8.75ZM10.0961 32.0647H31.9039V30.8801C31.9039 30.4359 31.7541 30.0079 31.4546 29.5962C31.155 29.1845 30.745 28.8429 30.2245 28.5715C28.6495 27.8019 27.1094 27.2494 25.6043 26.914C24.0991 26.5786 22.5644 26.4109 21 26.4109C19.4356 26.4109 17.8919 26.5786 16.3688 26.914C14.8457 27.2494 13.3112 27.8019 11.7654 28.5715C11.2449 28.8429 10.8365 29.1845 10.5404 29.5962C10.2442 30.0079 10.0961 30.4359 10.0961 30.8801V32.0647ZM21 19.4008C22.0478 19.4008 22.9267 19.0457 23.6368 18.3356C24.3469 17.6255 24.7019 16.7466 24.7019 15.6989C24.7019 14.6511 24.3469 13.7722 23.6368 13.0621C22.9267 12.352 22.0478 11.9969 21 11.9969C19.9522 11.9969 19.0733 12.352 18.3632 13.0621C17.6531 13.7722 17.2981 14.6511 17.2981 15.6989C17.2981 16.7466 17.6531 17.6255 18.3632 18.3356C19.0733 19.0457 19.9522 19.4008 21 19.4008Z" fill="black" fill-opacity="0.7"/>
</svg>
