<svg width="42" height="43" viewBox="0 0 42 43" fill="none" xmlns="http://www.w3.org/2000/svg">
<path d="M11.1832 32.0293C12.4867 32.0293 13.5978 31.577 14.5166 30.6724C15.4353 29.7678 15.8947 28.6608 15.8947 27.3515C15.8947 26.51 15.6692 25.695 15.2183 24.9065C14.7673 24.1179 14.1469 23.5351 13.3572 23.1582L12.7985 22.8115V11.837C12.7985 11.3984 12.6457 11.0195 12.34 10.7003C12.0343 10.3812 11.6431 10.2216 11.1663 10.2216C10.7389 10.2216 10.3657 10.3812 10.0465 10.7003C9.72734 11.0195 9.56777 11.3984 9.56777 11.837V22.8115L9.00913 23.1582C8.19696 23.5504 7.57099 24.131 7.13125 24.8998C6.6915 25.6685 6.47163 26.4876 6.47163 27.3571C6.47163 28.6686 6.93089 29.7751 7.8494 30.6768C8.76792 31.5785 9.87917 32.0293 11.1832 32.0293ZM11.1663 33.3755C9.48138 33.3755 8.05334 32.7888 6.88218 31.6155C5.71102 30.4421 5.12544 29.0122 5.12544 27.3258C5.12544 26.1802 5.40702 25.1447 5.97017 24.2192C6.53332 23.2937 7.28381 22.5552 8.22163 22.0039V11.837C8.22163 11.0078 8.51357 10.3069 9.09746 9.73434C9.68138 9.16177 10.3791 8.87549 11.1907 8.87549C12.0472 8.87549 12.7537 9.16177 13.3101 9.73434C13.8665 10.3069 14.1447 11.0078 14.1447 11.837V22.0039C15.0601 22.5552 15.805 23.3011 16.3793 24.2414C16.9537 25.1818 17.2409 26.2211 17.2409 27.3594C17.2409 29.0175 16.6463 30.4347 15.4572 31.611C14.2681 32.7873 12.8378 33.3755 11.1663 33.3755ZM22.9957 26.039C21.7954 25.2627 20.7364 24.2076 19.8187 22.8738C18.9011 21.54 18.4423 19.9476 18.4423 18.0966C18.4423 15.5419 19.3401 13.3664 21.1357 11.5701C22.9313 9.77368 25.1059 8.87549 27.6595 8.87549C30.2266 8.87549 32.4059 9.77198 34.1974 11.565C35.9889 13.358 36.8846 15.5352 36.8846 18.0966C36.8846 19.9476 36.4258 21.54 35.5082 22.8738C34.5906 24.2076 33.5316 25.2627 32.3312 26.039H22.9957ZM23.4096 24.6928H31.9846C32.9943 23.9771 33.839 23.0376 34.5187 21.8743C35.1986 20.711 35.5385 19.4518 35.5385 18.0966C35.5385 15.9091 34.7727 14.0498 33.2413 12.5185C31.7098 10.9873 29.8488 10.2216 27.6581 10.2216C25.4736 10.2216 23.6159 10.9884 22.0849 12.5219C20.554 14.0554 19.7885 15.9136 19.7885 18.0966C19.7885 19.4742 20.1396 20.7446 20.8418 21.9079C21.5441 23.0712 22.4 23.9995 23.4096 24.6928ZM27.6635 33.3755C27.116 33.3755 26.6455 33.191 26.2517 32.8219C25.858 32.4528 25.6364 32.0092 25.587 31.4909H29.7399C29.6906 32.0092 29.469 32.4528 29.0752 32.8219C28.6815 33.191 28.2109 33.3755 27.6635 33.3755ZM23.625 29.539V28.1928H31.7019V29.539H23.625Z" fill="black" fill-opacity="0.7"/>
</svg>
