<svg width="59" height="59" viewBox="0 0 59 59" fill="none" xmlns="http://www.w3.org/2000/svg">
<path fill-rule="evenodd" clip-rule="evenodd" d="M57.3815 16.5387C49.2632 14.5781 40.6451 15.5921 32.058 18.3929C32.142 19.6858 31.4054 21.2325 29.2893 23.2151C26.0748 26.6119 28.3861 29.7459 32.0554 28.5714C32.7053 28.3634 33.397 28.0209 34.1082 27.5215C40.723 22.8735 47.9125 18.2068 57.3815 16.5387Z" fill="#FAD325"/>
<path d="M17.9871 48.4518C17.1872 48.621 16.3786 48.766 15.5618 48.8859C16.9991 50.194 18.5452 51.4303 20.2083 52.5995C19.3889 51.267 18.647 49.8824 17.9871 48.4518Z" fill="#58E79E"/>
<path d="M30.587 43.3951C26.7698 45.7595 22.522 47.4935 17.9872 48.4518C18.6471 49.8824 19.3892 51.2672 20.2084 52.5995C23.0766 54.6159 26.282 56.44 29.8448 58.1136C33.2451 56.6025 36.4132 54.9796 39.3132 53.1485C35.648 50.6887 32.6354 47.333 30.587 43.3951Z" fill="#58E79E"/>
<path d="M38.7949 36.6388C36.3798 39.2403 33.6198 41.5166 30.587 43.395C32.6355 47.333 35.6481 50.6887 39.313 53.1485C42.522 51.1225 45.4013 48.8409 47.9019 46.1728C43.6661 44.4452 40.3314 40.9691 38.7949 36.6388Z" fill="#43D197"/>
<path d="M47.9018 46.173C53.5737 40.1215 57.2961 32.081 58.4837 20.5151L57.6821 20.6563C53.6405 21.3684 50.0185 22.6543 46.5844 24.3209C44.7594 28.9115 42.0997 33.0787 38.7948 36.6389C40.3313 40.9689 43.666 44.4454 47.9018 46.173Z" fill="#39B48D"/>
<path d="M30.587 43.3951C33.6198 41.5164 36.3798 39.2404 38.7949 36.6388C42.1001 33.0786 44.7595 28.9114 46.5845 24.3208C42.6212 26.2445 38.9093 28.6774 35.1055 31.3496C34.3333 31.8925 33.4862 32.3435 32.5853 32.6329C32.193 32.7577 31.7854 32.8508 31.375 32.9045C29.9619 42.1777 19.9339 43.5188 14.0403 35.0696C12.6455 35.2978 11.2143 35.4185 9.75486 35.4185C8.35721 35.4185 6.98525 35.3086 5.64624 35.0991C8.02407 40.4922 11.3057 45.0124 15.5619 48.8859C16.3787 48.766 17.1874 48.621 17.9873 48.4518C22.5221 47.4935 26.7698 45.7595 30.587 43.3951Z" fill="#56D2E7"/>
<path d="M9.75459 35.4184C11.2141 35.4184 12.6453 35.2979 14.04 35.0698C13.0309 33.6229 12.142 31.8912 11.4396 29.8608C10.9101 28.331 10.5081 26.7479 10.2531 25.1638C10.0872 25.1688 9.92175 25.1764 9.75459 25.1764C6.98352 25.1764 4.37611 24.4762 2.09863 23.2443C2.90379 27.6175 4.08001 31.547 5.64598 35.099C6.98498 35.3087 8.35695 35.4184 9.75459 35.4184Z" fill="#42BFDB"/>
<path d="M9.75491 25.1763C9.92206 25.1763 10.0875 25.1687 10.2535 25.1638C8.99089 17.3238 11.4063 9.45513 20.6913 7.86524C19.1288 5.22924 20.1571 2.62095 21.9941 0.372355C12.7766 1.68452 6.80968 6.40371 0.938477 13.3309C1.14618 16.8707 1.53242 20.1657 2.09895 23.2443C4.37642 24.4762 6.98384 25.1763 9.75491 25.1763Z" fill="#F55252"/>
<path fill-rule="evenodd" clip-rule="evenodd" d="M27.6041 17.1378C27.4139 19.3586 25.7325 21.2481 23.4325 21.6061C20.7317 22.0276 18.1987 20.1775 17.7769 17.4767C17.3554 14.7745 19.2055 12.2412 21.9077 11.8211C23.4442 11.5816 24.927 12.0773 25.9959 13.0455C25.1271 13.3273 24.6049 14.3107 24.8036 15.3871C25.0242 16.5797 26.0446 17.4344 27.084 17.2982C27.2701 17.274 27.4446 17.2183 27.6041 17.1378Z" fill="#2D1F46"/>
<path fill-rule="evenodd" clip-rule="evenodd" d="M50.8676 12.0194C50.9861 12.0262 51.1042 12.0332 51.2224 12.041C51.4709 12.0577 51.7192 12.0766 51.9671 12.0979C52.0529 12.1052 52.1387 12.1113 52.2244 12.1192C52.5453 12.149 52.8659 12.1831 53.1856 12.221C53.2866 12.233 53.3872 12.2467 53.4882 12.2595C53.7259 12.2899 53.9634 12.322 54.2003 12.357C54.3082 12.3727 54.4158 12.3885 54.5232 12.4054C54.8067 12.4494 55.09 12.497 55.3727 12.548C55.4179 12.5562 55.4634 12.5632 55.5086 12.5717C55.8345 12.6318 56.1595 12.6977 56.4839 12.7671C56.5752 12.7867 56.6665 12.8074 56.7575 12.8278C57.0043 12.8827 57.2508 12.9401 57.4967 13.0005C57.5906 13.0236 57.6849 13.046 57.7788 13.0699C58.1041 13.1528 58.4288 13.2386 58.7526 13.3307C58.4859 13.0475 58.2173 12.7706 57.9477 12.497C57.8672 12.4153 57.7867 12.3348 57.7059 12.254C57.5008 12.0483 57.2946 11.8456 57.0877 11.6458C57.0136 11.574 56.9398 11.5016 56.8654 11.4308C56.5965 11.1737 56.326 10.9208 56.0544 10.6734C55.9958 10.6201 55.9366 10.5681 55.8779 10.5153C55.6565 10.3155 55.4345 10.1192 55.2117 9.92576C55.1253 9.85049 55.039 9.77581 54.952 9.70172C54.7239 9.50655 54.4946 9.31431 54.2647 9.12527C54.211 9.08122 54.158 9.036 54.1043 8.99254C53.8245 8.7647 53.5433 8.54183 53.2609 8.32333C53.1883 8.26673 53.115 8.21189 53.0421 8.15588C52.8192 7.98551 52.5958 7.81777 52.3714 7.65295C52.2938 7.59577 52.2163 7.5386 52.1384 7.482C51.5573 7.06075 50.9721 6.65876 50.3834 6.27544C50.3122 6.22905 50.2407 6.18355 50.1695 6.13774C49.9227 5.97905 49.6754 5.82385 49.4274 5.67186C49.3731 5.63861 49.3189 5.60448 49.2646 5.57151C48.9615 5.38773 48.6575 5.20832 48.3527 5.03387C48.32 5.01549 48.2876 4.99769 48.255 4.97932C48.0744 4.87663 47.8938 4.77423 47.7126 4.67505C47.7118 4.67592 47.7109 4.67709 47.71 4.67826C40.9747 0.990598 33.8728 -0.387498 27.0893 0.0918016C23.481 3.60355 23.6607 5.85069 25.131 7.64595C27.2075 10.1813 31.859 11.8135 32.0582 14.8241C38.1357 12.8415 44.228 11.7563 50.1479 11.9853C50.3883 11.9947 50.6281 12.0057 50.8676 12.0194Z" fill="#F9C102"/>
</svg>
