<svg width="790" height="266" viewBox="0 0 790 266" fill="none" xmlns="http://www.w3.org/2000/svg">
<path d="M366.518 94.2136V145.702H408.104C429.039 145.702 439.507 137.122 439.507 119.958C439.507 102.798 428.85 94.2136 407.539 94.2136H366.518ZM483.359 215.58C486.187 215.58 488.544 215.298 490.432 214.731V253.772C487.036 254.906 482.978 255.47 478.267 255.47C460.344 255.47 445.307 251.183 433.142 242.599C420.978 234.019 409.612 217.844 399.051 194.079L393.111 181.915H366.518V254.339H324.364V57.7176H412.632C433.942 57.7176 451.107 63.283 464.122 74.4096C477.134 85.5403 483.64 100.816 483.64 120.24C483.64 135.143 479.583 147.399 471.475 157.019C463.364 166.638 451.955 172.958 437.244 175.972C445.352 191.44 452.99 201.908 460.16 207.376C467.326 212.85 475.056 215.58 483.359 215.58Z" fill="#2D1F46"/>
<path d="M517.617 57.7165H559.77V254.338H517.617V57.7165Z" fill="#2D1F46"/>
<path d="M688.265 219.825C705.049 219.825 718.721 213.98 729.287 202.284C739.847 190.592 745.131 175.221 745.131 156.17C745.131 137.121 739.847 121.704 729.287 109.914C718.721 98.1302 705.049 92.2329 688.265 92.2329C671.667 92.2329 658.087 98.1302 647.527 109.914C636.96 121.704 631.684 137.121 631.684 156.17C631.684 175.221 636.96 190.592 647.527 202.284C658.087 213.98 671.667 219.825 688.265 219.825ZM760.689 229.442C741.637 248.681 717.497 258.3 688.265 258.3C659.028 258.3 634.888 248.681 615.841 229.442C596.788 210.205 587.267 185.782 587.267 156.17C587.267 126.562 596.788 102.089 615.841 82.7542C634.888 63.4236 659.028 53.7555 688.265 53.7555C717.497 53.7555 741.637 63.4236 760.689 82.7542C779.737 102.089 789.264 126.562 789.264 156.17C789.264 185.782 779.737 210.205 760.689 229.442Z" fill="#2D1F46"/>
<path fill-rule="evenodd" clip-rule="evenodd" d="M257.977 75.5912C220.871 66.6299 181.482 71.2646 142.234 84.0659C142.618 89.9752 139.251 97.0446 129.579 106.106C114.887 121.631 125.451 135.955 142.222 130.587C145.193 129.637 148.354 128.071 151.605 125.789C181.838 104.545 214.698 83.2152 257.977 75.5912Z" fill="#FAD325"/>
<path d="M77.9227 221.452C74.2667 222.225 70.5707 222.888 66.8374 223.436C73.4067 229.415 80.4734 235.065 88.0747 240.409C84.3294 234.319 80.9387 227.991 77.9227 221.452Z" fill="#58E79E"/>
<path d="M135.51 198.34C118.064 209.146 98.649 217.072 77.9224 221.452C80.9384 227.99 84.3304 234.32 88.0744 240.409C101.184 249.625 115.834 257.962 132.118 265.612C147.66 258.705 162.14 251.288 175.394 242.918C158.642 231.676 144.873 216.338 135.51 198.34Z" fill="#58E79E"/>
<path d="M173.025 167.46C161.987 179.35 149.372 189.754 135.511 198.34C144.873 216.338 158.643 231.676 175.393 242.918C190.06 233.658 203.22 223.23 214.649 211.036C195.289 203.14 180.048 187.252 173.025 167.46Z" fill="#43D197"/>
<path d="M214.649 211.036C240.573 183.378 257.586 146.628 263.014 93.7656L259.35 94.4109C240.878 97.6656 224.324 103.543 208.628 111.16C200.286 132.142 188.13 151.188 173.025 167.46C180.048 187.251 195.289 203.14 214.649 211.036Z" fill="#39B48D"/>
<path d="M135.51 198.34C149.372 189.753 161.986 179.35 173.025 167.46C188.132 151.188 200.286 132.141 208.628 111.16C190.513 119.952 173.548 131.072 156.162 143.285C152.633 145.766 148.761 147.828 144.644 149.15C142.85 149.721 140.988 150.146 139.112 150.392C132.653 192.776 86.8198 198.905 59.8824 160.288C53.5078 161.33 46.9664 161.882 40.2958 161.882C33.9078 161.882 27.6371 161.38 21.5171 160.422C32.3851 185.072 47.3838 205.732 66.8371 223.436C70.5704 222.888 74.2664 222.225 77.9224 221.452C98.6491 217.072 118.064 209.146 135.51 198.34Z" fill="#56D2E7"/>
<path d="M40.296 161.882C46.9666 161.882 53.5079 161.331 59.8826 160.289C55.2706 153.675 51.208 145.761 47.9973 136.481C45.5773 129.489 43.74 122.253 42.5746 115.013C41.816 115.035 41.06 115.07 40.296 115.07C27.6306 115.07 15.7133 111.87 5.30396 106.239C8.98395 126.227 14.36 144.187 21.5173 160.422C27.6373 161.381 33.908 161.882 40.296 161.882Z" fill="#42BFDB"/>
<path d="M40.296 115.07C41.06 115.07 41.816 115.035 42.5747 115.013C36.804 79.1793 47.844 43.2153 90.2813 35.9486C83.14 23.9006 87.84 11.9793 96.236 1.70195C54.1067 7.69928 26.8347 29.2686 0 60.93C0.949333 77.1086 2.71467 92.1686 5.304 106.239C15.7133 111.87 27.6307 115.07 40.296 115.07Z" fill="#F55252"/>
<path fill-rule="evenodd" clip-rule="evenodd" d="M121.878 78.3293C121.008 88.4799 113.323 97.1159 102.811 98.7519C90.4669 100.679 78.8896 92.2226 76.9616 79.8786C75.0349 67.5279 83.4909 55.9493 95.8416 54.0293C102.864 52.9346 109.642 55.1999 114.527 59.6253C110.556 60.9133 108.17 65.4079 109.078 70.3279C110.086 75.7786 114.75 79.6853 119.5 79.0626C120.351 78.9519 121.148 78.6973 121.878 78.3293Z" fill="#2D1F46"/>
<path fill-rule="evenodd" clip-rule="evenodd" d="M228.204 54.9356C228.746 54.9663 229.286 54.9983 229.826 55.0343C230.962 55.1103 232.096 55.1969 233.23 55.2943C233.622 55.3276 234.014 55.3556 234.406 55.3916C235.872 55.5276 237.338 55.6836 238.799 55.8569C239.26 55.9116 239.72 55.9743 240.182 56.0329C241.268 56.1716 242.354 56.3183 243.436 56.4783C243.93 56.5503 244.422 56.6223 244.912 56.6996C246.208 56.9009 247.503 57.1183 248.795 57.3516C249.002 57.3889 249.21 57.4209 249.416 57.4596C250.906 57.7343 252.391 58.0356 253.874 58.3529C254.291 58.4423 254.708 58.5369 255.124 58.6303C256.252 58.8809 257.379 59.1436 258.503 59.4196C258.932 59.5249 259.363 59.6276 259.792 59.7369C261.279 60.1156 262.763 60.5076 264.243 60.9289C263.024 59.6343 261.796 58.3689 260.564 57.1183C260.196 56.7449 259.828 56.3769 259.459 56.0076C258.522 55.0676 257.579 54.1409 256.634 53.2276C256.295 52.8996 255.958 52.5689 255.618 52.2449C254.388 51.0703 253.152 49.9143 251.911 48.7836C251.643 48.5396 251.372 48.3023 251.104 48.0609C250.092 47.1476 249.078 46.2503 248.059 45.3663C247.664 45.0223 247.27 44.6809 246.872 44.3423C245.83 43.4503 244.782 42.5716 243.731 41.7076C243.486 41.5063 243.243 41.2996 242.998 41.1009C241.719 40.0596 240.434 39.0409 239.143 38.0423C238.811 37.7836 238.476 37.5329 238.143 37.2769C237.124 36.4983 236.103 35.7316 235.078 34.9783C234.723 34.7169 234.368 34.4556 234.012 34.1969C231.356 32.2716 228.682 30.4343 225.991 28.6823C225.666 28.4703 225.339 28.2623 225.014 28.0529C223.886 27.3276 222.755 26.6183 221.622 25.9236C221.374 25.7716 221.126 25.6156 220.878 25.4649C219.492 24.6249 218.103 23.8049 216.71 23.0076C216.56 22.9236 216.412 22.8423 216.263 22.7583C215.438 22.2889 214.612 21.8209 213.784 21.3676C213.78 21.3716 213.776 21.3769 213.772 21.3823C182.988 4.52761 150.528 -1.77106 119.524 0.419611C103.032 16.4703 103.854 26.7409 110.574 34.9463C120.064 46.5343 141.324 53.9943 142.235 67.7543C170.012 58.6929 197.858 53.7329 224.915 54.7796C226.014 54.8223 227.11 54.8729 228.204 54.9356Z" fill="#F9C102"/>
</svg>
