<svg width="24" height="24" viewBox="0 0 24 24" fill="none" xmlns="http://www.w3.org/2000/svg">
<path d="M16.2115 19.0963L16.0654 17.9425C15.7885 17.8848 15.5272 17.7877 15.2817 17.6511C15.0362 17.5146 14.8154 17.3412 14.6192 17.1309L13.5346 17.5617L13.1115 16.8425L14.0308 16.1502C13.9205 15.8656 13.8654 15.572 13.8654 15.2694C13.8654 14.9668 13.9205 14.6733 14.0308 14.3886L13.1308 13.6579L13.5539 12.9386L14.6192 13.3886C14.8026 13.1784 15.0202 13.0082 15.2721 12.878C15.524 12.7479 15.7885 12.654 16.0654 12.5963L16.2115 11.4425H17.0577L17.1846 12.5963C17.4615 12.654 17.726 12.7489 17.9779 12.8809C18.2298 13.013 18.4474 13.1861 18.6308 13.4002L19.6961 12.9386L20.1193 13.6694L19.2193 14.4002C19.3295 14.6771 19.3846 14.9688 19.3846 15.2752C19.3846 15.5816 19.3295 15.8733 19.2193 16.1502L20.1385 16.8425L19.7154 17.5617L18.6308 17.1309C18.4346 17.3412 18.2138 17.5146 17.9683 17.6511C17.7228 17.7877 17.4615 17.8848 17.1846 17.9425L17.0577 19.0963H16.2115ZM3 18.6156V16.9694C3 16.5091 3.11603 16.1111 3.34808 15.7752C3.58013 15.4393 3.90769 15.172 4.33078 14.9732C5.14231 14.5784 5.97884 14.2534 6.84037 13.9982C7.70192 13.7431 8.75513 13.6155 10 13.6155H10.2346C10.309 13.6155 10.3833 13.6194 10.4577 13.6271C10.1667 14.3656 10.0404 15.2143 10.0788 16.1732C10.1173 17.1322 10.3282 17.9463 10.7116 18.6156H3ZM16.6154 17.0771C17.1141 17.0771 17.5401 16.9005 17.8933 16.5473C18.2465 16.1941 18.4231 15.7681 18.4231 15.2694C18.4231 14.7707 18.2465 14.3447 17.8933 13.9915C17.5401 13.6383 17.1141 13.4617 16.6154 13.4617C16.1167 13.4617 15.6907 13.6383 15.3375 13.9915C14.9843 14.3447 14.8077 14.7707 14.8077 15.2694C14.8077 15.7681 14.9843 16.1941 15.3375 16.5473C15.6907 16.9005 16.1167 17.0771 16.6154 17.0771ZM10 11.3848C9.16923 11.3848 8.46154 11.0925 7.87692 10.5079C7.29231 9.92325 7 9.21556 7 8.38479C7 7.55401 7.29231 6.84631 7.87692 6.26169C8.46154 5.67707 9.16923 5.38477 10 5.38477C10.8308 5.38477 11.5385 5.67707 12.1231 6.26169C12.7077 6.84631 13 7.55401 13 8.38479C13 9.21556 12.7077 9.92325 12.1231 10.5079C11.5385 11.0925 10.8308 11.3848 10 11.3848Z" fill="white"/>
</svg>
