<svg width="28" height="28" viewBox="0 0 28 28" fill="none" xmlns="http://www.w3.org/2000/svg">
<path d="M6.67488 23.0492C6.22256 23.0492 5.83033 22.8831 5.49819 22.551C5.16606 22.2188 5 21.8266 5 21.3743V16.3646H6.67488V21.3743H21.3192V6.68078H6.67488V11.7397H5V6.68078C5 6.22685 5.16606 5.83324 5.49819 5.49996C5.83033 5.16665 6.22256 5 6.67488 5H21.3192C21.7731 5 22.1668 5.16665 22.5 5.49996C22.8333 5.83324 23 6.22685 23 6.68078V21.3743C23 21.8266 22.8333 22.2188 22.5 22.551C22.1668 22.8831 21.7731 23.0492 21.3192 23.0492H6.67488ZM12.4323 18.9731L11.1849 17.7316L14.0211 14.8896H5V13.2147H14.0211L11.1849 10.3726L12.4323 9.13112L17.3532 14.0521L12.4323 18.9731Z" fill="white"/>
</svg>
