<svg width="24" height="24" viewBox="0 0 24 24" fill="none" xmlns="http://www.w3.org/2000/svg">
<path d="M12 8.42307L8.46152 11.9616L9.16923 12.6808L11.5 10.35V19H12.5V10.35L14.8308 12.6808L15.5385 11.9616L12 8.42307ZM6.61537 5C6.15512 5 5.77083 5.15417 5.4625 5.4625C5.15417 5.77083 5 6.15512 5 6.61537V9.03845H6V6.61537C6 6.46154 6.0641 6.32052 6.1923 6.1923C6.32052 6.0641 6.46154 6 6.61537 6H17.3846C17.5385 6 17.6795 6.0641 17.8077 6.1923C17.9359 6.32052 18 6.46154 18 6.61537V9.03845H19V6.61537C19 6.15512 18.8458 5.77083 18.5375 5.4625C18.2292 5.15417 17.8449 5 17.3846 5H6.61537Z" fill="black"/>
</svg>
