<svg width="26" height="26" viewBox="0 0 26 26" fill="none" xmlns="http://www.w3.org/2000/svg">
<path d="M23.9812 11.9C22.5034 10.4528 20.835 9.30902 18.976 8.46873C17.1169 7.62846 15.1249 7.20833 12.9999 7.20833C12.4846 7.20833 11.9791 7.23506 11.4833 7.28852C10.9874 7.342 10.5735 7.41318 10.2416 7.50207L9.20201 6.4833C9.67701 6.33332 10.2301 6.21526 10.8614 6.12914C11.4926 6.04303 12.2055 5.99998 12.9999 5.99998C15.3194 5.99998 17.4864 6.45415 19.501 7.36248C21.5156 8.27082 23.293 9.50624 24.8333 11.0687L23.9812 11.9ZM19.5499 16.3104C19.2319 16.0104 18.9472 15.7642 18.6958 15.5718C18.4444 15.3795 18.1201 15.1882 17.7228 14.9979L15.8707 13.125C16.586 13.2166 17.3135 13.4785 18.0531 13.9104C18.7926 14.3423 19.5201 14.9139 20.2353 15.625L19.5499 16.3104ZM21.7604 22.9854L12.5478 13.7521C11.3923 13.8201 10.2926 14.1021 9.24889 14.5979C8.20513 15.0937 7.32075 15.7271 6.59575 16.4979L5.76451 15.6666C6.50201 14.9153 7.35235 14.2694 8.31554 13.7292C9.27873 13.1889 10.3333 12.8312 11.4791 12.6562L7.22284 8.42082C6.36034 8.75277 5.45965 9.23784 4.52076 9.87603C3.58187 10.5142 2.74784 11.1889 2.01867 11.9L1.20825 11.0687C1.96937 10.3034 2.79645 9.60067 3.68949 8.9604C4.58256 8.32012 5.43812 7.82011 6.25618 7.46039L3.68118 4.88539L4.28327 4.28333L22.3833 22.3833L21.7604 22.9854ZM12.9999 22.8812L10.2624 20.1375C10.6194 19.7805 11.0287 19.5017 11.4905 19.301C11.9524 19.1003 12.4555 19 12.9999 19C13.5444 19 14.0475 19.1003 14.5093 19.301C14.9711 19.5017 15.3805 19.7805 15.7374 20.1375L12.9999 22.8812Z" fill="#EC5A59"/>
</svg>
