<svg width="30" height="30" viewBox="0 0 30 30" fill="none" xmlns="http://www.w3.org/2000/svg">
<path d="M3.125 23.1251V22.1564H26.875V23.1251H3.125ZM3.6875 15.4761L2.89422 15.053L4.19232 12.8078H1.63463V11.9304H4.19232L2.89422 9.73326L3.6875 9.28617L4.94713 11.4761L6.20672 9.28617L6.97597 9.73326L5.70194 11.9304H8.25963V12.8078H5.70194L6.97597 15.053L6.20672 15.4761L4.94713 13.2621L3.6875 15.4761ZM13.7404 15.4761L12.9471 15.0145L14.2452 12.7934H11.6875V11.8919H14.2452L12.9471 9.69482L13.7404 9.27173L15 11.4376L16.2596 9.27173L17.0529 9.69482L15.7548 11.8919H18.3125V12.7934H15.7548L17.0529 15.0145L16.2596 15.4761L15 13.2621L13.7404 15.4761ZM23.7933 15.4761L23.024 15.0145L24.2981 12.7934H21.7404V11.8919H24.2981L23.024 9.69482L23.7933 9.27173L25.0529 11.4376L26.3125 9.27173L27.1058 9.69482L25.8077 11.8919H28.3654V12.7934H25.8077L27.1058 15.0145L26.3125 15.4761L25.0529 13.2621L23.7933 15.4761Z" fill="#232323"/>
</svg>
