<svg width="207" height="242" viewBox="0 0 207 242" fill="none" xmlns="http://www.w3.org/2000/svg">
<g clip-path="url(#clip0_351_1463)">
<path d="M200.31 89.1948H6.51311C4.78634 89.1928 3.13085 88.5043 1.90984 87.2805C0.688831 86.0567 0.00199387 84.3974 0 82.6666V6.52818C0.00199387 4.79741 0.688831 3.1381 1.90984 1.91426C3.13085 0.690426 4.78634 0.00199848 6.51311 0H200.31C202.036 0.00199848 203.692 0.690426 204.913 1.91426C206.134 3.1381 206.821 4.79741 206.823 6.52818V82.6666C206.821 84.3974 206.134 86.0567 204.913 87.2805C203.692 88.5043 202.036 89.1928 200.31 89.1948Z" fill="#F2F2F2"/>
<path d="M155.112 85.0312H37.2754C28.4943 85.0213 20.0758 81.5206 13.8667 75.2971C7.65757 69.0736 4.16494 60.6355 4.15503 51.8342V37.3642C4.16493 28.5628 7.65755 20.1248 13.8667 13.9012C20.0758 7.67768 28.4943 4.17691 37.2754 4.16693H169.549C178.33 4.17691 186.748 7.67768 192.957 13.9012C199.166 20.1248 202.659 28.5628 202.669 37.3642C202.655 50.0019 197.64 62.1179 188.724 71.0541C179.808 79.9903 167.72 85.0169 155.112 85.0312Z" fill="white"/>
<path d="M124.715 25.9628H46.8234C46.3779 25.9628 45.9507 25.7854 45.6357 25.4697C45.3206 25.154 45.1437 24.7257 45.1437 24.2792C45.1437 23.8327 45.3206 23.4044 45.6357 23.0887C45.9507 22.773 46.3779 22.5956 46.8234 22.5956H124.715C125.16 22.5956 125.588 22.773 125.903 23.0887C126.218 23.4044 126.395 23.8327 126.395 24.2792C126.395 24.7257 126.218 25.154 125.903 25.4697C125.588 25.7854 125.16 25.9628 124.715 25.9628Z" fill="#E6E6E6"/>
<path d="M164.145 43.926H46.8234C46.3779 43.926 45.9507 43.7486 45.6357 43.4328C45.3206 43.1171 45.1437 42.6889 45.1437 42.2423C45.1437 41.7958 45.3206 41.3676 45.6357 41.0518C45.9507 40.7361 46.3779 40.5587 46.8234 40.5587H164.145C164.59 40.5587 165.018 40.7361 165.333 41.0518C165.648 41.3676 165.825 41.7958 165.825 42.2423C165.825 42.6889 165.648 43.1171 165.333 43.4328C165.018 43.7486 164.59 43.926 164.145 43.926Z" fill="#E6E6E6"/>
<path d="M164.145 61.8891H46.8234C46.3779 61.8891 45.9507 61.7117 45.6357 61.396C45.3206 61.0802 45.1437 60.652 45.1437 60.2055C45.1437 59.7589 45.3206 59.3307 45.6357 59.015C45.9507 58.6992 46.3779 58.5219 46.8234 58.5219H164.145C164.59 58.5219 165.018 58.6992 165.333 59.015C165.648 59.3307 165.825 59.7589 165.825 60.2055C165.825 60.652 165.648 61.0802 165.333 61.396C165.018 61.7117 164.59 61.8891 164.145 61.8891Z" fill="#E6E6E6"/>
<path d="M164.145 61.8891H46.8234C46.3779 61.8891 45.9507 61.7117 45.6357 61.396C45.3206 61.0802 45.1437 60.652 45.1437 60.2055C45.1437 59.7589 45.3206 59.3307 45.6357 59.015C45.9507 58.6992 46.3779 58.5219 46.8234 58.5219H164.145C164.59 58.5219 165.018 58.6992 165.333 59.015C165.648 59.3307 165.825 59.7589 165.825 60.2055C165.825 60.652 165.648 61.0802 165.333 61.396C165.018 61.7117 164.59 61.8891 164.145 61.8891Z" fill="#E6E6E6"/>
<path d="M116.495 45.9877C116.514 46.4948 116.643 46.9917 116.874 47.4433C117.105 47.8949 117.432 48.2902 117.832 48.6015C118.232 48.9127 118.695 49.1323 119.189 49.2447C119.683 49.3572 120.195 49.3597 120.69 49.2522L127.096 59.7854L129.822 53.9866L123.321 44.8732C123.086 44.052 122.558 43.3458 121.838 42.8884C121.118 42.4311 120.256 42.2544 119.414 42.3917C118.573 42.5291 117.811 42.971 117.273 43.6338C116.735 44.2966 116.458 45.1341 116.495 45.9877Z" fill="#FFB6B6"/>
<path d="M164.567 76.1751L142.491 64.173L135.528 57.625C135.528 57.625 132.501 56.8127 133.615 55.8261C134.729 54.8396 131.554 53.8881 131.554 53.8881L127.816 50.373L122.505 54.14L124.042 56.5284C124.042 56.5284 123.936 60.4824 126.097 59.7217C128.258 58.961 127.718 62.2403 127.718 62.2403L140.617 82.2815L164.567 76.1751Z" fill="#EC5A59"/>
<path d="M99.4017 64.8673C111.311 64.8673 120.964 55.191 120.964 43.2546C120.964 31.3183 111.311 21.642 99.4017 21.642C87.493 21.642 77.839 31.3183 77.839 43.2546C77.839 55.191 87.493 64.8673 99.4017 64.8673Z" fill="#62D69F"/>
<path d="M164.635 233.597H160.152L158.018 216.264H164.635V233.597Z" fill="#FFB6B6"/>
<path d="M167.002 241.383H163.787L163.213 238.341L161.743 241.383H153.215C152.806 241.383 152.408 241.252 152.079 241.01C151.75 240.767 151.507 240.425 151.385 240.034C151.263 239.643 151.27 239.223 151.403 238.835C151.536 238.448 151.79 238.114 152.126 237.881L158.936 233.167V230.091L166.099 230.519L167.002 241.383Z" fill="#2F2E41"/>
<path d="M128.777 233.597H124.293L122.16 216.264H128.777V233.597Z" fill="#FFB6B6"/>
<path d="M131.143 241.383H127.928L127.354 238.341L125.884 241.383H117.356C116.948 241.383 116.55 241.252 116.22 241.01C115.891 240.767 115.648 240.425 115.526 240.034C115.405 239.643 115.411 239.223 115.544 238.835C115.677 238.448 115.931 238.114 116.267 237.881L123.077 233.167V230.091L130.24 230.519L131.143 241.383Z" fill="#2F2E41"/>
<path d="M159.878 102.506H137.249V128.329H159.878V102.506Z" fill="#FFB6B6"/>
<path d="M137.771 115.243L133.941 119.779L127.327 133.737L110.659 173.486L107.135 181.892L109.981 196.753C109.981 196.753 110.442 207.222 110.442 208.936C110.442 212.425 113.354 214.359 113.354 214.359L115.49 225.511L136.204 224.639C136.204 224.639 135.482 212.346 131.143 209.245C126.805 206.144 124.81 189.984 124.81 189.984L122.453 182.814L145.43 155.514L145.579 165.057L145.65 169.676C145.65 169.676 142.285 199.718 146.208 205.548C150.13 211.378 146.288 210.693 146.288 210.693L146.475 222.719L171.019 222.894L165.604 188.268C165.604 188.268 162.854 186.092 164.326 183.905C165.797 181.718 162.9 179.039 162.9 179.039L164.199 152.008C164.199 152.008 162.76 147.339 164.453 146.732C166.145 146.125 164.675 142.11 164.675 142.11L164.926 136.878L159.878 120.652L137.771 115.243Z" fill="#232323"/>
<path d="M160.226 102.506L162.663 95.1785L164.404 92.7359L165.1 85.7569C165.1 66.9137 160.907 70.0515 160.907 70.0515L158.486 63.4242L147.345 63.0753L140.208 69.8798L134.29 71.9735L131.972 84.0437L136.204 96.9233L137.249 103.902C135.257 107.589 135.425 105.845 137.075 108.613L156.745 114.022C163.708 116.464 163.708 110.183 162.312 108.613C160.915 107.043 160.226 102.506 160.226 102.506Z" fill="#EC5A59"/>
<path d="M151.476 60.7328C157.18 60.7328 161.804 56.0982 161.804 50.3812C161.804 44.6642 157.18 40.0296 151.476 40.0296C145.772 40.0296 141.148 44.6642 141.148 50.3812C141.148 56.0982 145.772 60.7328 151.476 60.7328Z" fill="#FFB6B6"/>
<path d="M165.264 64.1988C165.361 64.3634 165.42 64.5479 165.436 64.7385C165.453 64.9291 165.426 65.1209 165.358 65.2996C165.29 65.4784 165.183 65.6395 165.044 65.7709C164.905 65.9024 164.739 66.0007 164.557 66.0587C163.171 66.5194 162.319 67.8628 161.323 68.9376C160.331 70.0089 158.733 70.8987 157.465 70.1693C156.202 69.4436 156.115 67.5906 155.056 66.5857C154.026 65.6086 152.313 65.7272 151.101 66.4705L151.065 66.4928C150.856 66.6295 150.612 66.7017 150.362 66.7006C150.112 66.6994 149.868 66.625 149.66 66.4864C149.453 66.3479 149.29 66.1513 149.192 65.921C149.095 65.6907 149.067 65.4367 149.111 65.1906C149.536 62.9277 149.96 60.6651 150.384 58.4028C149.27 61.0933 147.652 63.5452 145.618 65.6261C145.058 66.2741 144.348 66.7749 143.55 67.0847C142.826 67.315 142.123 66.5647 141.419 66.7008C143.167 65.1689 149.044 55.3495 147.992 48.7858C146.757 48.9253 145.521 49.0649 144.285 49.2045C144.151 48.6183 143.865 48.0778 143.456 47.6377C143.506 48.2083 143.434 48.783 143.244 49.3231C142.729 49.3825 142.21 49.4383 141.695 49.4976C140.977 49.5779 140.198 49.6477 139.581 49.2708C138.554 48.6427 138.523 47.1562 138.815 45.9837C139.672 42.5745 142.269 39.7236 145.448 38.2301C148.626 36.7401 149.566 40.0586 152.915 38.9978C159.53 36.9041 164.599 40.4843 166.385 47.1283C167.885 52.701 166.796 58.6157 165.264 64.1988Z" fill="#2F2E41"/>
<path d="M193.856 241.608H181.21L181.155 241.51C180.994 241.216 180.838 240.904 180.692 240.584C179.389 237.789 178.838 234.592 178.353 231.772L177.987 229.646C177.943 229.388 177.976 229.123 178.083 228.885C178.189 228.646 178.365 228.445 178.586 228.307C178.808 228.17 179.065 228.101 179.325 228.111C179.586 228.12 179.838 228.207 180.048 228.361C181.97 229.763 183.893 231.163 185.816 232.562C186.545 233.093 187.376 233.708 188.173 234.372C188.25 233.998 188.33 233.623 188.41 233.253C188.466 232.998 188.596 232.765 188.784 232.584C188.973 232.403 189.211 232.282 189.468 232.238C189.725 232.193 189.989 232.227 190.227 232.334C190.465 232.441 190.666 232.616 190.804 232.838L192.283 235.221C193.362 236.961 194.315 238.676 194.121 240.525C194.122 240.547 194.12 240.57 194.116 240.592C194.077 240.896 194.005 241.194 193.901 241.482L193.856 241.608Z" fill="#F0F0F0"/>
<path d="M206.549 241.883L86.378 242C86.258 241.999 86.1432 241.951 86.0586 241.866C85.974 241.781 85.9265 241.665 85.9265 241.545C85.9265 241.425 85.974 241.31 86.0586 241.224C86.1432 241.139 86.258 241.091 86.378 241.09L206.549 240.973C206.669 240.974 206.783 241.022 206.868 241.107C206.953 241.192 207 241.308 207 241.428C207 241.548 206.953 241.663 206.868 241.749C206.783 241.834 206.669 241.882 206.549 241.883Z" fill="#CACACA"/>
<path d="M97.4416 72.3437L84.2234 61.1551C83.7716 60.7718 83.4899 60.2245 83.4402 59.6333C83.3904 59.0421 83.5767 58.4553 83.9581 58.0016L86.391 55.1141C86.7734 54.6612 87.3194 54.3789 87.9093 54.329C88.4991 54.2792 89.0846 54.4659 89.5372 54.8482L102.755 66.0368C103.207 66.4201 103.489 66.9674 103.539 67.5586C103.588 68.1498 103.402 68.7366 103.021 69.1903L100.588 72.0778C100.205 72.5307 99.6594 72.813 99.0696 72.8629C98.4798 72.9127 97.8943 72.726 97.4416 72.3437Z" fill="#EC5A59"/>
<path d="M84.917 58.2343C84.7115 58.4788 84.6111 58.7951 84.6379 59.1137C84.6647 59.4322 84.8165 59.7272 85.06 59.9337L98.2782 71.1223C98.5222 71.3283 98.8377 71.4289 99.1555 71.4021C99.4734 71.3752 99.7676 71.2231 99.9737 70.979L102.407 68.0915C102.612 67.847 102.712 67.5308 102.686 67.2122C102.659 66.8936 102.507 66.5987 102.264 66.3922L89.0453 55.2036C88.8014 54.9976 88.4859 54.897 88.1681 54.9238C87.8502 54.9507 87.556 55.1028 87.3499 55.3468L84.917 58.2343Z" fill="white"/>
<path d="M92.677 62.5838C92.6311 62.6482 92.571 62.7009 92.5012 62.7379C92.4315 62.7749 92.3541 62.795 92.2752 62.7968L90.1983 62.8446C90.1316 62.8462 90.0653 62.8345 90.003 62.8104C89.9408 62.7862 89.8839 62.7499 89.8357 62.7037C89.7874 62.6575 89.7487 62.6023 89.7217 62.5411C89.6948 62.4799 89.6801 62.414 89.6786 62.3471C89.6771 62.2802 89.6887 62.2137 89.7128 62.1513C89.7369 62.0889 89.7731 62.0319 89.8192 61.9836C89.8653 61.9352 89.9204 61.8964 89.9815 61.8694C90.0425 61.8424 90.1083 61.8277 90.175 61.8261L91.5337 61.7948L90.1957 58.256C90.1483 58.1297 90.1528 57.9898 90.2082 57.8669C90.2636 57.7439 90.3654 57.6481 90.4912 57.6003C90.6171 57.5525 90.7567 57.5566 90.8795 57.6119C91.0022 57.6671 91.0981 57.7689 91.1461 57.8949L92.7388 62.1071C92.7676 62.1833 92.7778 62.2653 92.7684 62.3462C92.7591 62.4271 92.7305 62.5046 92.6851 62.5722L92.677 62.5838Z" fill="#62D69F"/>
<path d="M92.9433 63.4732C93.4443 63.5469 93.923 63.7299 94.3458 64.0091C94.7685 64.2884 95.1251 64.6571 95.3903 65.0894C95.6554 65.5217 95.8229 66.007 95.8807 66.5112C95.9385 67.0154 95.8853 67.5261 95.7249 68.0074L105.475 75.5353L99.4274 77.6213L91.0958 70.1528C90.3069 69.8291 89.6639 69.2266 89.2886 68.4595C88.9133 67.6924 88.8318 66.8139 89.0595 65.9905C89.2873 65.1672 89.8084 64.4562 90.5242 63.9922C91.24 63.5282 92.1008 63.3436 92.9433 63.4732Z" fill="#FFB6B6"/>
<path d="M143.704 67.1953L118.741 82.5792C118.741 82.5792 108.676 78.8465 110.643 77.1186C112.61 75.3906 106.348 74.2224 106.348 74.2224L99.4307 69.5578L95.4166 74.2336C95.4166 74.2336 96.148 81.8286 97.3925 80.5135C98.637 79.1984 100.497 82.791 100.497 82.791C100.497 82.791 101.047 86.8023 104.589 85.7928C108.132 84.7834 117.638 95.3645 117.638 95.3645L148.36 83.8798L143.704 67.1953Z" fill="#EC5A59"/>
<path d="M98.6435 51.9243C98.3541 51.9243 98.0687 51.8568 97.8099 51.727C97.5511 51.5973 97.3259 51.4089 97.1524 51.1768L92.5804 45.0666C92.4335 44.8703 92.3267 44.647 92.2659 44.4093C92.2052 44.1716 92.1918 43.9242 92.2264 43.6813C92.261 43.4384 92.343 43.2048 92.4678 42.9936C92.5925 42.7825 92.7575 42.5981 92.9533 42.4509C93.3488 42.1536 93.846 42.0259 94.3354 42.096C94.5777 42.1307 94.8109 42.2129 95.0215 42.3379C95.2322 42.463 95.4162 42.6283 95.563 42.8246L98.5542 46.8217L106.236 35.2717C106.511 34.8594 106.937 34.5732 107.422 34.476C107.907 34.3788 108.41 34.4786 108.822 34.7535C109.233 35.0284 109.519 35.4558 109.616 35.9418C109.713 36.4277 109.613 36.9323 109.339 37.3446L100.195 51.0922C100.029 51.3409 99.8069 51.5461 99.546 51.6908C99.2851 51.8355 98.9934 51.9154 98.6954 51.9237C98.6781 51.924 98.6608 51.9243 98.6435 51.9243Z" fill="white"/>
</g>
<defs>
<clipPath id="clip0_351_1463">
<rect width="207" height="242" fill="white"/>
</clipPath>
</defs>
</svg>
