<svg width="27" height="27" viewBox="0 0 27 27" fill="none" xmlns="http://www.w3.org/2000/svg">
<path d="M14.2272 14.8949L15.4105 13.7182L11.6173 9.92001V4.60625H9.96872V10.6364L14.2272 14.8949ZM9.56385 19.8542C9.94044 19.105 10.4934 18.4962 11.2227 18.0277C11.9521 17.5592 12.7703 17.325 13.6772 17.325H17.2085C18.0703 16.4755 18.7406 15.4931 19.2193 14.3777C19.6981 13.2623 19.9374 12.0685 19.9374 10.7964C19.9374 8.25688 19.0484 6.09738 17.2704 4.31788C15.4924 2.5384 13.3347 1.64866 10.7974 1.64866C8.25998 1.64866 6.10084 2.5384 4.31994 4.31788C2.53906 6.09738 1.64863 8.25688 1.64863 10.7964C1.64863 13.1199 2.4106 15.1339 3.93456 16.8385C5.45854 18.5431 7.33497 19.5483 9.56385 19.8542ZM13.6772 26.5361C12.3001 26.5361 11.1526 26.0273 10.2348 25.0097C9.31705 23.9921 8.91572 22.7966 9.03083 21.4229C6.461 20.9923 4.3134 19.7827 2.58803 17.7942C0.862675 15.8057 0 13.4708 0 10.7896C0 7.79526 1.04887 5.24843 3.14662 3.14906C5.24436 1.04969 7.79163 0 10.7884 0C13.7852 0 16.334 1.04965 18.4348 3.14896C20.5357 5.24824 21.5861 7.79737 21.5861 10.7964C21.5861 12.0365 21.3889 13.209 20.9946 14.3139C20.6003 15.4187 20.0518 16.4225 19.349 17.325H21.9034C23.1848 17.325 24.2772 17.7739 25.1808 18.6718C26.0843 19.5696 26.5361 20.6581 26.5361 21.9372C26.5361 23.2284 26.0916 24.3177 25.2025 25.2051C24.3135 26.0924 23.2217 26.5361 21.9272 26.5361H13.6772ZM13.6772 24.8875H21.9272C22.7413 24.8875 23.4382 24.5974 24.0179 24.0172C24.5976 23.4371 24.8874 22.7397 24.8874 21.925C24.8874 21.1103 24.5976 20.4147 24.0179 19.8383C23.4382 19.2619 22.7413 18.9737 21.9272 18.9737H13.6772C12.865 18.9737 12.1697 19.2642 11.5912 19.8452C11.0128 20.4263 10.7236 21.1248 10.7236 21.9408C10.7236 22.7568 11.0128 23.4519 11.5912 24.0261C12.1697 24.6003 12.865 24.8875 13.6772 24.8875ZM13.6862 22.9135C13.4193 22.9135 13.1878 22.8178 12.9917 22.6264C12.7956 22.4349 12.6975 22.2064 12.6975 21.9409C12.6975 21.6753 12.7933 21.4434 12.9847 21.2451C13.1762 21.0467 13.4047 20.9476 13.6702 20.9476C13.9358 20.9476 14.1677 21.0437 14.366 21.2361C14.5644 21.4284 14.6635 21.658 14.6635 21.9249C14.6635 22.1918 14.5673 22.4232 14.375 22.6194C14.1827 22.8155 13.9531 22.9135 13.6862 22.9135ZM17.8112 22.9135C17.5443 22.9135 17.3128 22.8178 17.1167 22.6264C16.9206 22.4349 16.8225 22.2064 16.8225 21.9409C16.8225 21.6753 16.9183 21.4434 17.1097 21.2451C17.3012 21.0467 17.5297 20.9476 17.7952 20.9476C18.0608 20.9476 18.2927 21.0437 18.491 21.2361C18.6894 21.4284 18.7885 21.658 18.7885 21.9249C18.7885 22.1918 18.6923 22.4232 18.5 22.6194C18.3077 22.8155 18.0781 22.9135 17.8112 22.9135ZM21.9362 22.9135C21.6693 22.9135 21.4378 22.8178 21.2417 22.6264C21.0456 22.4349 20.9475 22.2064 20.9475 21.9409C20.9475 21.6753 21.0433 21.4434 21.2347 21.2451C21.4262 21.0467 21.6547 20.9476 21.9202 20.9476C22.1858 20.9476 22.4177 21.0437 22.616 21.2361C22.8144 21.4284 22.9135 21.658 22.9135 21.9249C22.9135 22.1918 22.8173 22.4232 22.625 22.6194C22.4327 22.8155 22.2031 22.9135 21.9362 22.9135Z" fill="#F9C102"/>
</svg>
