<svg width="24" height="24" viewBox="0 0 24 24" fill="none" xmlns="http://www.w3.org/2000/svg">
<path d="M16.1154 10.5002V9.50017H21.1154V10.5002H16.1154ZM9 11.3848C8.175 11.3848 7.46875 11.091 6.88125 10.5035C6.29375 9.91604 6 9.20979 6 8.38479C6 7.55977 6.29375 6.85352 6.88125 6.26602C7.46875 5.67852 8.175 5.38477 9 5.38477C9.825 5.38477 10.5312 5.67852 11.1188 6.26602C11.7063 6.85352 12 7.55977 12 8.38479C12 9.20979 11.7063 9.91604 11.1188 10.5035C10.5312 11.091 9.825 11.3848 9 11.3848ZM2 18.6156V16.9694C2 16.5566 2.12019 16.1704 2.36057 15.8107C2.60096 15.4511 2.92436 15.172 3.33078 14.9732C4.27436 14.5207 5.21858 14.1812 6.16345 13.955C7.10833 13.7287 8.05385 13.6155 9 13.6155C9.94615 13.6155 10.8917 13.7287 11.8366 13.955C12.7814 14.1812 13.7256 14.5207 14.6692 14.9732C15.0756 15.172 15.399 15.4511 15.6394 15.8107C15.8798 16.1704 16 16.5566 16 16.9694V18.6156H2ZM3 17.6155H15V16.9694C15 16.7476 14.9285 16.5393 14.7856 16.3444C14.6426 16.1495 14.4449 15.9848 14.1923 15.8502C13.3692 15.4514 12.5206 15.146 11.6464 14.9338C10.7722 14.7216 9.89008 14.6155 9 14.6155C8.10992 14.6155 7.22778 14.7216 6.3536 14.9338C5.4794 15.146 4.63077 15.4514 3.8077 15.8502C3.55513 15.9848 3.35737 16.1495 3.21442 16.3444C3.07147 16.5393 3 16.7476 3 16.9694V17.6155ZM9 10.3848C9.55 10.3848 10.0208 10.189 10.4125 9.79729C10.8042 9.40562 11 8.93479 11 8.38479C11 7.83479 10.8042 7.36396 10.4125 6.97229C10.0208 6.58062 9.55 6.38479 9 6.38479C8.45 6.38479 7.97917 6.58062 7.5875 6.97229C7.19583 7.36396 7 7.83479 7 8.38479C7 8.93479 7.19583 9.40562 7.5875 9.79729C7.97917 10.189 8.45 10.3848 9 10.3848Z" fill="white"/>
</svg>
