<svg width="42" height="43" viewBox="0 0 42 43" fill="none" xmlns="http://www.w3.org/2000/svg">
<path d="M28.35 15.4713V9.96553H13.65V15.4713H12.3039V8.61938H29.6961V15.4713H28.35ZM31.2039 21.0747C31.6324 21.0747 32.0003 20.9208 32.3077 20.6131C32.6151 20.3053 32.7687 19.9429 32.7687 19.526C32.7687 19.1091 32.6149 18.747 32.3073 18.4396C31.9996 18.1322 31.6374 17.9786 31.2207 17.9786C30.781 17.9786 30.413 18.1324 30.1168 18.4402C29.8207 18.7479 29.6726 19.1103 29.6726 19.5272C29.6726 19.9441 29.8207 20.3063 30.1168 20.6136C30.413 20.921 30.7753 21.0747 31.2039 21.0747ZM28.35 34.1963V25.5944H13.65V34.1963H28.35ZM29.6961 35.5425H12.3039V28.2127H6.25961V18.6617C6.25961 17.7763 6.56979 17.0232 7.19013 16.4024C7.81048 15.7817 8.57498 15.4713 9.48364 15.4713H32.5164C33.4298 15.4713 34.1955 15.7817 34.8135 16.4024C35.4314 17.0232 35.7404 17.7763 35.7404 18.6617V28.2127H29.6961V35.5425ZM34.3942 26.8665V18.6523C34.3942 18.1426 34.2143 17.7093 33.8544 17.3526C33.4944 16.9958 33.0484 16.8175 32.5164 16.8175H9.48364C8.95158 16.8175 8.50558 16.9991 8.14563 17.3624C7.78572 17.7257 7.60576 18.1588 7.60576 18.6617V26.8665H12.3039V24.2482H29.6961V26.8665H34.3942Z" fill="black" fill-opacity="0.7"/>
</svg>
