<svg width="17" height="18" viewBox="0 0 17 18" fill="none" xmlns="http://www.w3.org/2000/svg">
<path fill-rule="evenodd" clip-rule="evenodd" d="M16.9401 8.54511C13.2156 1.0433 5.003 -0.244703 1.37643 0.0345513C1.04235 0.0602766 0.793095 0.342943 0.819706 0.665904C0.846317 0.988864 1.13872 1.22982 1.4728 1.2041C4.85009 0.944036 12.4302 2.17284 15.846 9.05277C15.991 9.34485 16.3535 9.46799 16.6556 9.32781C16.9577 9.18762 17.0851 8.8372 16.9401 8.54511Z" fill="#F9C102"/>
<path fill-rule="evenodd" clip-rule="evenodd" d="M14.1599 12.936C12.7341 6.6141 6.93598 4.25964 4.23206 3.86143C3.906 3.8134 3.60274 4.0388 3.55472 4.36487C3.5067 4.69094 3.7321 4.99419 4.05817 5.04221C6.51886 5.40461 11.7242 7.56121 12.9956 13.1986C13.0681 13.5201 13.3876 13.722 13.7091 13.6495C14.0306 13.577 14.2324 13.2575 14.1599 12.936Z" fill="#F9C102"/>
<path fill-rule="evenodd" clip-rule="evenodd" d="M8.69049 16.6803C9.25178 11.633 5.5612 8.41323 3.66542 7.42917C3.3729 7.27732 3.01267 7.39137 2.86083 7.68389C2.70899 7.97641 2.82303 8.33664 3.11555 8.48848C4.79313 9.35928 7.98801 12.1985 7.50427 16.5484C7.46785 16.876 7.70386 17.171 8.03142 17.2075C8.35899 17.2439 8.65406 17.0079 8.69049 16.6803Z" fill="#F9C102"/>
</svg>
