<svg width="17" height="18" viewBox="0 0 17 18" fill="none" xmlns="http://www.w3.org/2000/svg">
<path fill-rule="evenodd" clip-rule="evenodd" d="M0.0598877 8.54511C3.78437 1.0433 11.997 -0.244703 15.6236 0.0345513C15.9577 0.0602766 16.2069 0.342943 16.1803 0.665904C16.1537 0.988864 15.8613 1.22982 15.5272 1.2041C12.1499 0.944036 4.56978 2.17284 1.15405 9.05277C1.00903 9.34485 0.646542 9.46799 0.344398 9.32781C0.0422536 9.18762 -0.0851258 8.8372 0.0598877 8.54511Z" fill="#F9C102"/>
<path fill-rule="evenodd" clip-rule="evenodd" d="M2.84008 12.936C4.26587 6.6141 10.064 4.25964 12.7679 3.86143C13.094 3.8134 13.3973 4.0388 13.4453 4.36487C13.4933 4.69094 13.2679 4.99419 12.9418 5.04221C10.4811 5.40461 5.27577 7.56121 4.00436 13.1986C3.93185 13.5201 3.61244 13.722 3.29093 13.6495C2.96943 13.577 2.76757 13.2575 2.84008 12.936Z" fill="#F9C102"/>
<path fill-rule="evenodd" clip-rule="evenodd" d="M8.30951 16.6803C7.74822 11.633 11.4388 8.41323 13.3346 7.42917C13.6271 7.27732 13.9873 7.39137 14.1392 7.68389C14.291 7.97641 14.177 8.33664 13.8844 8.48848C12.2069 9.35928 9.01199 12.1985 9.49573 16.5484C9.53215 16.876 9.29614 17.171 8.96858 17.2075C8.64101 17.2439 8.34594 17.0079 8.30951 16.6803Z" fill="#F9C102"/>
</svg>
