<svg width="24" height="24" viewBox="0 0 24 24" fill="none" xmlns="http://www.w3.org/2000/svg">
<rect width="24" height="24" rx="12" fill="#62D69F"/>
<path d="M5.39938 18.9043V17.5028H7.85171L7.65388 17.3326C6.75883 16.5572 6.09275 15.7441 5.65566 14.8936C5.21855 14.043 5 13.0837 5 12.0156C5 10.4243 5.48878 9.00457 6.46635 7.75646C7.44392 6.50837 8.70813 5.67053 10.259 5.24293V6.9619C9.19278 7.32322 8.33116 7.97212 7.67413 8.90858C7.01711 9.84503 6.6886 10.8807 6.6886 12.0156C6.6886 12.8727 6.84841 13.6153 7.16802 14.2435C7.48764 14.8716 7.92167 15.4176 8.47012 15.8814L9.03326 16.2541V13.857H10.4347V18.9043H5.39938ZM13.7622 18.6825V16.9424C14.8425 16.5811 15.7041 15.9322 16.347 14.9957C16.9899 14.0593 17.3114 13.0236 17.3114 11.8887C17.3114 11.2433 17.1496 10.5853 16.826 9.91482C16.5024 9.2443 16.0885 8.64894 15.5842 8.12871L15.0422 7.65022V10.0473H13.6195V5H18.6549V6.40148H16.1906L16.4004 6.61404C17.263 7.42014 17.9119 8.28667 18.3471 9.21363C18.7824 10.1406 19 11.0322 19 11.8887C19 13.48 18.5147 14.9032 17.5442 16.1584C16.5737 17.4136 15.313 18.2549 13.7622 18.6825Z" fill="white"/>
</svg>
