<svg width="351" height="168" viewBox="0 0 351 168" fill="none" xmlns="http://www.w3.org/2000/svg">
<path d="M175.397 167.932C272.266 167.932 350.795 161.455 350.795 153.466C350.795 145.476 272.266 139 175.397 139C78.5281 139 0 145.476 0 153.466C0 161.455 78.5281 167.932 175.397 167.932Z" fill="#DED6FF" fill-opacity="0.5"/>
<path d="M231.647 81H226.451V72.492H227.627V79.896H231.647V81ZM238.197 81H233.025V72.492H238.197V73.584H234.201V76.2H237.825V77.304H234.201V79.908H238.197V81ZM241.174 79.956H242.914C243.746 79.956 244.434 79.68 244.978 79.128C245.53 78.576 245.806 77.788 245.806 76.764C245.806 75.732 245.534 74.936 244.99 74.376C244.454 73.816 243.77 73.536 242.938 73.536H241.174V79.956ZM242.95 81H239.998V72.492H242.974C244.118 72.492 245.078 72.872 245.854 73.632C246.63 74.384 247.018 75.428 247.018 76.764C247.018 78.092 246.626 79.132 245.842 79.884C245.058 80.628 244.094 81 242.95 81ZM256.831 81H251.635V72.492H252.811V79.896H256.831V81ZM259.409 81H258.209V72.492H259.409V81ZM268.94 81H267.992L267.884 79.8C267.676 80.176 267.336 80.5 266.864 80.772C266.392 81.044 265.824 81.18 265.16 81.18C264.432 81.18 263.76 81.016 263.144 80.688C262.528 80.352 262.02 79.84 261.62 79.152C261.228 78.464 261.032 77.66 261.032 76.74C261.032 75.82 261.24 75.016 261.656 74.328C262.072 73.64 262.592 73.132 263.216 72.804C263.848 72.476 264.524 72.312 265.244 72.312C266.156 72.312 266.948 72.548 267.62 73.02C268.3 73.484 268.764 74.104 269.012 74.88L267.944 75.336C267.752 74.72 267.416 74.244 266.936 73.908C266.464 73.564 265.9 73.392 265.244 73.392C264.42 73.392 263.712 73.684 263.12 74.268C262.528 74.852 262.232 75.676 262.232 76.74C262.232 77.812 262.52 78.644 263.096 79.236C263.68 79.82 264.38 80.112 265.196 80.112C265.644 80.112 266.04 80.04 266.384 79.896C266.736 79.752 267.008 79.564 267.2 79.332C267.4 79.092 267.548 78.852 267.644 78.612C267.748 78.372 267.808 78.132 267.824 77.892H264.872V76.836H268.94V81ZM277.444 81H276.268V77.22H271.924V81H270.748V72.492H271.924V76.128H276.268V72.492H277.444V81ZM285.511 73.584H282.667V81H281.491V73.584H278.647V72.492H285.511V73.584Z" fill="black"/>
<path d="M171.556 157.985C187.915 157.985 201.178 152.802 201.178 146.409C201.178 140.015 187.915 134.832 171.556 134.832C155.196 134.832 141.934 140.015 141.934 146.409C141.934 152.802 155.196 157.985 171.556 157.985Z" fill="#7E7F7A"/>
<path d="M171.556 160.028C187.915 160.028 201.178 154.845 201.178 148.451C201.178 142.058 187.915 136.875 171.556 136.875C155.196 136.875 141.934 142.058 141.934 148.451C141.934 154.845 155.196 160.028 171.556 160.028Z" fill="#5E5E5E" fill-opacity="0.66"/>
<path d="M146.759 129.384H198.405L208.101 14.7674C208.773 6.82105 202.505 0 194.529 0H148.818C140.758 0 134.461 6.96101 135.267 14.9806L146.759 129.384Z" fill="#858585"/>
<path d="M146.159 144.275C146.465 147.794 149.411 150.494 152.943 150.494H191.785C195.353 150.494 198.316 147.741 198.577 144.183L207.936 16.6593C208.516 8.76602 202.268 2.04297 194.354 2.04297H148.62C140.632 2.04297 134.359 8.88654 135.052 16.8449L146.159 144.275Z" fill="url(#paint0_linear_850_776)"/>
<path d="M183.942 32.6865H159.169C157.172 32.6865 155.553 34.3057 155.553 36.303V142.111C155.553 144.108 157.172 145.727 159.169 145.727H183.942C185.939 145.727 187.558 144.108 187.558 142.111V36.303C187.558 34.3057 185.939 32.6865 183.942 32.6865Z" fill="#7C7C7C"/>
<path d="M183.485 34.0488H159.628C158.13 34.0488 156.916 35.2632 156.916 36.7612V141.653C156.916 143.151 158.13 144.366 159.628 144.366H183.485C184.983 144.366 186.198 143.151 186.198 141.653V36.7612C186.198 35.2632 184.983 34.0488 183.485 34.0488Z" fill="#EFEFEF"/>
<path d="M249.682 90.1686C250.056 89.9924 250.503 90.1536 250.679 90.5285L253.549 96.6379C253.725 97.0128 253.564 97.4595 253.189 97.6356C252.815 97.8118 252.368 97.6506 252.192 97.2757L249.641 91.8451L244.21 94.3963C243.835 94.5724 243.388 94.4113 243.212 94.0364C243.036 93.6615 243.197 93.2148 243.572 93.0386L249.682 90.1686ZM175.32 128.721C183.897 132.752 197.901 135.691 211.983 131.405C226.02 127.134 240.257 115.646 249.295 90.5929L250.706 91.1019C241.533 116.53 226.976 128.41 212.419 132.84C197.907 137.257 183.517 134.231 174.682 130.079L175.32 128.721Z" fill="#F55252"/>
<circle cx="171.5" cy="122.5" r="3.5" fill="#58E79E"/>
<defs>
<linearGradient id="paint0_linear_850_776" x1="173.258" y1="150.494" x2="173.258" y2="2.04297" gradientUnits="userSpaceOnUse">
<stop stop-color="#EAE8E7"/>
<stop offset="1" stop-color="#DADAD2"/>
</linearGradient>
</defs>
</svg>
