<svg width="30" height="30" viewBox="0 0 30 30" fill="none" xmlns="http://www.w3.org/2000/svg">
<path d="M13.863 18.1251H16.137L15.4279 14.0265C15.7965 13.9031 16.1018 13.69 16.3438 13.3873C16.5857 13.0846 16.7067 12.7408 16.7067 12.3558C16.7067 11.8821 16.5405 11.4792 16.208 11.1471C15.8755 10.8151 15.4721 10.6491 14.9977 10.6491C14.5233 10.6491 14.1206 10.8151 13.7897 11.1471C13.4587 11.4792 13.2933 11.8821 13.2933 12.3558C13.2933 12.7408 13.4143 13.0846 13.6562 13.3873C13.8982 13.69 14.2035 13.9031 14.5721 14.0265L13.863 18.1251ZM15 26.1948C12.484 25.4336 10.3966 23.8931 8.73797 21.5734C7.07932 19.2537 6.25 16.6547 6.25 13.7765V7.10821L15 3.83899L23.75 7.10821V13.7765C23.75 16.6547 22.9207 19.2537 21.262 21.5734C19.6034 23.8931 17.516 25.4336 15 26.1948ZM15 25.1707C17.2676 24.4432 19.1326 23.0165 20.595 20.8907C22.0573 18.7649 22.7885 16.3935 22.7885 13.7765V7.77168L15 4.85343L7.21153 7.77168V13.7765C7.21153 16.3935 7.9427 18.7649 9.40503 20.8907C10.8674 23.0165 12.7324 24.4432 15 25.1707Z" fill="#232323"/>
</svg>
