<svg width="28" height="28" viewBox="0 0 28 28" fill="none" xmlns="http://www.w3.org/2000/svg">
<path d="M11.93 23L11.48 20.165C11.195 20.06 10.895 19.9175 10.58 19.7375C10.265 19.5575 9.9875 19.37 9.7475 19.175L7.0925 20.39L5 16.7L7.43 14.9225C7.4 14.7875 7.38125 14.6337 7.37375 14.4613C7.36625 14.2888 7.3625 14.135 7.3625 14C7.3625 13.865 7.36625 13.7113 7.37375 13.5388C7.38125 13.3663 7.4 13.2125 7.43 13.0775L5 11.3L7.0925 7.61L9.7475 8.825C9.9875 8.63 10.265 8.4425 10.58 8.2625C10.895 8.0825 11.195 7.9475 11.48 7.8575L11.93 5H16.07L16.52 7.835C16.805 7.94 17.1088 8.07875 17.4313 8.25125C17.7538 8.42375 18.0275 8.615 18.2525 8.825L20.9075 7.61L23 11.3L20.57 13.0325C20.6 13.1825 20.6188 13.3438 20.6263 13.5163C20.6338 13.6888 20.6375 13.85 20.6375 14C20.6375 14.15 20.6338 14.3075 20.6263 14.4725C20.6188 14.6375 20.6 14.795 20.57 14.945L23 16.7L20.9075 20.39L18.2525 19.175C18.0125 19.37 17.7388 19.5613 17.4313 19.7488C17.1238 19.9363 16.82 20.075 16.52 20.165L16.07 23H11.93ZM14 16.925C14.81 16.925 15.5 16.64 16.07 16.07C16.64 15.5 16.925 14.81 16.925 14C16.925 13.19 16.64 12.5 16.07 11.93C15.5 11.36 14.81 11.075 14 11.075C13.19 11.075 12.5 11.36 11.93 11.93C11.36 12.5 11.075 13.19 11.075 14C11.075 14.81 11.36 15.5 11.93 16.07C12.5 16.64 13.19 16.925 14 16.925ZM14 15.575C13.565 15.575 13.1938 15.4213 12.8863 15.1138C12.5788 14.8063 12.425 14.435 12.425 14C12.425 13.565 12.5788 13.1938 12.8863 12.8863C13.1938 12.5788 13.565 12.425 14 12.425C14.435 12.425 14.8063 12.5788 15.1138 12.8863C15.4213 13.1938 15.575 13.565 15.575 14C15.575 14.435 15.4213 14.8063 15.1138 15.1138C14.8063 15.4213 14.435 15.575 14 15.575ZM13.01 21.65H14.99L15.305 19.13C15.8 19.01 16.2688 18.8225 16.7113 18.5675C17.1538 18.3125 17.555 18.005 17.915 17.645L20.3 18.68L21.2 17.06L19.085 15.5075C19.145 15.2525 19.1938 15.0013 19.2313 14.7538C19.2688 14.5063 19.2875 14.255 19.2875 14C19.2875 13.745 19.2725 13.4938 19.2425 13.2463C19.2125 12.9988 19.16 12.7475 19.085 12.4925L21.2 10.94L20.3 9.32L17.915 10.355C17.57 9.965 17.18 9.63875 16.745 9.37625C16.31 9.11375 15.83 8.945 15.305 8.87L14.99 6.35H13.01L12.695 8.87C12.185 8.975 11.7088 9.155 11.2663 9.41C10.8238 9.665 10.43 9.98 10.085 10.355L7.7 9.32L6.8 10.94L8.915 12.4925C8.855 12.7475 8.80625 12.9988 8.76875 13.2463C8.73125 13.4938 8.7125 13.745 8.7125 14C8.7125 14.255 8.73125 14.5063 8.76875 14.7538C8.80625 15.0013 8.855 15.2525 8.915 15.5075L6.8 17.06L7.7 18.68L10.085 17.645C10.445 18.005 10.8463 18.3125 11.2888 18.5675C11.7313 18.8225 12.2 19.01 12.695 19.13L13.01 21.65Z" fill="white"/>
</svg>
