<svg width="24" height="24" viewBox="0 0 24 24" fill="none" xmlns="http://www.w3.org/2000/svg">
<path d="M18.0023 21.5C17.3084 21.5 16.7179 21.2569 16.2308 20.7708C15.7436 20.2847 15.5 19.6945 15.5 19C15.5 18.867 15.5115 18.7293 15.5346 18.5868C15.5577 18.4443 15.5923 18.3103 15.6385 18.1846L7.89615 13.6231C7.65128 13.8987 7.36667 14.1138 7.0423 14.2683C6.71795 14.4228 6.37052 14.5 6 14.5C5.30555 14.5 4.71528 14.2572 4.22918 13.7715C3.74306 13.2858 3.5 12.6961 3.5 12.0022C3.5 11.3084 3.74306 10.7179 4.22918 10.2308C4.71528 9.74359 5.30555 9.5 6 9.5C6.37052 9.5 6.71795 9.57724 7.0423 9.73172C7.36667 9.88621 7.65128 10.1013 7.89615 10.3769L15.6385 5.81537C15.5923 5.68974 15.5577 5.55568 15.5346 5.4132C15.5115 5.27072 15.5 5.13298 15.5 5C15.5 4.30555 15.7428 3.71527 16.2285 3.22917C16.7142 2.74306 17.3039 2.5 17.9977 2.5C18.6916 2.5 19.2821 2.74283 19.7692 3.2285C20.2564 3.71418 20.5 4.30392 20.5 4.99773C20.5 5.69156 20.2569 6.28206 19.7708 6.76922C19.2847 7.25641 18.6945 7.5 18 7.5C17.6295 7.5 17.2821 7.42276 16.9577 7.26828C16.6333 7.11379 16.3487 6.89872 16.1039 6.62307L8.36155 11.1846C8.4077 11.3103 8.44232 11.4439 8.4654 11.5855C8.48847 11.727 8.5 11.8639 8.5 11.996C8.5 12.1282 8.48847 12.2663 8.4654 12.4106C8.44232 12.5548 8.4077 12.6897 8.36155 12.8154L16.1039 17.3769C16.3487 17.1013 16.6333 16.8862 16.9577 16.7317C17.2821 16.5772 17.6295 16.5 18 16.5C18.6945 16.5 19.2847 16.7428 19.7708 17.2285C20.2569 17.7142 20.5 18.3039 20.5 18.9978C20.5 19.6916 20.2572 20.2821 19.7715 20.7692C19.2858 21.2564 18.6961 21.5 18.0023 21.5Z" fill="white"/>
</svg>
