<svg width="269" height="269" viewBox="0 0 269 269" fill="none" xmlns="http://www.w3.org/2000/svg">
<g filter="url(#filter0_d_1120_1072)">
<circle cx="134.5" cy="134.5" r="108.5" fill="white"/>
</g>
<path d="M71.7172 197.283C69.4866 199.513 65.8555 199.524 63.7637 197.163C52.6804 184.652 45.0897 169.396 41.8157 152.936C38.1694 134.605 40.0408 115.604 47.1933 98.3364C54.3458 81.0688 66.4581 66.3099 81.9985 55.9261C97.5389 45.5423 115.81 40 134.5 40C153.19 40 171.461 45.5423 187.001 55.9261C202.542 66.3099 214.654 81.0688 221.807 98.3364C228.959 115.604 230.83 134.605 227.184 152.936C223.91 169.396 216.319 184.652 205.236 197.163C203.144 199.524 199.513 199.513 197.283 197.283C195.052 195.052 195.069 191.448 197.141 189.069C206.637 178.169 213.147 164.951 215.98 150.707C219.185 134.592 217.54 117.888 211.252 102.708C204.965 87.5279 194.316 74.5531 180.655 65.4246C166.993 56.296 150.931 51.4237 134.5 51.4237C118.069 51.4237 102.007 56.296 88.3452 65.4246C74.6833 74.5531 64.0352 87.5279 57.7474 102.708C51.4595 117.888 49.8144 134.592 53.0199 150.707C55.853 164.951 62.363 178.169 71.859 189.069C73.9311 191.448 73.9478 195.052 71.7172 197.283Z" fill="black" fill-opacity="0.1"/>
<path d="M107.687 195.812C107.308 196.192 106.691 196.193 106.321 195.804C101.252 190.475 97.7937 183.813 96.3564 176.587C94.8557 169.043 95.6259 161.224 98.5695 154.117C101.513 147.011 106.498 140.937 112.893 136.663C119.289 132.39 126.808 130.109 134.5 130.109C142.192 130.109 149.711 132.39 156.106 136.663C162.502 140.937 167.487 147.011 170.43 154.117C173.374 161.224 174.144 169.043 172.643 176.587C171.206 183.813 167.747 190.475 162.679 195.804C162.309 196.193 161.692 196.192 161.312 195.812C160.933 195.433 160.934 194.818 161.303 194.428C166.1 189.372 169.374 183.057 170.736 176.208C172.162 169.041 171.43 161.612 168.634 154.861C165.837 148.11 161.102 142.34 155.026 138.28C148.95 134.221 141.807 132.054 134.5 132.054C127.193 132.054 120.049 134.221 113.974 138.28C107.898 142.34 103.162 148.11 100.366 154.861C97.5696 161.612 96.8379 169.041 98.2635 176.208C99.6258 183.057 102.9 189.372 107.696 194.428C108.066 194.818 108.067 195.433 107.687 195.812Z" fill="black" fill-opacity="0.1"/>
<path d="M114.703 73.6526L144.483 157.222C146.626 163.235 143.033 169.768 136.808 171.179C130.583 172.59 124.525 168.244 123.866 161.896L114.703 73.6526Z" fill="#62D69F"/>
<mask id="path-5-inside-1_1120_1072" fill="white">
<path d="M71.7172 197.283C69.4866 199.513 65.8555 199.524 63.7637 197.163C54.1109 186.267 47.088 173.266 43.2753 159.164C38.9647 143.221 38.9079 126.426 43.1106 110.453C47.3133 94.481 55.6287 79.889 67.228 68.1318C77.4877 57.7324 89.9995 49.872 103.765 45.1376C106.748 44.1117 109.904 45.9083 110.748 48.9479C111.591 51.9875 109.803 55.1168 106.829 56.1675C94.9839 60.3517 84.2174 67.177 75.3602 76.1547C65.1631 86.4907 57.8529 99.3187 54.1582 113.36C50.4636 127.402 50.5135 142.166 54.303 156.183C57.5946 168.357 63.6076 179.597 71.859 189.069C73.9312 191.448 73.9478 195.052 71.7172 197.283Z"/>
</mask>
<path d="M71.7172 197.283C69.4866 199.513 65.8555 199.524 63.7637 197.163C54.1109 186.267 47.088 173.266 43.2753 159.164C38.9647 143.221 38.9079 126.426 43.1106 110.453C47.3133 94.481 55.6287 79.889 67.228 68.1318C77.4877 57.7324 89.9995 49.872 103.765 45.1376C106.748 44.1117 109.904 45.9083 110.748 48.9479C111.591 51.9875 109.803 55.1168 106.829 56.1675C94.9839 60.3517 84.2174 67.177 75.3602 76.1547C65.1631 86.4907 57.8529 99.3187 54.1582 113.36C50.4636 127.402 50.5135 142.166 54.303 156.183C57.5946 168.357 63.6076 179.597 71.859 189.069C73.9312 191.448 73.9478 195.052 71.7172 197.283Z" fill="#62D69F" stroke="#62D69F" stroke-width="2" mask="url(#path-5-inside-1_1120_1072)"/>
<circle cx="134.5" cy="162.5" r="3.5" fill="white"/>
<path d="M74.78 181H73.82V176.43H72.25V175.74C72.69 175.733 73.06 175.62 73.36 175.4C73.66 175.173 73.8467 174.88 73.92 174.52H74.78V181ZM77.6142 175.66C77.2342 176.06 77.0442 176.76 77.0442 177.76C77.0442 178.76 77.2342 179.46 77.6142 179.86C77.8809 180.14 78.2242 180.28 78.6442 180.28C79.0642 180.28 79.4076 180.14 79.6742 179.86C80.0542 179.46 80.2442 178.76 80.2442 177.76C80.2442 176.76 80.0542 176.06 79.6742 175.66C79.4076 175.38 79.0642 175.24 78.6442 175.24C78.2242 175.24 77.8809 175.38 77.6142 175.66ZM76.6542 180.11C76.2676 179.537 76.0742 178.753 76.0742 177.76C76.0742 176.767 76.2676 175.983 76.6542 175.41C77.1142 174.717 77.7776 174.37 78.6442 174.37C79.5109 174.37 80.1742 174.717 80.6342 175.41C81.0209 175.983 81.2142 176.767 81.2142 177.76C81.2142 178.753 81.0209 179.537 80.6342 180.11C80.1742 180.803 79.5109 181.15 78.6442 181.15C77.7776 181.15 77.1142 180.803 76.6542 180.11Z" fill="#232323"/>
<path d="M63.41 144.85L62.43 144.73C62.4233 144.67 62.42 144.583 62.42 144.47C62.42 143.89 62.6233 143.397 63.03 142.99C63.4367 142.577 63.98 142.37 64.66 142.37C65.3333 142.37 65.8667 142.563 66.26 142.95C66.6533 143.33 66.85 143.8 66.85 144.36C66.85 145.18 66.4433 145.847 65.63 146.36L64.35 147.18C63.89 147.473 63.6267 147.777 63.56 148.09H66.89V149H62.35C62.3633 148.453 62.4867 147.973 62.72 147.56C62.96 147.147 63.35 146.767 63.89 146.42L64.97 145.72C65.5633 145.34 65.86 144.89 65.86 144.37C65.86 144.05 65.7533 143.78 65.54 143.56C65.3267 143.34 65.0267 143.23 64.64 143.23C64.2333 143.23 63.9233 143.353 63.71 143.6C63.4967 143.847 63.39 144.167 63.39 144.56C63.39 144.62 63.3967 144.717 63.41 144.85ZM69.333 143.66C68.953 144.06 68.763 144.76 68.763 145.76C68.763 146.76 68.953 147.46 69.333 147.86C69.5996 148.14 69.943 148.28 70.363 148.28C70.783 148.28 71.1263 148.14 71.393 147.86C71.773 147.46 71.963 146.76 71.963 145.76C71.963 144.76 71.773 144.06 71.393 143.66C71.1263 143.38 70.783 143.24 70.363 143.24C69.943 143.24 69.5996 143.38 69.333 143.66ZM68.373 148.11C67.9863 147.537 67.793 146.753 67.793 145.76C67.793 144.767 67.9863 143.983 68.373 143.41C68.833 142.717 69.4963 142.37 70.363 142.37C71.2296 142.37 71.893 142.717 72.353 143.41C72.7396 143.983 72.933 144.767 72.933 145.76C72.933 146.753 72.7396 147.537 72.353 148.11C71.893 148.803 71.2296 149.15 70.363 149.15C69.4963 149.15 68.833 148.803 68.373 148.11Z" fill="#232323"/>
<path d="M64.25 110.99L63.77 110.18L65.68 108.42H62.58V107.52H66.98V108.4L65.13 110.11C65.6567 110.11 66.12 110.283 66.52 110.63C66.9267 110.977 67.13 111.46 67.13 112.08C67.13 112.653 66.92 113.143 66.5 113.55C66.08 113.957 65.5067 114.16 64.78 114.16C64.0667 114.16 63.4933 113.963 63.06 113.57C62.6333 113.17 62.4033 112.687 62.37 112.12L63.33 111.9C63.35 112.32 63.4933 112.66 63.76 112.92C64.0333 113.173 64.37 113.3 64.77 113.3C65.1967 113.3 65.53 113.187 65.77 112.96C66.0167 112.727 66.14 112.44 66.14 112.1C66.14 111.707 66.01 111.407 65.75 111.2C65.49 110.993 65.18 110.89 64.82 110.89C64.6267 110.89 64.4367 110.923 64.25 110.99ZM69.5673 108.66C69.1873 109.06 68.9973 109.76 68.9973 110.76C68.9973 111.76 69.1873 112.46 69.5673 112.86C69.834 113.14 70.1773 113.28 70.5973 113.28C71.0173 113.28 71.3607 113.14 71.6273 112.86C72.0073 112.46 72.1973 111.76 72.1973 110.76C72.1973 109.76 72.0073 109.06 71.6273 108.66C71.3607 108.38 71.0173 108.24 70.5973 108.24C70.1773 108.24 69.834 108.38 69.5673 108.66ZM68.6073 113.11C68.2207 112.537 68.0273 111.753 68.0273 110.76C68.0273 109.767 68.2207 108.983 68.6073 108.41C69.0673 107.717 69.7307 107.37 70.5973 107.37C71.464 107.37 72.1273 107.717 72.5873 108.41C72.974 108.983 73.1673 109.767 73.1673 110.76C73.1673 111.753 72.974 112.537 72.5873 113.11C72.1273 113.803 71.464 114.15 70.5973 114.15C69.7307 114.15 69.0673 113.803 68.6073 113.11Z" fill="#232323"/>
<path d="M83.35 84.54V83.41L86.13 79.52H87.48V83.63H88.59V84.54H87.48V86H86.53V84.54H83.35ZM86.53 83.63V80.46L84.25 83.63H86.53ZM90.7822 80.66C90.4022 81.06 90.2122 81.76 90.2122 82.76C90.2122 83.76 90.4022 84.46 90.7822 84.86C91.0489 85.14 91.3922 85.28 91.8122 85.28C92.2322 85.28 92.5755 85.14 92.8422 84.86C93.2222 84.46 93.4122 83.76 93.4122 82.76C93.4122 81.76 93.2222 81.06 92.8422 80.66C92.5755 80.38 92.2322 80.24 91.8122 80.24C91.3922 80.24 91.0489 80.38 90.7822 80.66ZM89.8222 85.11C89.4355 84.5367 89.2422 83.7533 89.2422 82.76C89.2422 81.7667 89.4355 80.9833 89.8222 80.41C90.2822 79.7167 90.9455 79.37 91.8122 79.37C92.6789 79.37 93.3422 79.7167 93.8022 80.41C94.1889 80.9833 94.3822 81.7667 94.3822 82.76C94.3822 83.7533 94.1889 84.5367 93.8022 85.11C93.3422 85.8033 92.6789 86.15 91.8122 86.15C90.9455 86.15 90.2822 85.8033 89.8222 85.11Z" fill="#232323"/>
<path d="M108.35 67.24L109.29 66.96C109.317 67.36 109.463 67.6833 109.73 67.93C110.003 68.1767 110.343 68.3 110.75 68.3C111.143 68.3 111.473 68.18 111.74 67.94C112.007 67.7 112.14 67.3833 112.14 66.99C112.14 66.5633 112.007 66.2333 111.74 66C111.473 65.7667 111.14 65.65 110.74 65.65C110.253 65.65 109.86 65.8067 109.56 66.12C109.467 66.0867 109.313 66.0267 109.1 65.94C108.887 65.8533 108.72 65.7867 108.6 65.74L109.44 62.52H112.86V63.42H110.09L109.61 65.28C109.897 64.96 110.337 64.8 110.93 64.8C111.577 64.8 112.103 64.9933 112.51 65.38C112.923 65.7667 113.13 66.29 113.13 66.95C113.13 67.5767 112.91 68.1033 112.47 68.53C112.03 68.95 111.457 69.16 110.75 69.16C110.083 69.16 109.527 68.9733 109.08 68.6C108.64 68.2267 108.397 67.7733 108.35 67.24ZM115.519 63.66C115.139 64.06 114.949 64.76 114.949 65.76C114.949 66.76 115.139 67.46 115.519 67.86C115.785 68.14 116.129 68.28 116.549 68.28C116.969 68.28 117.312 68.14 117.579 67.86C117.959 67.46 118.149 66.76 118.149 65.76C118.149 64.76 117.959 64.06 117.579 63.66C117.312 63.38 116.969 63.24 116.549 63.24C116.129 63.24 115.785 63.38 115.519 63.66ZM114.559 68.11C114.172 67.5367 113.979 66.7533 113.979 65.76C113.979 64.7667 114.172 63.9833 114.559 63.41C115.019 62.7167 115.682 62.37 116.549 62.37C117.415 62.37 118.079 62.7167 118.539 63.41C118.925 63.9833 119.119 64.7667 119.119 65.76C119.119 66.7533 118.925 67.5367 118.539 68.11C118.079 68.8033 117.415 69.15 116.549 69.15C115.682 69.15 115.019 68.8033 114.559 68.11Z" fill="#232323"/>
<path d="M108.35 67.24L109.29 66.96C109.317 67.36 109.463 67.6833 109.73 67.93C110.003 68.1767 110.343 68.3 110.75 68.3C111.143 68.3 111.473 68.18 111.74 67.94C112.007 67.7 112.14 67.3833 112.14 66.99C112.14 66.5633 112.007 66.2333 111.74 66C111.473 65.7667 111.14 65.65 110.74 65.65C110.253 65.65 109.86 65.8067 109.56 66.12C109.467 66.0867 109.313 66.0267 109.1 65.94C108.887 65.8533 108.72 65.7867 108.6 65.74L109.44 62.52H112.86V63.42H110.09L109.61 65.28C109.897 64.96 110.337 64.8 110.93 64.8C111.577 64.8 112.103 64.9933 112.51 65.38C112.923 65.7667 113.13 66.29 113.13 66.95C113.13 67.5767 112.91 68.1033 112.47 68.53C112.03 68.95 111.457 69.16 110.75 69.16C110.083 69.16 109.527 68.9733 109.08 68.6C108.64 68.2267 108.397 67.7733 108.35 67.24ZM115.519 63.66C115.139 64.06 114.949 64.76 114.949 65.76C114.949 66.76 115.139 67.46 115.519 67.86C115.785 68.14 116.129 68.28 116.549 68.28C116.969 68.28 117.312 68.14 117.579 67.86C117.959 67.46 118.149 66.76 118.149 65.76C118.149 64.76 117.959 64.06 117.579 63.66C117.312 63.38 116.969 63.24 116.549 63.24C116.129 63.24 115.785 63.38 115.519 63.66ZM114.559 68.11C114.172 67.5367 113.979 66.7533 113.979 65.76C113.979 64.7667 114.172 63.9833 114.559 63.41C115.019 62.7167 115.682 62.37 116.549 62.37C117.415 62.37 118.079 62.7167 118.539 63.41C118.925 63.9833 119.119 64.7667 119.119 65.76C119.119 66.7533 118.925 67.5367 118.539 68.11C118.079 68.8033 117.415 69.15 116.549 69.15C115.682 69.15 115.019 68.8033 114.559 68.11Z" fill="#232323"/>
<path d="M156.25 62.73L155.95 63.53C155.63 63.3433 155.243 63.25 154.79 63.25C154.13 63.25 153.593 63.4667 153.18 63.9C152.773 64.3333 152.55 64.89 152.51 65.57C152.657 65.33 152.877 65.13 153.17 64.97C153.47 64.81 153.82 64.73 154.22 64.73C154.88 64.73 155.413 64.9267 155.82 65.32C156.233 65.7133 156.44 66.2533 156.44 66.94C156.44 67.6133 156.207 68.15 155.74 68.55C155.273 68.95 154.707 69.15 154.04 69.15C153.347 69.15 152.75 68.9 152.25 68.4C151.757 67.8933 151.51 67.1433 151.51 66.15C151.51 64.9767 151.823 64.0533 152.45 63.38C153.077 62.7067 153.877 62.37 154.85 62.37C155.443 62.37 155.91 62.49 156.25 62.73ZM152.65 66.94C152.65 67.3467 152.79 67.6767 153.07 67.93C153.35 68.1767 153.677 68.3 154.05 68.3C154.443 68.3 154.773 68.1767 155.04 67.93C155.313 67.6833 155.45 67.3533 155.45 66.94C155.45 66.52 155.313 66.1867 155.04 65.94C154.773 65.6933 154.443 65.57 154.05 65.57C153.657 65.57 153.323 65.6933 153.05 65.94C152.783 66.1867 152.65 66.52 152.65 66.94ZM158.841 63.66C158.461 64.06 158.271 64.76 158.271 65.76C158.271 66.76 158.461 67.46 158.841 67.86C159.107 68.14 159.451 68.28 159.871 68.28C160.291 68.28 160.634 68.14 160.901 67.86C161.281 67.46 161.471 66.76 161.471 65.76C161.471 64.76 161.281 64.06 160.901 63.66C160.634 63.38 160.291 63.24 159.871 63.24C159.451 63.24 159.107 63.38 158.841 63.66ZM157.881 68.11C157.494 67.5367 157.301 66.7533 157.301 65.76C157.301 64.7667 157.494 63.9833 157.881 63.41C158.341 62.7167 159.004 62.37 159.871 62.37C160.737 62.37 161.401 62.7167 161.861 63.41C162.247 63.9833 162.441 64.7667 162.441 65.76C162.441 66.7533 162.247 67.5367 161.861 68.11C161.401 68.8033 160.737 69.15 159.871 69.15C159.004 69.15 158.341 68.8033 157.881 68.11Z" fill="#232323"/>
<path d="M179.78 79.52V80.46C179.613 80.5933 179.45 80.7367 179.29 80.89C179.13 81.0433 178.917 81.29 178.65 81.63C178.39 81.97 178.16 82.33 177.96 82.71C177.76 83.09 177.57 83.5733 177.39 84.16C177.217 84.74 177.1 85.3533 177.04 86H176.03C176.07 85.4867 176.15 84.99 176.27 84.51C176.39 84.0233 176.53 83.6 176.69 83.24C176.85 82.88 177.02 82.5433 177.2 82.23C177.387 81.91 177.567 81.6433 177.74 81.43C177.92 81.21 178.08 81.0233 178.22 80.87C178.367 80.7167 178.483 80.6033 178.57 80.53L178.7 80.42H175.05V79.52H179.78ZM181.62 80.66C181.24 81.06 181.05 81.76 181.05 82.76C181.05 83.76 181.24 84.46 181.62 84.86C181.887 85.14 182.23 85.28 182.65 85.28C183.07 85.28 183.413 85.14 183.68 84.86C184.06 84.46 184.25 83.76 184.25 82.76C184.25 81.76 184.06 81.06 183.68 80.66C183.413 80.38 183.07 80.24 182.65 80.24C182.23 80.24 181.887 80.38 181.62 80.66ZM180.66 85.11C180.273 84.5367 180.08 83.7533 180.08 82.76C180.08 81.7667 180.273 80.9833 180.66 80.41C181.12 79.7167 181.783 79.37 182.65 79.37C183.517 79.37 184.18 79.7167 184.64 80.41C185.027 80.9833 185.22 81.7667 185.22 82.76C185.22 83.7533 185.027 84.5367 184.64 85.11C184.18 85.8033 183.517 86.15 182.65 86.15C181.783 86.15 181.12 85.8033 180.66 85.11Z" fill="#232323"/>
<path d="M196.8 110.28C197.147 110.273 197.433 110.173 197.66 109.98C197.887 109.787 198 109.533 198 109.22C198 108.927 197.89 108.68 197.67 108.48C197.45 108.28 197.16 108.18 196.8 108.18C196.44 108.18 196.15 108.28 195.93 108.48C195.71 108.68 195.6 108.927 195.6 109.22C195.6 109.533 195.713 109.787 195.94 109.98C196.167 110.173 196.453 110.273 196.8 110.28ZM195.8 112.99C196.047 113.197 196.38 113.3 196.8 113.3C197.22 113.3 197.55 113.197 197.79 112.99C198.037 112.783 198.16 112.523 198.16 112.21C198.16 111.89 198.037 111.627 197.79 111.42C197.55 111.207 197.22 111.1 196.8 111.1C196.38 111.1 196.047 111.207 195.8 111.42C195.56 111.627 195.44 111.89 195.44 112.21C195.44 112.523 195.56 112.783 195.8 112.99ZM198.52 113.63C198.1 113.977 197.527 114.15 196.8 114.15C196.073 114.15 195.5 113.977 195.08 113.63C194.66 113.277 194.45 112.83 194.45 112.29C194.45 111.91 194.563 111.58 194.79 111.3C195.023 111.013 195.32 110.81 195.68 110.69C195.373 110.577 195.12 110.383 194.92 110.11C194.72 109.83 194.62 109.517 194.62 109.17C194.62 108.643 194.827 108.213 195.24 107.88C195.653 107.54 196.173 107.37 196.8 107.37C197.427 107.37 197.947 107.54 198.36 107.88C198.773 108.213 198.98 108.643 198.98 109.17C198.98 109.51 198.88 109.82 198.68 110.1C198.48 110.38 198.227 110.577 197.92 110.69C198.28 110.803 198.573 111.003 198.8 111.29C199.033 111.577 199.15 111.91 199.15 112.29C199.15 112.83 198.94 113.277 198.52 113.63ZM201.587 108.66C201.207 109.06 201.017 109.76 201.017 110.76C201.017 111.76 201.207 112.46 201.587 112.86C201.854 113.14 202.197 113.28 202.617 113.28C203.037 113.28 203.38 113.14 203.647 112.86C204.027 112.46 204.217 111.76 204.217 110.76C204.217 109.76 204.027 109.06 203.647 108.66C203.38 108.38 203.037 108.24 202.617 108.24C202.197 108.24 201.854 108.38 201.587 108.66ZM200.627 113.11C200.24 112.537 200.047 111.753 200.047 110.76C200.047 109.767 200.24 108.983 200.627 108.41C201.087 107.717 201.75 107.37 202.617 107.37C203.484 107.37 204.147 107.717 204.607 108.41C204.994 108.983 205.187 109.767 205.187 110.76C205.187 111.753 204.994 112.537 204.607 113.11C204.147 113.803 203.484 114.15 202.617 114.15C201.75 114.15 201.087 113.803 200.627 113.11Z" fill="#232323"/>
<path d="M194.57 148.77L194.89 147.96C195.23 148.167 195.623 148.27 196.07 148.27C196.81 148.27 197.363 148.06 197.73 147.64C198.103 147.213 198.3 146.657 198.32 145.97C198.193 146.203 197.983 146.4 197.69 146.56C197.403 146.72 197.053 146.8 196.64 146.8C196.04 146.8 195.517 146.607 195.07 146.22C194.623 145.827 194.4 145.29 194.4 144.61C194.4 143.957 194.633 143.42 195.1 143C195.573 142.58 196.137 142.37 196.79 142.37C197.483 142.37 198.077 142.623 198.57 143.13C199.063 143.637 199.31 144.377 199.31 145.35C199.31 146.563 199.037 147.5 198.49 148.16C197.95 148.82 197.143 149.15 196.07 149.15C195.817 149.15 195.543 149.113 195.25 149.04C194.957 148.967 194.73 148.877 194.57 148.77ZM198.19 144.59C198.19 144.19 198.05 143.863 197.77 143.61C197.49 143.357 197.163 143.23 196.79 143.23C196.41 143.23 196.08 143.357 195.8 143.61C195.527 143.857 195.39 144.183 195.39 144.59C195.39 145.01 195.527 145.343 195.8 145.59C196.073 145.837 196.403 145.96 196.79 145.96C197.17 145.96 197.497 145.837 197.77 145.59C198.05 145.337 198.19 145.003 198.19 144.59ZM201.802 143.66C201.422 144.06 201.232 144.76 201.232 145.76C201.232 146.76 201.422 147.46 201.802 147.86C202.068 148.14 202.412 148.28 202.832 148.28C203.252 148.28 203.595 148.14 203.862 147.86C204.242 147.46 204.432 146.76 204.432 145.76C204.432 144.76 204.242 144.06 203.862 143.66C203.595 143.38 203.252 143.24 202.832 143.24C202.412 143.24 202.068 143.38 201.802 143.66ZM200.842 148.11C200.455 147.537 200.262 146.753 200.262 145.76C200.262 144.767 200.455 143.983 200.842 143.41C201.302 142.717 201.965 142.37 202.832 142.37C203.698 142.37 204.362 142.717 204.822 143.41C205.208 143.983 205.402 144.767 205.402 145.76C205.402 146.753 205.208 147.537 204.822 148.11C204.362 148.803 203.698 149.15 202.832 149.15C201.965 149.15 201.302 148.803 200.842 148.11Z" fill="#232323"/>
<path d="M185.78 181H184.82V176.43H183.25V175.74C183.69 175.733 184.06 175.62 184.36 175.4C184.66 175.173 184.847 174.88 184.92 174.52H185.78V181ZM188.614 175.66C188.234 176.06 188.044 176.76 188.044 177.76C188.044 178.76 188.234 179.46 188.614 179.86C188.881 180.14 189.224 180.28 189.644 180.28C190.064 180.28 190.408 180.14 190.674 179.86C191.054 179.46 191.244 178.76 191.244 177.76C191.244 176.76 191.054 176.06 190.674 175.66C190.408 175.38 190.064 175.24 189.644 175.24C189.224 175.24 188.881 175.38 188.614 175.66ZM187.654 180.11C187.268 179.537 187.074 178.753 187.074 177.76C187.074 176.767 187.268 175.983 187.654 175.41C188.114 174.717 188.778 174.37 189.644 174.37C190.511 174.37 191.174 174.717 191.634 175.41C192.021 175.983 192.214 176.767 192.214 177.76C192.214 178.753 192.021 179.537 191.634 180.11C191.174 180.803 190.511 181.15 189.644 181.15C188.778 181.15 188.114 180.803 187.654 180.11ZM194.708 175.66C194.328 176.06 194.138 176.76 194.138 177.76C194.138 178.76 194.328 179.46 194.708 179.86C194.975 180.14 195.318 180.28 195.738 180.28C196.158 180.28 196.501 180.14 196.768 179.86C197.148 179.46 197.338 178.76 197.338 177.76C197.338 176.76 197.148 176.06 196.768 175.66C196.501 175.38 196.158 175.24 195.738 175.24C195.318 175.24 194.975 175.38 194.708 175.66ZM193.748 180.11C193.361 179.537 193.168 178.753 193.168 177.76C193.168 176.767 193.361 175.983 193.748 175.41C194.208 174.717 194.871 174.37 195.738 174.37C196.605 174.37 197.268 174.717 197.728 175.41C198.115 175.983 198.308 176.767 198.308 177.76C198.308 178.753 198.115 179.537 197.728 180.11C197.268 180.803 196.605 181.15 195.738 181.15C194.871 181.15 194.208 180.803 193.748 180.11Z" fill="#232323"/>
<defs>
<filter id="filter0_d_1120_1072" x="11" y="11" width="247" height="247" filterUnits="userSpaceOnUse" color-interpolation-filters="sRGB">
<feFlood flood-opacity="0" result="BackgroundImageFix"/>
<feColorMatrix in="SourceAlpha" type="matrix" values="0 0 0 0 0 0 0 0 0 0 0 0 0 0 0 0 0 0 127 0" result="hardAlpha"/>
<feMorphology radius="5" operator="dilate" in="SourceAlpha" result="effect1_dropShadow_1120_1072"/>
<feOffset/>
<feGaussianBlur stdDeviation="5"/>
<feComposite in2="hardAlpha" operator="out"/>
<feColorMatrix type="matrix" values="0 0 0 0 0.113725 0 0 0 0 0.72549 0 0 0 0 0.329412 0 0 0 0.2 0"/>
<feBlend mode="normal" in2="BackgroundImageFix" result="effect1_dropShadow_1120_1072"/>
<feBlend mode="normal" in="SourceGraphic" in2="effect1_dropShadow_1120_1072" result="shape"/>
</filter>
</defs>
</svg>
