<svg width="34" height="34" viewBox="0 0 34 34" fill="none" xmlns="http://www.w3.org/2000/svg">
<path d="M15.0684 21.7677C15.4843 22.1927 16.0696 22.3784 16.8243 22.3248C17.5789 22.2712 18.1197 21.9965 18.4466 21.5007L25.7697 11.0745L15.3491 18.3949C14.8405 18.74 14.5626 19.2821 14.5154 20.0214C14.4682 20.7606 14.6525 21.3427 15.0684 21.7677ZM16.9564 7.09155C18.2478 7.09155 19.471 7.26454 20.6261 7.61051C21.7813 7.95651 22.9318 8.51547 24.0779 9.28739L23.1625 9.99845C22.209 9.38092 21.1969 8.92368 20.1262 8.62672C19.0555 8.32977 18.0012 8.18129 16.9632 8.18129C13.7323 8.18129 10.9873 9.32216 8.72826 11.6039C6.46924 13.8857 5.33974 16.6494 5.33974 19.8951C5.33974 20.9201 5.47823 21.9439 5.75521 22.9664C6.03219 23.9889 6.43555 24.9424 6.96529 25.827H26.9466C27.4842 24.9588 27.8929 23.9989 28.1726 22.9473C28.4523 21.8957 28.5922 20.845 28.5922 19.7952C28.5922 18.8762 28.4582 17.8668 28.1903 16.7671C27.9224 15.6674 27.4742 14.6698 26.8458 13.7744L27.5733 12.859C28.3615 14.1267 28.9027 15.305 29.197 16.3938C29.4912 17.4827 29.6528 18.5911 29.6819 19.7189C29.6928 20.954 29.5602 22.1064 29.2841 23.1762C29.0081 24.2459 28.5785 25.303 27.9955 26.3473C27.8575 26.5816 27.7063 26.7351 27.5419 26.8077C27.3775 26.8804 27.1591 26.9167 26.8867 26.9167H7.01795C6.81388 26.9167 6.61302 26.8572 6.41537 26.7383C6.21773 26.6193 6.06078 26.4527 5.94455 26.2383C5.47596 25.3956 5.07639 24.458 4.74583 23.4254C4.41528 22.3929 4.25 21.2155 4.25 19.8933C4.25 18.1515 4.5803 16.505 5.24089 14.9536C5.90148 13.4022 6.80188 12.0455 7.94208 10.8834C9.08229 9.72131 10.4287 8.79881 11.9813 8.11591C13.5339 7.433 15.1923 7.09155 16.9564 7.09155Z" fill="#232323"/>
</svg>
