<svg width="247" height="247" viewBox="0 0 247 247" fill="none" xmlns="http://www.w3.org/2000/svg">
<g filter="url(#filter0_d_428_1233)">
<circle cx="123.5" cy="123.5" r="108.5" fill="white"/>
</g>
<circle cx="123.5" cy="123.5" r="94" fill="white" stroke="#62D69F"/>
<path d="M105.044 106.28L102.812 106.964C102.728 106.508 102.5 106.094 102.128 105.722C101.756 105.35 101.21 105.164 100.49 105.164C99.902 105.164 99.422 105.326 99.05 105.65C98.678 105.962 98.492 106.34 98.492 106.784C98.492 107.564 98.954 108.044 99.878 108.224L101.66 108.566C102.788 108.782 103.664 109.232 104.288 109.916C104.912 110.6 105.224 111.404 105.224 112.328C105.224 113.384 104.804 114.308 103.964 115.1C103.136 115.88 102.02 116.27 100.616 116.27C99.812 116.27 99.086 116.15 98.438 115.91C97.79 115.67 97.268 115.352 96.872 114.956C96.476 114.548 96.164 114.122 95.936 113.678C95.72 113.222 95.588 112.754 95.54 112.274L97.844 111.662C97.904 112.346 98.168 112.916 98.636 113.372C99.116 113.828 99.782 114.056 100.634 114.056C101.282 114.056 101.786 113.912 102.146 113.624C102.518 113.336 102.704 112.958 102.704 112.49C102.704 112.118 102.566 111.8 102.29 111.536C102.026 111.26 101.648 111.074 101.156 110.978L99.374 110.618C98.342 110.402 97.526 109.976 96.926 109.34C96.326 108.704 96.026 107.912 96.026 106.964C96.026 105.836 96.458 104.888 97.322 104.12C98.198 103.352 99.248 102.968 100.472 102.968C101.204 102.968 101.858 103.07 102.434 103.274C103.01 103.478 103.472 103.754 103.82 104.102C104.168 104.438 104.438 104.786 104.63 105.146C104.822 105.506 104.96 105.884 105.044 106.28ZM116.682 105.596H112.65V116H110.148V105.596H106.116V103.238H116.682V105.596ZM125.911 116L124.849 113.084H119.665L118.603 116H115.975L120.871 103.238H123.751L128.611 116H125.911ZM122.257 105.992L120.493 110.816H124.021L122.257 105.992ZM136.543 116L134.041 111.086H132.745V116H130.243V103.238H135.229C136.453 103.238 137.437 103.61 138.181 104.354C138.925 105.098 139.297 106.034 139.297 107.162C139.297 108.05 139.051 108.818 138.559 109.466C138.079 110.102 137.419 110.54 136.579 110.78L139.315 116H136.543ZM132.745 108.944H134.761C135.385 108.944 135.871 108.782 136.219 108.458C136.579 108.134 136.759 107.708 136.759 107.18C136.759 106.64 136.579 106.208 136.219 105.884C135.871 105.56 135.385 105.398 134.761 105.398H132.745V108.944ZM150.889 105.596H146.857V116H144.355V105.596H140.323V103.238H150.889V105.596Z" fill="#62D69F"/>
<path d="M135.668 149L134.295 147.62L141.317 140.441H101V138.511H141.379L134.309 131.38L135.62 130L145 139.476L135.668 149Z" fill="#62D69F"/>
<defs>
<filter id="filter0_d_428_1233" x="0" y="0" width="247" height="247" filterUnits="userSpaceOnUse" color-interpolation-filters="sRGB">
<feFlood flood-opacity="0" result="BackgroundImageFix"/>
<feColorMatrix in="SourceAlpha" type="matrix" values="0 0 0 0 0 0 0 0 0 0 0 0 0 0 0 0 0 0 127 0" result="hardAlpha"/>
<feMorphology radius="5" operator="dilate" in="SourceAlpha" result="effect1_dropShadow_428_1233"/>
<feOffset/>
<feGaussianBlur stdDeviation="5"/>
<feComposite in2="hardAlpha" operator="out"/>
<feColorMatrix type="matrix" values="0 0 0 0 0.113725 0 0 0 0 0.72549 0 0 0 0 0.329412 0 0 0 0.2 0"/>
<feBlend mode="normal" in2="BackgroundImageFix" result="effect1_dropShadow_428_1233"/>
<feBlend mode="normal" in="SourceGraphic" in2="effect1_dropShadow_428_1233" result="shape"/>
</filter>
</defs>
</svg>
