<svg width="30" height="30" viewBox="0 0 30 30" fill="none" xmlns="http://www.w3.org/2000/svg">
<path d="M12.9183 26.25L12.4135 22.6731C11.9535 22.5273 11.4487 22.3013 10.899 21.9952C10.3494 21.6891 9.88383 21.3606 9.50241 21.0096L6.1995 22.5048L4.11057 18.7981L7.05288 16.6178C7.01121 16.3662 6.97716 16.1006 6.95072 15.8209C6.92428 15.5413 6.91107 15.2756 6.91107 15.024C6.91107 14.7885 6.92428 14.5309 6.95072 14.2512C6.97716 13.9715 7.01121 13.6819 7.05288 13.3822L4.11057 11.1779L6.1995 7.54325L9.47838 8.99038C9.90786 8.63942 10.3814 8.3149 10.899 8.01681C11.4167 7.71875 11.9135 7.4992 12.3894 7.35816L12.9183 3.75H17.0818L17.5865 7.35097C18.1106 7.54487 18.6086 7.77363 19.0805 8.03725C19.5525 8.30088 20.0008 8.61858 20.4255 8.99038L23.8245 7.54325L25.8894 11.1779L22.851 13.4159C22.9247 13.7043 22.9708 13.9804 22.9892 14.244C23.0076 14.5076 23.0168 14.7596 23.0168 15C23.0168 15.2244 23.0036 15.4671 22.9772 15.7284C22.9507 15.9896 22.9087 16.2804 22.851 16.601L25.8654 18.7981L23.7764 22.5048L20.4255 20.9856C19.98 21.3686 19.5196 21.7063 19.0445 21.9988C18.5693 22.2913 18.0833 22.508 17.5865 22.649L17.0818 26.25H12.9183ZM14.9279 17.9808C15.7644 17.9808 16.4704 17.6931 17.0457 17.1178C17.621 16.5425 17.9087 15.8365 17.9087 15C17.9087 14.1635 17.621 13.4575 17.0457 12.8822C16.4704 12.3069 15.7644 12.0192 14.9279 12.0192C14.1074 12.0192 13.4055 12.3069 12.8221 12.8822C12.2388 13.4575 11.9471 14.1635 11.9471 15C11.9471 15.8365 12.2388 16.5425 12.8221 17.1178C13.4055 17.6931 14.1074 17.9808 14.9279 17.9808ZM14.9279 17.0192C14.3718 17.0192 13.8962 16.8217 13.5012 16.4267C13.1062 16.0316 12.9087 15.5561 12.9087 15C12.9087 14.4439 13.1062 13.9684 13.5012 13.5733C13.8962 13.1783 14.3718 12.9808 14.9279 12.9808C15.5 12.9808 15.9796 13.1783 16.3666 13.5733C16.7536 13.9684 16.9471 14.4439 16.9471 15C16.9471 15.5561 16.7536 16.0316 16.3666 16.4267C15.9796 16.8217 15.5 17.0192 14.9279 17.0192ZM13.6971 25.2885H16.2788L16.7404 21.8125C17.3798 21.6458 17.9668 21.4095 18.5012 21.1034C19.0357 20.7973 19.5769 20.3862 20.125 19.8702L23.3413 21.2596L24.5913 19.0817L21.75 16.9736C21.8333 16.5873 21.897 16.2384 21.9411 15.9267C21.9852 15.615 22.0072 15.3061 22.0072 15C22.0072 14.6619 21.9864 14.3449 21.9447 14.0493C21.9031 13.7536 21.8382 13.4287 21.75 13.0745L24.6394 10.9183L23.3894 8.74038L20.101 10.1298C19.7019 9.68429 19.1843 9.26722 18.5481 8.87859C17.9119 8.48997 17.3013 8.2596 16.7163 8.1875L16.3029 4.71153H13.6971L13.3077 8.16347C12.6314 8.29326 12.018 8.51521 11.4675 8.82931C10.9171 9.14342 10.3782 9.56891 9.85097 10.1058L6.61057 8.74038L5.36057 10.9183L8.20191 13.0024C8.10255 13.3085 8.03085 13.6294 7.98678 13.9652C7.9427 14.3009 7.92066 14.6538 7.92066 15.024C7.92066 15.3622 7.9427 15.6911 7.98678 16.0108C8.03085 16.3305 8.09454 16.6514 8.17788 16.9736L5.36057 19.0817L6.61057 21.2596L9.82691 19.8942C10.3269 20.4103 10.8562 20.8213 11.4147 21.1274C11.9732 21.4335 12.5962 21.6699 13.2837 21.8365L13.6971 25.2885Z" fill="#232323"/>
</svg>
