<svg width="21" height="19" viewBox="0 0 21 19" fill="none" xmlns="http://www.w3.org/2000/svg">
<path d="M10.5 8.42822C9.2625 8.42822 8.23198 8.02718 7.40843 7.22511C6.58485 6.42301 6.17306 5.41467 6.17306 4.20009C6.17306 2.98548 6.58485 1.98182 7.40843 1.18909C8.23198 0.396364 9.2625 0 10.5 0C11.7375 0 12.768 0.396364 13.5916 1.18909C14.4152 1.98182 14.8269 2.98548 14.8269 4.20009C14.8269 5.41467 14.4152 6.42301 13.5916 7.22511C12.768 8.02718 11.7375 8.42822 10.5 8.42822ZM0 19V16.8873C0 16.243 0.189425 15.6671 0.568275 15.1595C0.9471 14.652 1.44421 14.2558 2.05961 13.9712C3.54231 13.3344 4.98 12.8521 6.37267 12.5243C7.76535 12.1966 9.14083 12.0327 10.4991 12.0327C11.8574 12.0327 13.2317 12.198 14.6221 12.5285C16.0125 12.8591 17.4438 13.3442 18.9159 13.984C19.5521 14.2639 20.0585 14.6567 20.4351 15.1624C20.8117 15.6681 21 16.243 21 16.8873V19H0ZM1.15384 17.8762H19.8462V16.8873C19.8462 16.5165 19.7178 16.1592 19.4611 15.8155C19.2043 15.4718 18.8529 15.1867 18.4067 14.9601C17.0567 14.3176 15.7367 13.8564 14.4465 13.5764C13.1564 13.2964 11.8409 13.1564 10.5 13.1564C9.1591 13.1564 7.8359 13.2964 6.5304 13.5764C5.22488 13.8564 3.90961 14.3176 2.58461 14.9601C2.13846 15.1867 1.78846 15.4718 1.53461 15.8155C1.28076 16.1592 1.15384 16.5165 1.15384 16.8873V17.8762ZM10.5 7.30447C11.3981 7.30447 12.1514 7.00807 12.7601 6.41527C13.3687 5.82249 13.6731 5.08877 13.6731 4.21411C13.6731 3.33945 13.3687 2.60574 12.7601 2.01296C12.1514 1.42018 11.3981 1.12379 10.5 1.12379C9.60192 1.12379 8.84856 1.42018 8.23991 2.01296C7.63126 2.60574 7.32694 3.33945 7.32694 4.21411C7.32694 5.08877 7.63126 5.82249 8.23991 6.41527C8.84856 7.00807 9.60192 7.30447 10.5 7.30447Z" fill="black" fill-opacity="0.7"/>
</svg>
