<svg width="30" height="30" viewBox="0 0 30 30" fill="none" xmlns="http://www.w3.org/2000/svg">
<path d="M9.5 21C7.97223 21 6.67361 20.4658 5.60416 19.3973C4.53472 18.3288 4 17.0314 4 15.505C4 13.9786 4.53472 12.6795 5.60416 11.6077C6.67361 10.5359 7.97223 10 9.5 10C10.6621 10 11.7088 10.3226 12.6403 10.9678C13.5718 11.613 14.2194 12.4616 14.5833 13.5136H26V17.4864H23.4658V21H19.7469V17.4864H14.5833C14.2194 18.5384 13.5718 19.387 12.6403 20.0322C11.7088 20.6774 10.6621 21 9.5 21ZM9.5 20.1539C10.7594 20.1539 11.7779 19.7547 12.5557 18.9565C13.3334 18.1583 13.7963 17.3862 13.9443 16.6402H20.6608V20.1539H22.6196V16.6402H25.1539V14.3598H13.9423C13.7957 13.6138 13.3334 12.8417 12.5557 12.0435C11.7779 11.2453 10.7594 10.8461 9.5 10.8461C8.20644 10.8461 7.10741 11.2981 6.20292 12.2019C5.2984 13.1058 4.84615 14.204 4.84615 15.4966C4.84615 16.7893 5.2984 17.8886 6.20292 18.7947C7.10741 19.7008 8.20644 20.1539 9.5 20.1539ZM9.5 16.6931C9.82718 16.6931 10.1078 16.576 10.3419 16.3419C10.576 16.1078 10.6931 15.8272 10.6931 15.5C10.6931 15.1728 10.576 14.8922 10.3419 14.6581C10.1078 14.424 9.82718 14.3069 9.5 14.3069C9.17282 14.3069 8.89219 14.424 8.65809 14.6581C8.42397 14.8922 8.30691 15.1728 8.30691 15.5C8.30691 15.8272 8.42397 16.1078 8.65809 16.3419C8.89219 16.576 9.17282 16.6931 9.5 16.6931Z" fill="#232323"/>
</svg>
