<svg width="30" height="30" viewBox="0 0 30 30" fill="none" xmlns="http://www.w3.org/2000/svg">
<path d="M3.75 25V11.875L12.5 5.2644L17.8606 9.27884C17.6683 9.32692 17.48 9.38582 17.2957 9.45553C17.1114 9.52524 16.9383 9.60336 16.7764 9.68991L12.5 6.45431L4.71153 12.3477V24.0385H10.4327V24.0144V25H3.75ZM13.125 25V23.3407C13.125 23.0351 13.2103 22.7536 13.381 22.4964C13.5517 22.2392 13.7684 22.028 14.0312 21.863C14.9415 21.3165 15.8986 20.9095 16.9027 20.6418C17.9067 20.3742 18.9391 20.2404 20 20.2404C21.0609 20.2404 22.0933 20.3742 23.0973 20.6418C24.1014 20.9095 25.0585 21.3165 25.9688 21.863C26.2316 22.028 26.4483 22.2392 26.619 22.4964C26.7897 22.7536 26.875 23.0351 26.875 23.3407V25H13.125ZM14.0385 24.0385H25.9615V22.9399C25.0384 22.4079 24.0777 21.9852 23.0794 21.6719C22.0811 21.3586 21.0546 21.2019 20 21.2019C18.9454 21.2019 17.9189 21.3598 16.9206 21.6755C15.9223 21.9912 14.9616 22.4231 14.0385 22.9712V24.0385ZM20.0028 17.6202C19.1356 17.6202 18.3974 17.3166 17.7885 16.7096C17.1795 16.1025 16.875 15.3653 16.875 14.498C16.875 13.6308 17.1785 12.8926 17.7856 12.2837C18.3927 11.6747 19.1299 11.3702 19.9972 11.3702C20.8644 11.3702 21.6026 11.6737 22.2115 12.2808C22.8205 12.8879 23.125 13.6251 23.125 14.4924C23.125 15.3596 22.8215 16.0978 22.2144 16.7067C21.6073 17.3157 20.8701 17.6202 20.0028 17.6202ZM20 16.6587C20.6114 16.6587 21.1248 16.4509 21.5403 16.0355C21.9557 15.62 22.1635 15.1066 22.1635 14.4952C22.1635 13.8838 21.9557 13.3704 21.5403 12.9549C21.1248 12.5395 20.6114 12.3317 20 12.3317C19.3886 12.3317 18.8752 12.5395 18.4597 12.9549C18.0443 13.3704 17.8365 13.8838 17.8365 14.4952C17.8365 15.1066 18.0443 15.62 18.4597 16.0355C18.8752 16.4509 19.3886 16.6587 20 16.6587Z" fill="#232323"/>
</svg>
