<svg width="42" height="43" viewBox="0 0 42 43" fill="none" xmlns="http://www.w3.org/2000/svg">
<path d="M8.67816 34.1068C8.48598 34.1068 8.32596 34.0426 8.19809 33.9141C8.0702 33.7857 8.00625 33.6255 8.00625 33.4337V31.6298H6.79809C5.86698 31.6298 5.08452 31.3129 4.45073 30.6791C3.81691 30.0453 3.5 29.2628 3.5 28.3317V18.7C3.5 17.5715 3.84784 16.761 4.54352 16.2685C5.23924 15.7761 5.94812 15.5298 6.67017 15.5298V12.575C6.67017 11.6596 6.9697 10.9024 7.56875 10.3034C8.1678 9.70431 8.92501 9.40479 9.84038 9.40479H32.1697C33.0851 9.40479 33.8406 9.70431 34.4363 10.3034C35.032 10.9024 35.3298 11.6596 35.3298 12.575V15.5298C36.151 15.5298 36.8846 15.7929 37.5308 16.319C38.1769 16.8451 38.5 17.6388 38.5 18.7V28.3317C38.5 29.2628 38.1831 30.0453 37.5493 30.6791C36.9155 31.3129 36.133 31.6298 35.2019 31.6298H33.9937V33.4337C33.9937 33.6255 33.941 33.7857 33.8356 33.9141C33.7301 34.0426 33.5813 34.1068 33.3892 34.1068C33.197 34.1068 33.0366 34.0426 32.9079 33.9141C32.7792 33.7857 32.7149 33.6255 32.7149 33.4337V31.6298H9.35239V33.4337C9.35239 33.6266 9.28807 33.787 9.15941 33.9149C9.03073 34.0428 8.87031 34.1068 8.67816 34.1068ZM6.79809 30.2837H35.2019C35.7404 30.2837 36.2003 30.093 36.5817 29.7116C36.9632 29.3302 37.1539 28.8702 37.1539 28.3317V18.7113C37.1539 18.1878 36.9789 17.751 36.6289 17.401C36.2789 17.051 35.8402 16.876 35.313 16.876C34.7857 16.876 34.3527 17.051 34.014 17.401C33.6752 17.751 33.5058 18.184 33.5058 18.7V25.1548H8.49424V18.7C8.49424 18.184 8.32484 17.751 7.98604 17.401C7.64727 17.051 7.21426 16.876 6.68701 16.876C6.15977 16.876 5.72114 17.051 5.37114 17.401C5.02114 17.751 4.84614 18.1878 4.84614 18.7113V28.3317C4.84614 28.8702 5.03685 29.3302 5.41826 29.7116C5.79967 30.093 6.25962 30.2837 6.79809 30.2837ZM9.84038 23.8086H32.1596V18.7C32.1596 18.0202 32.3357 17.4262 32.688 16.918C33.0402 16.4098 33.4721 16.0368 33.9836 15.799V12.575C33.9836 12.0365 33.8086 11.5979 33.4586 11.2591C33.1086 10.9204 32.6794 10.751 32.1709 10.751H9.82909C9.3206 10.751 8.89136 10.9204 8.54136 11.2591C8.19136 11.5979 8.01636 12.0365 8.01636 12.575V15.799C8.52788 16.0368 8.95977 16.4098 9.31201 16.918C9.66426 17.4262 9.84038 18.0202 9.84038 18.7V23.8086Z" fill="black" fill-opacity="0.7"/>
</svg>
