<svg width="38" height="38" viewBox="0 0 38 38" fill="none" xmlns="http://www.w3.org/2000/svg">
<circle cx="19" cy="19" r="19" fill="#F55252" fill-opacity="0.2"/>
<path d="M14.2088 27.5334H23.7912V24.3334C23.7912 23.078 23.3289 22.0052 22.4044 21.1149C21.4798 20.2246 20.345 19.7795 19 19.7795C17.655 19.7795 16.5202 20.2246 15.5956 21.1149C14.6711 22.0052 14.2088 23.078 14.2088 24.3334V27.5334ZM19 18.2205C20.345 18.2205 21.4798 17.7754 22.4044 16.8851C23.3289 15.9949 23.7912 14.9221 23.7912 13.6667V10.4667H14.2088V13.6667C14.2088 14.9221 14.6711 15.9949 15.5956 16.8851C16.5202 17.7754 17.655 18.2205 19 18.2205ZM11 28.6V27.5334H13.0659V24.3334C13.0659 23.0164 13.4985 21.8482 14.3637 20.8287C15.2289 19.8093 16.3377 19.1997 17.6901 19C16.3377 18.7867 15.2289 18.1737 14.3637 17.161C13.4985 16.1484 13.0659 14.9836 13.0659 13.6667V10.4667H11V9.40002H27V10.4667H24.9341V13.6667C24.9341 14.9836 24.5015 16.1484 23.6363 17.161C22.7711 18.1737 21.6623 18.7867 20.3099 19C21.6623 19.1997 22.7711 19.8093 23.6363 20.8287C24.5015 21.8482 24.9341 23.0164 24.9341 24.3334V27.5334H27V28.6H11Z" fill="#F55252"/>
</svg>
