<svg width="29" height="28" viewBox="0 0 29 28" fill="none" xmlns="http://www.w3.org/2000/svg">
<path d="M25.8565 1.98315H2.73413V25.1055H25.8565V1.98315Z" fill="#3498DB"/>
<path d="M28.6413 23.6446V4.47637C28.6413 3.32551 28.1835 2.22067 27.3702 1.40484C26.5569 0.591561 25.4495 0.133789 24.2987 0.133789H5.13043C2.72897 0.133789 0.777588 2.07491 0.777588 4.47637V23.6446C0.777588 26.0461 2.72897 28 5.13043 28H24.2987C25.4521 27.9974 26.5569 27.5371 27.3702 26.7213C28.186 25.9029 28.6413 24.798 28.6413 23.6446ZM11.8054 24.5167C11.1686 24.5167 10.6443 23.995 10.6443 23.3556V20.9388H8.55486C7.91549 20.9388 7.39378 20.4171 7.39378 19.7777V17.8392H5.42198C4.78261 17.8392 4.26086 17.3302 4.26086 16.6781V11.4429C4.26086 10.8061 4.78261 10.2818 5.42198 10.2818H7.39378V8.34327C7.39378 7.70391 7.91549 7.18217 8.55486 7.18217H10.6443V4.77814C10.6443 4.12855 11.1686 3.61707 11.8054 3.61707H23.9994C24.649 3.61707 25.158 4.12855 25.158 4.77814V23.3556C25.158 23.995 24.649 24.5167 23.9994 24.5167H11.8054Z" fill="#3F3F3F"/>
<path d="M22.8383 7.10043C22.8383 6.46106 22.314 5.93933 21.6747 5.93933H19.9228C19.2834 5.93933 18.7617 6.46106 18.7617 7.10043C18.7617 7.7398 19.2834 8.26151 19.9228 8.26151H21.6747C22.314 8.26151 22.8383 7.7398 22.8383 7.10043ZM22.8383 11.7422C22.8383 11.1054 22.314 10.5837 21.6747 10.5837H19.9228C19.2834 10.5837 18.7617 11.1054 18.7617 11.7422C18.7617 12.3816 19.2834 12.9033 19.9228 12.9033H21.6747C22.314 12.9033 22.8383 12.3816 22.8383 11.7422ZM22.8383 16.3892C22.8383 15.7498 22.314 15.2281 21.6747 15.2281H19.9228C19.2834 15.2281 18.7617 15.7498 18.7617 16.3892C18.7617 17.026 19.2834 17.5503 19.9228 17.5503H21.6747C22.314 17.5503 22.8383 17.026 22.8383 16.3892ZM22.8383 21.031C22.8383 20.3942 22.314 19.8699 21.6747 19.8699H19.9228C19.2834 19.8699 18.7617 20.3942 18.7617 21.031C18.7617 21.6703 19.2834 22.1921 19.9228 22.1921H21.6747C22.314 22.1921 22.8383 21.6703 22.8383 21.031Z" fill="#232323"/>
</svg>
