<svg width="24" height="17" viewBox="0 0 24 17" fill="none" xmlns="http://www.w3.org/2000/svg">
<path d="M5.42915 10.4979L4.59791 9.66666C5.62569 8.625 6.73992 7.83681 7.94062 7.3021C9.14131 6.76737 10.4389 6.5 11.8333 6.5C13.2278 6.5 14.5254 6.76737 15.726 7.3021C16.9267 7.83681 18.041 8.61806 19.0688 9.64584L18.2375 10.4979C17.3028 9.56321 16.293 8.8646 15.2083 8.40209C14.1236 7.9396 12.9986 7.70835 11.8333 7.70835C10.6681 7.70835 9.54307 7.9396 8.45834 8.40209C7.37362 8.8646 6.36389 9.56321 5.42915 10.4979ZM0.852069 5.90002L0 5.04793C1.52638 3.5132 3.29686 2.2882 5.31145 1.37291C7.32603 0.457635 9.49999 0 11.8333 0C14.1667 0 16.3406 0.457635 18.3552 1.37291C20.3698 2.2882 22.1403 3.5132 23.6667 5.04793L22.8146 5.90002C21.3368 4.4528 19.6684 3.30904 17.8094 2.46875C15.9503 1.62848 13.9583 1.20835 11.8333 1.20835C9.70834 1.20835 7.71632 1.62848 5.85729 2.46875C3.99827 3.30904 2.32986 4.4528 0.852069 5.90002ZM11.8333 16.8813L14.5708 14.1375C14.2139 13.7806 13.8045 13.5017 13.3427 13.3011C12.8809 13.1004 12.3778 13 11.8333 13C11.2889 13 10.7858 13.1004 10.324 13.3011C9.86214 13.5017 9.45277 13.7806 9.09583 14.1375L11.8333 16.8813Z" fill="#232323"/>
</svg>
