<svg width="30" height="30" viewBox="0 0 30 30" fill="none" xmlns="http://www.w3.org/2000/svg">
<path d="M4.00003 15C4.00003 13.4826 4.28807 12.054 4.86416 10.7142C5.44025 9.37448 6.22541 8.20855 7.21964 7.21642C8.21387 6.22432 9.37733 5.44022 10.71 4.86413C12.0427 4.28804 13.4727 4 15 4C16.5273 4 17.9609 4.28452 19.3006 4.85354C20.6403 5.42259 21.8073 6.20317 22.8016 7.19528C23.7958 8.1874 24.5774 9.35334 25.1465 10.6931C25.7155 12.0328 26 13.4684 26 15H25.1539C25.1539 13.5904 24.887 12.2695 24.3533 11.0371C23.8195 9.80478 23.0939 8.72767 22.1762 7.80578C21.2586 6.88389 20.1808 6.16014 18.9428 5.63454C17.7048 5.10895 16.3902 4.84615 14.9988 4.84615C13.6075 4.84615 12.2957 5.10847 11.0635 5.63311C9.83128 6.15776 8.75429 6.87915 7.83251 7.79728C6.91071 8.71539 6.18253 9.79188 5.64799 11.0267C5.11345 12.2616 4.84617 13.586 4.84617 15H4.00003ZM8.60096 15C8.60096 13.1958 9.22392 11.6747 10.4698 10.4367C11.7157 9.19877 13.2265 8.57979 15.002 8.57979C16.7776 8.57979 18.2912 9.19877 19.5428 10.4367C20.7944 11.6747 21.4202 13.1958 21.4202 15H20.574C20.574 13.4515 20.0304 12.1354 18.943 11.0516C17.8556 9.96785 16.5406 9.42596 14.9978 9.42596C13.455 9.42596 12.1442 9.96785 11.0654 11.0516C9.98656 12.1354 9.44714 13.4515 9.44714 15H8.60096ZM11.7 25.6784L11.095 25.0734L14.5769 21.5915V17.09C14.0819 16.935 13.6797 16.6717 13.3701 16.3C13.0606 15.9283 12.9058 15.5044 12.9058 15.0282C12.9058 14.4433 13.1102 13.9469 13.5189 13.5389C13.9276 13.1309 14.4226 12.9269 15.0039 12.9269C15.5851 12.9269 16.0789 13.1309 16.485 13.5389C16.8912 13.9469 17.0942 14.4414 17.0942 15.0225C17.0942 15.496 16.9395 15.9216 16.6299 16.2993C16.3204 16.6769 15.9181 16.9405 15.4231 17.09V21.5915L18.905 25.0734L18.3 25.6784L15 22.3784L11.7 25.6784Z" fill="#232323"/>
</svg>
